<svg width="20" height="20" viewBox="0 0 20 20" fill="none" xmlns="http://www.w3.org/2000/svg">
<path fill-rule="evenodd" clip-rule="evenodd" d="M4.51746 17.25C4.73746 17.6609 5.16663 17.9175 5.63329 17.9167C5.82996 17.9175 6.02496 17.8717 6.19996 17.7834L9.99329 15.8C10.0033 15.7942 10.015 15.7909 10.0266 15.7917L13.7941 17.7584C13.9766 17.8567 14.1808 17.9075 14.3875 17.9067C14.4533 17.9067 14.52 17.9009 14.585 17.8917C15.2633 17.7809 15.7266 17.1459 15.6266 16.4667L14.8933 12.2917C14.889 12.2856 14.8879 12.2853 14.8876 12.2846C14.8875 12.2844 14.8875 12.2841 14.8875 12.2834C14.8875 12.2809 14.8933 12.275 14.8933 12.275L17.9516 9.31671C18.4033 8.88087 18.4608 8.17837 18.085 7.67504C17.8808 7.41171 17.5816 7.23837 17.2516 7.19171L13.0333 6.58337C13.0258 6.58337 13.0175 6.57504 13.0091 6.56671L11.125 2.78337C10.9125 2.35587 10.4775 2.08587 9.99996 2.08337C9.86163 2.08337 9.72329 2.10504 9.59163 2.15004C9.27579 2.25754 9.01496 2.48421 8.86663 2.78337L6.98496 6.55587C6.98496 6.57337 6.96746 6.58087 6.95079 6.58087L2.74246 7.18921C2.48496 7.23254 2.24496 7.34754 2.05079 7.52254C1.80496 7.76337 1.66663 8.09421 1.66663 8.43921C1.66746 8.76671 1.79913 9.08004 2.03329 9.30837L5.11663 12.275C5.12329 12.2817 5.12579 12.2909 5.12579 12.3L4.38329 16.4584C4.33913 16.73 4.38663 17.0084 4.51746 17.25ZM9.97574 3.30666L9.98407 3.30082H9.9999L10.0074 3.30832C10.0149 3.30832 10.0216 3.30999 10.0274 3.31499C10.0324 3.31999 10.0349 3.32666 10.0341 3.33416L11.9174 7.09999C12.0982 7.47082 12.4499 7.72916 12.8582 7.79166L17.0766 8.40499C17.0841 8.40499 17.0916 8.40666 17.0982 8.40999C17.1024 8.41082 17.1057 8.41082 17.1099 8.40999L17.1182 8.41749L17.1099 8.43582L14.0516 11.4017C13.7474 11.6867 13.6116 12.1083 13.6924 12.5175L14.4266 16.6683L14.4099 16.6842H14.3924C14.3891 16.6858 14.3857 16.6858 14.3824 16.6842C14.3741 16.6833 14.3657 16.68 14.3582 16.6758H14.3507L10.6007 14.7175C10.4207 14.6242 10.2207 14.5742 10.0174 14.575C9.80824 14.575 9.60157 14.6275 9.41657 14.7258L5.6424 16.705C5.63824 16.7058 5.63324 16.7058 5.62907 16.705C5.61157 16.705 5.59657 16.6933 5.5924 16.6767V16.66L6.32574 12.51C6.39407 12.1042 6.26074 11.69 5.9674 11.4017L2.88407 8.44332C2.88323 8.43082 2.8849 8.41999 2.89157 8.40916L2.9424 8.39249L7.13407 7.79166C7.5424 7.72832 7.89324 7.47082 8.0749 7.09999L9.95907 3.32499C9.96323 3.31749 9.96824 3.31082 9.97574 3.30666Z" fill="#00C5D7"/>
</svg>
