<svg width="20" height="20" viewBox="0 0 20 20" fill="none" xmlns="http://www.w3.org/2000/svg">
<path d="M16.6667 2.49994H2.5V14.3836H10.4987L13.8472 16.7618V14.3836H16.6667V2.49994Z" stroke="#6884A7" stroke-linecap="round" stroke-linejoin="round"/>
<path d="M10.0859 8.47922C10.0859 8.78144 9.84088 9.02643 9.53867 9.02643C9.23645 9.02643 8.99146 8.78144 8.99146 8.47922C8.99146 8.177 9.23645 7.93201 9.53867 7.93201C9.84088 7.93201 10.0859 8.177 10.0859 8.47922Z" fill="#6884A7" stroke="#6884A7"/>
<path d="M13.7477 8.47922C13.7477 8.78144 13.5027 9.02643 13.2005 9.02643C12.8983 9.02643 12.6533 8.78144 12.6533 8.47922C12.6533 8.177 12.8983 7.93201 13.2005 7.93201C13.5028 7.93201 13.7477 8.177 13.7477 8.47922Z" fill="#6884A7" stroke="#6884A7"/>
<path d="M5.87802 9.52643C6.45638 9.52643 6.92524 9.05758 6.92524 8.47922C6.92524 7.90086 6.45638 7.43201 5.87802 7.43201C5.29966 7.43201 4.83081 7.90086 4.83081 8.47922C4.83081 9.05758 5.29966 9.52643 5.87802 9.52643Z" fill="#6884A7"/>
</svg>
