<svg width="36" height="36" viewBox="0 0 36 36" fill="none" xmlns="http://www.w3.org/2000/svg">
<rect width="36" height="36" rx="18" fill="#00C5D7" fill-opacity="0.1"/>
<path fill-rule="evenodd" clip-rule="evenodd" d="M20.4881 9.66669H15.512C12.9243 9.66669 11.3334 10.9161 11.3334 13.362V24.9425C11.3371 25.1775 11.3921 25.3985 11.4939 25.5978L11.5719 25.7266L11.6536 25.8313C12.0796 26.3308 12.7594 26.4687 13.3204 26.1698L17.9784 23.553L22.6553 26.1643C22.864 26.2743 23.0805 26.3298 23.3007 26.3334C23.6698 26.3334 24.0149 26.1869 24.2693 25.926C24.5238 25.6652 24.6667 25.3114 24.6667 24.9425V13.2147C24.6667 10.8625 23.0402 9.66669 20.4881 9.66669ZM15.5119 10.8727H20.488C22.4583 10.8727 23.4899 11.6312 23.4899 13.2143V24.9421C23.4899 24.991 23.471 25.0379 23.4372 25.0725C23.4035 25.1071 23.3577 25.1266 23.31 25.1266C23.2796 25.126 23.2405 25.116 23.2052 25.0974L18.5362 22.4908C18.1875 22.2976 17.7693 22.2976 17.4223 22.4898L12.7663 25.1051C12.6957 25.1425 12.5947 25.118 12.5409 25.0429L12.5097 24.9911C12.5157 24.9996 12.5147 24.9893 12.5128 24.9714C12.5116 24.9603 12.5101 24.9462 12.5099 24.932L12.51 13.3616C12.51 11.6628 13.516 10.8727 15.5119 10.8727ZM21.4283 15.5338C21.4283 15.2006 21.1649 14.9305 20.8399 14.9305H15.1171L15.0372 14.9361C14.75 14.976 14.5287 15.2284 14.5287 15.5338C14.5287 15.8669 14.7921 16.137 15.1171 16.137H20.8399L20.9198 16.1315C21.207 16.0916 21.4283 15.8392 21.4283 15.5338Z" fill="#00C5D7"/>
</svg>
