<svg width="36" height="36" viewBox="0 0 36 36" fill="none" xmlns="http://www.w3.org/2000/svg">
<rect width="36" height="36" rx="18" fill="#00C5D7" fill-opacity="0.1"/>
<path fill-rule="evenodd" clip-rule="evenodd" d="M21.612 9.66684H14.3878C11.5565 9.66684 9.66699 11.694 9.66699 14.5968V21.4035C9.66699 24.3091 11.5515 26.3335 14.3878 26.3335H21.6112C24.4483 26.3335 26.3337 24.3091 26.3337 21.4035V14.5968C26.3337 11.6914 24.4485 9.66684 21.612 9.66684ZM14.3878 10.9168H21.612C23.7374 10.9168 25.0837 12.3626 25.0837 14.5968V21.4035C25.0837 23.6378 23.7373 25.0835 21.6112 25.0835H14.3878C12.2626 25.0835 10.917 23.6379 10.917 21.4035V14.5968C10.917 12.3655 12.2673 10.9168 14.3878 10.9168ZM21.4085 15.5807C21.1644 15.3367 20.7687 15.3367 20.5246 15.5807L17.0108 19.0933L15.4751 17.5581L15.405 17.4976C15.1603 17.3161 14.813 17.3364 14.5912 17.5583C14.3472 17.8025 14.3473 18.1982 14.5914 18.4422L16.5697 20.4197L16.6398 20.4802C16.8845 20.6617 17.2317 20.6415 17.4535 20.4196L21.4085 16.4646L21.469 16.3945C21.6506 16.1498 21.6304 15.8026 21.4085 15.5807Z" fill="#00C5D7"/>
</svg>
