<svg width="14" height="14" viewBox="0 0 14 14" fill="none" xmlns="http://www.w3.org/2000/svg">
<path d="M11.6313 13.3086C11.3009 13.5446 10.9139 13.6666 10.4795 13.6666C10.0364 13.6666 9.5406 13.5393 9.00276 13.2946C6.07263 12.0732 1.55232 7.55697 0.37253 4.66215C-0.122609 3.58276 -0.122609 2.69672 0.363188 2.03202C0.476629 1.85201 0.919718 1.30598 1.46757 0.890625C1.49093 1.05597 4.72334 5.0015 4.72334 4.9355C4.72802 5.00684 4.74203 5.07684 4.77006 5.15285C5.49208 6.91094 6.75662 8.17434 8.53097 8.90037C8.60171 8.92437 8.6631 8.93771 8.72916 8.93771L8.73383 8.94304C8.88464 9.12238 12.7256 12.2619 12.7777 12.1912C12.3433 12.7666 11.7774 13.2279 11.6313 13.3086" fill="#5AB069"/>
<path d="M4.72336 4.93204C4.71001 4.67803 4.8388 4.45469 4.98227 4.20467C5.16044 3.89599 5.36196 3.54597 5.27054 3.10395C5.18713 2.70593 3.91325 1.10518 3.53356 0.734493C3.28332 0.491147 3.02707 0.356474 2.76416 0.334473C2.34109 0.315805 1.87464 0.567151 1.46492 0.884501C1.39618 0.937837 4.72669 5.00138 4.72336 4.93204" fill="#5AB069"/>
<path d="M8.73037 8.93542C8.98461 8.94809 9.20816 8.81941 9.45773 8.67607C9.76669 8.49873 10.1177 8.29672 10.5601 8.38872C10.9585 8.47206 12.5607 9.74479 12.9317 10.1235C13.1759 10.3735 13.3101 10.6295 13.3328 10.8922C13.3501 11.3149 13.0992 11.7816 12.7816 12.1909C12.7282 12.2596 8.66097 8.93142 8.73037 8.93542" fill="#5AB069"/>
</svg>
