<svg width="16" height="15" viewBox="0 0 16 15" fill="none" xmlns="http://www.w3.org/2000/svg">
<g id="Edit">
<path id="Fill 1" opacity="0.4" d="M14.858 13.4796H9.32764C8.97327 13.4796 8.68567 13.7642 8.68567 14.1148C8.68567 14.4654 8.97327 14.75 9.32764 14.75H14.858C15.2124 14.75 15.5 14.4654 15.5 14.1148C15.5 13.7642 15.2124 13.4796 14.858 13.4796Z" fill="#00C5D7"/>
<path id="Fill 3" d="M12.0615 7.75061L5.72224 14.0143C5.28826 14.4428 4.70022 14.685 4.08735 14.685H1.09746C0.938254 14.685 0.786748 14.6207 0.666913 14.5106C0.555638 14.3929 0.5 14.243 0.5 14.0778L0.579605 11.1001C0.588164 10.5098 0.834682 9.95086 1.25667 9.53249L7.56342 3.29252C7.66784 3.1892 7.83732 3.1892 7.94261 3.29252L12.0615 7.37628C12.1668 7.4796 12.1659 7.64729 12.0615 7.75061Z" fill="#00C5D7"/>
<path id="Fill 6" opacity="0.4" d="M14.2875 5.51843L13.4255 6.37888C13.2963 6.50761 13.0857 6.50846 12.9556 6.37973L8.93514 2.40183C8.80588 2.27395 8.80503 2.06645 8.93428 1.93773L9.78682 1.08659C10.5692 0.306592 11.8428 0.304052 12.6286 1.08151L14.2823 2.71772C15.063 3.4901 15.0655 4.74267 14.2875 5.51843Z" fill="#00C5D7"/>
</g>
</svg>
