<svg width="20" height="20" viewBox="0 0 20 20" fill="none" xmlns="http://www.w3.org/2000/svg">
<path d="M6.97443 11.7453L7.62082 12.239C7.64983 12.2608 7.67641 12.2855 7.70009 12.3129C7.97085 12.6287 9.71488 14.6969 10.1076 16.0147C10.1208 16.0612 10.1274 16.1093 10.1271 16.1575V18.2838C10.1274 18.3936 10.1533 18.5019 10.2028 18.6002C10.2523 18.6985 10.3241 18.784 10.4125 18.8501C10.6427 19.0321 10.9228 19.141 11.2163 19.1626C11.5098 19.1842 11.803 19.1175 12.0577 18.9712C12.1382 18.9289 12.206 18.8663 12.2541 18.7896C12.6478 18.1521 12.9403 17.4582 13.1212 16.7324C13.1856 16.4688 13.1947 16.1949 13.1481 15.9276L12.7163 13.4492C12.714 13.4365 12.7145 13.4234 12.7179 13.4108C12.7212 13.3983 12.7273 13.3867 12.7357 13.3768C12.7441 13.3668 12.7545 13.3588 12.7664 13.3534C12.7782 13.3479 12.7911 13.3451 12.8041 13.3451H17.1594C17.409 13.3464 17.6516 13.2631 17.8472 13.1091C18.0428 12.9551 18.1796 12.7396 18.2351 12.498C18.2606 12.3787 18.2732 12.257 18.2729 12.135C18.2729 11.4621 17.885 11.1511 17.6204 11.018C17.5984 11.0066 17.5795 10.9903 17.5651 10.9703C17.5508 10.9502 17.5414 10.9272 17.5377 10.9029C17.534 10.8786 17.5361 10.8538 17.5439 10.8305C17.5517 10.8071 17.565 10.786 17.5826 10.7687C17.6895 10.668 17.7746 10.5468 17.8326 10.4124C17.8907 10.2779 17.9206 10.1332 17.9204 9.98693C17.9204 9.50287 17.5545 9.15071 17.3679 9.00913C17.3566 9.00034 17.3473 8.98935 17.3404 8.97684C17.3336 8.96432 17.3294 8.95055 17.3282 8.93637C17.3269 8.9222 17.3286 8.90791 17.3331 8.89441C17.3377 8.8809 17.3449 8.86846 17.3545 8.85786C17.5334 8.64823 17.6288 8.38095 17.6228 8.10635C17.6228 7.64528 17.2789 7.25924 17.0203 7.08618C16.9845 7.06207 16.9597 7.02504 16.951 6.98299C16.9424 6.94094 16.9506 6.8972 16.974 6.86109C17.1205 6.61201 17.1952 6.32775 17.1899 6.0394C17.1899 5.39438 16.541 4.8849 15.9178 4.8849H8.35624C8.27575 4.88465 8.19634 4.90331 8.12452 4.93936L7.0598 5.46699C6.97348 5.50983 6.90085 5.57563 6.85002 5.65705C6.7992 5.73846 6.77218 5.83229 6.77197 5.92806V11.3363C6.77205 11.4152 6.79034 11.4932 6.82543 11.5641C6.86052 11.635 6.91148 11.6969 6.97443 11.7453Z" stroke="#6884A7" stroke-miterlimit="10"/>
<path d="M6.16741 12.4999H2.16609C1.89031 12.4999 1.66675 12.2369 1.66675 11.9124V4.75398C1.66675 4.42955 1.89031 4.16654 2.16609 4.16654H6.16741C6.44319 4.16654 6.66675 4.42955 6.66675 4.75398V11.9124C6.66675 12.2369 6.44319 12.4999 6.16741 12.4999Z" stroke="#6884A7" stroke-miterlimit="10"/>
<path d="M5.00016 6.66545C5.00016 6.20674 4.62719 5.83321 4.16683 5.83321C3.70647 5.83321 3.3335 6.20674 3.3335 6.66545C3.3335 7.12417 3.70647 7.49988 4.16683 7.49988C4.62719 7.49988 5.00016 7.12635 5.00016 6.66545Z" stroke="#6884A7" stroke-miterlimit="10"/>
</svg>
