<svg width="40" height="41" viewBox="0 0 40 41" fill="none" xmlns="http://www.w3.org/2000/svg">
<g clip-path="url(#clip0_704_6064)">
<path fill-rule="evenodd" clip-rule="evenodd" d="M12.5042 22.4429L7.14624 37.2933L12.7261 35.7605L16.0404 40.5067L21.2034 26.1941C20.632 26.0328 13.2101 24.2378 12.5042 22.4429Z" fill="#F4483E"/>
<path fill-rule="evenodd" clip-rule="evenodd" d="M27.2404 22.4429L32.5984 37.2933L27.0186 35.7605L23.7043 40.5067L18.5413 26.1941C19.1127 26.0328 26.5278 24.2378 27.2404 22.4429Z" fill="#F4483E"/>
<g style="mix-blend-mode:soft-light" opacity="0.7">
<path fill-rule="evenodd" clip-rule="evenodd" d="M29.3716 28.3655L28.7732 26.6982C28.7127 26.8529 28.6522 27.0209 28.6052 27.189C28.2623 28.3991 27.5699 29.0041 26.5346 29.0041C26.2657 29.0041 25.9833 28.9638 25.6674 28.8831C25.2707 28.7823 24.8808 28.7285 24.5111 28.7285C23.4556 28.7285 22.5144 29.1386 21.6741 29.952C21.1766 30.4361 20.6791 30.705 20.1816 30.7655L20.5783 31.8545C21.2371 31.7201 21.869 31.3571 22.4741 30.7655C23.0926 30.1604 23.7581 29.8714 24.5111 29.8714C24.7867 29.8714 25.0825 29.9117 25.385 29.9856C25.7884 30.0865 26.1716 30.1403 26.5346 30.1403C27.3077 30.1403 28.6119 29.8915 29.3716 28.3655Z" fill="black"/>
</g>
<g style="mix-blend-mode:soft-light" opacity="0.7">
<path fill-rule="evenodd" clip-rule="evenodd" d="M18.2858 29.952C17.4522 29.1386 16.5043 28.7285 15.4488 28.7285C15.0791 28.7285 14.6891 28.7823 14.2925 28.8831C13.9833 28.9638 13.6942 29.0041 13.4253 29.0041C12.3833 29.0041 11.6975 28.3991 11.3547 27.189C11.2807 26.9134 11.1799 26.6579 11.0723 26.4226L10.4673 28.1033C11.2068 29.8646 12.6118 30.147 13.432 30.147C13.7883 30.147 14.1782 30.0932 14.5816 29.9924C14.8841 29.9117 15.1799 29.8781 15.4555 29.8781C16.2085 29.8781 16.874 30.1739 17.4925 30.7722C18.0303 31.2966 18.6017 31.6461 19.1866 31.8142L19.5765 30.7319C19.1396 30.631 18.7093 30.3688 18.2858 29.952Z" fill="black"/>
</g>
<path d="M18.2857 29.9521C17.1563 28.8496 15.8252 28.4933 14.2924 28.8832C12.7597 29.2731 11.7849 28.7084 11.3546 27.1891C10.9244 25.6697 9.94958 24.695 8.43025 24.2647C6.91092 23.8345 6.34621 22.8597 6.73613 21.3269C7.12605 19.7941 6.76974 18.4697 5.66722 17.3336C4.5647 16.2042 4.5647 15.0748 5.66722 13.9387C6.76974 12.8092 7.12605 11.4782 6.73613 9.94538C6.34621 8.4126 6.91092 7.43781 8.43025 7.00756C9.94958 6.58403 10.9244 5.60924 11.3546 4.08992C11.7849 2.57059 12.7597 2.00588 14.2924 2.3958C15.8252 2.78571 17.1496 2.42941 18.2857 1.32689C19.4151 0.22437 20.5445 0.22437 21.6807 1.32689C22.8168 2.42941 24.1344 2.78571 25.6672 2.3958C27.2 2.00588 28.1748 2.57059 28.605 4.08992C29.0353 5.60924 30.0101 6.58403 31.5294 7.01429C33.0487 7.44454 33.6134 8.41933 33.2235 9.9521C32.8336 11.4849 33.1899 12.8092 34.2924 13.9454C35.395 15.0748 35.395 16.2042 34.2924 17.3403C33.1899 18.4697 32.8336 19.8008 33.2235 21.3336C33.6134 22.8664 33.0487 23.8412 31.5294 24.2714C30.0101 24.7017 29.0353 25.6765 28.605 27.1958C28.1748 28.7151 27.2 29.2798 25.6672 28.8899C24.1344 28.5 22.8101 28.8563 21.6739 29.9588C20.5445 31.0546 19.4151 31.0546 18.2857 29.9521Z" fill="url(#paint0_linear_704_6064)"/>
<path opacity="0.35" d="M30.474 20.0833C29.8958 21.4413 29.0757 22.6648 28.0269 23.7135C26.9782 24.7623 25.7546 25.5824 24.3967 26.1606C22.9849 26.7589 21.4925 27.0614 19.953 27.0614C18.4135 27.0614 16.9143 26.7589 15.5093 26.1606C14.1513 25.5824 12.9278 24.7623 11.879 23.7135C10.8303 22.6648 10.0101 21.4413 9.43196 20.0833C8.85381 18.7186 8.55129 17.2732 8.53784 15.7808C8.53784 15.8278 8.53784 15.8749 8.53784 15.9219C8.53784 17.4614 8.84036 18.9606 9.43868 20.3656C10.0168 21.7236 10.837 22.9471 11.8857 23.9959C12.9345 25.0446 14.158 25.8648 15.516 26.4429C16.9278 27.0413 18.4202 27.3438 19.9597 27.3438C21.4992 27.3438 22.9983 27.0413 24.4034 26.4429C25.7614 25.8648 26.9849 25.0446 28.0336 23.9959C29.0824 22.9471 29.9025 21.7236 30.4807 20.3656C31.079 18.9539 31.3815 17.4614 31.3815 15.9219C31.3815 15.8749 31.3815 15.8278 31.3815 15.7808C31.3546 17.2732 31.0521 18.7186 30.474 20.0833Z" fill="white"/>
<path d="M30.474 11.1957C29.8958 9.8377 29.0757 8.61417 28.0269 7.56543C26.9782 6.51669 25.7546 5.69652 24.3967 5.11837C22.9849 4.52005 21.4925 4.21753 19.953 4.21753C18.4135 4.21753 16.9143 4.52005 15.5093 5.11837C14.1513 5.69652 12.9278 6.51669 11.879 7.56543C10.8303 8.61417 10.0101 9.8377 9.43196 11.1957C8.84036 12.6007 8.53784 14.0999 8.53784 15.6394C8.53784 17.1789 8.84036 18.678 9.43868 20.0831C10.0168 21.4411 10.837 22.6646 11.8857 23.7133C12.9345 24.7621 14.158 25.5822 15.516 26.1604C16.9278 26.7587 18.4202 27.0612 19.9597 27.0612C21.4992 27.0612 22.9983 26.7587 24.4034 26.1604C25.7614 25.5822 26.9849 24.7621 28.0336 23.7133C29.0824 22.6646 29.9025 21.4411 30.4807 20.0831C31.079 18.6713 31.3815 17.1789 31.3815 15.6394C31.3748 14.0999 31.0723 12.6007 30.474 11.1957ZM19.953 25.4612C14.5345 25.4612 10.1311 21.0579 10.1311 15.6394C10.1311 10.2209 14.5345 5.81753 19.953 5.81753C25.3715 5.81753 29.7748 10.2209 29.7748 15.6394C29.7748 21.0511 25.3715 25.4612 19.953 25.4612Z" fill="url(#paint1_linear_704_6064)"/>
<path opacity="0.5" d="M19.953 6.10682C25.3177 6.10682 29.6941 10.4362 29.7748 15.7875C29.7748 15.7404 29.7748 15.6934 29.7748 15.6463C29.7748 10.2278 25.3714 5.82446 19.953 5.82446C14.5345 5.82446 10.1311 10.2278 10.1311 15.6463C10.1311 15.6934 10.1311 15.7404 10.1311 15.7875C10.2118 10.4295 14.5882 6.10682 19.953 6.10682Z" fill="white"/>
<path d="M19.953 25.4614C14.5882 25.4614 10.2118 21.132 10.1311 15.7808C10.1311 15.8278 10.1311 15.8749 10.1311 15.9219C10.1311 21.3404 14.5345 25.7438 19.953 25.7438C25.3714 25.7438 29.7748 21.3404 29.7748 15.9219C29.7748 15.8749 29.7748 15.8278 29.7748 15.7808C29.6941 21.132 25.3244 25.4614 19.953 25.4614Z" fill="#EB9500"/>
<path opacity="0.3" d="M9.43196 11.478C10.0101 10.1201 10.8303 8.89652 11.879 7.84778C12.9278 6.79904 14.1513 5.97887 15.5093 5.40072C16.921 4.8024 18.4135 4.49988 19.953 4.49988C21.4925 4.49988 22.9916 4.8024 24.3967 5.40072C25.7546 5.97887 26.9782 6.79904 28.0269 7.84778C29.0757 8.89652 29.8958 10.1201 30.474 11.478C31.0521 12.8427 31.3547 14.2881 31.3681 15.7806C31.3681 15.7335 31.3681 15.6864 31.3681 15.6394C31.3681 14.0999 31.0656 12.6007 30.4673 11.1957C29.8891 9.8377 29.0689 8.61417 28.0202 7.56543C26.9715 6.51669 25.7479 5.69652 24.3899 5.11837C22.9782 4.52005 21.4857 4.21753 19.9462 4.21753C18.4067 4.21753 16.9076 4.52005 15.5025 5.11837C14.1446 5.69652 12.921 6.51669 11.8723 7.56543C10.8236 8.61417 10.0034 9.8377 9.42524 11.1957C8.84036 12.6007 8.53784 14.0999 8.53784 15.6394C8.53784 15.6864 8.53784 15.7335 8.53784 15.7806C8.55801 14.2881 8.85381 12.8427 9.43196 11.478Z" fill="#EB9500"/>
<path d="M26.4472 13.9723C26.3934 13.8042 26.2522 13.69 26.0774 13.6631L22.0774 13.1387L20.3833 9.47483C20.3094 9.32021 20.1547 9.21937 19.9799 9.21265C19.8052 9.21265 19.6505 9.31349 19.5766 9.46811L17.8421 13.1118L13.8354 13.5958C13.6606 13.616 13.5194 13.737 13.4657 13.8984C13.4119 14.0597 13.4589 14.2412 13.5799 14.3622L16.511 17.1387L15.7312 21.0984C15.6976 21.2664 15.7648 21.4412 15.906 21.5421C15.9867 21.6026 16.0741 21.6295 16.1682 21.6295C16.2421 21.6295 16.3161 21.6093 16.3833 21.5757L19.9262 19.6463L23.4488 21.6093C23.5161 21.6496 23.59 21.6631 23.664 21.6631C23.7581 21.6631 23.8455 21.6362 23.9262 21.5824C24.0673 21.4816 24.1346 21.3068 24.1077 21.1387L23.3682 17.1723L26.3262 14.4295C26.4539 14.3152 26.5009 14.1404 26.4472 13.9723Z" fill="url(#paint2_linear_704_6064)"/>
<path d="M26.4472 13.589C26.3934 13.4209 26.2522 13.3067 26.0774 13.2798L22.0774 12.7554L20.3833 9.09153C20.3094 8.93691 20.1547 8.83607 19.9799 8.82935C19.8052 8.82935 19.6505 8.93019 19.5766 9.08481L17.8421 12.7352L13.8354 13.2193C13.6606 13.2394 13.5194 13.3604 13.4657 13.5218C13.4119 13.6831 13.4589 13.8646 13.5799 13.9856L16.511 16.7621L15.7312 20.7218C15.6976 20.8898 15.7648 21.0646 15.906 21.1655C15.9867 21.226 16.0741 21.2529 16.1682 21.2529C16.2421 21.2529 16.3161 21.2327 16.3833 21.1991L19.9262 19.2697L23.4488 21.2327C23.5161 21.273 23.59 21.2865 23.664 21.2865C23.7581 21.2865 23.8455 21.2596 23.9262 21.2058C24.0673 21.105 24.1346 20.9302 24.1077 20.7621L23.3682 16.7957L26.3262 14.0529C26.4539 13.9386 26.5009 13.7571 26.4472 13.589Z" fill="url(#paint3_linear_704_6064)"/>
<g style="mix-blend-mode:multiply">
<path d="M33.2236 9.9521C33.6135 8.41933 33.0488 7.44454 31.5295 7.01429C30.0101 6.58403 29.0353 5.60924 28.6051 4.08992C28.1748 2.57059 27.2 2.00588 25.6673 2.3958C24.1345 2.78571 22.8101 2.42941 21.674 1.32689C20.5446 0.22437 19.4152 0.22437 18.279 1.32689C17.1496 2.42941 15.8185 2.78571 14.2858 2.3958C12.753 2.00588 11.7782 2.57059 11.3479 4.08992C10.9244 5.60924 9.94962 6.58403 8.43029 7.01429C6.91097 7.44454 6.34626 8.41933 6.73618 9.9521C7.12609 11.4849 6.76979 12.8092 5.66727 13.9454C4.90088 14.7252 4.66559 15.5118 4.96811 16.2983C8.87399 18.0261 14.2118 19.1151 20.1009 19.1151C25.8421 19.1151 31.0589 18.0798 34.9379 16.4261C35.3143 15.5992 35.0992 14.7723 34.2925 13.9387C33.19 12.8092 32.8337 11.4782 33.2236 9.9521Z" fill="url(#paint4_linear_704_6064)"/>
</g>
</g>
<defs>
<linearGradient id="paint0_linear_704_6064" x1="19.9792" y1="0.5" x2="19.9792" y2="30.7777" gradientUnits="userSpaceOnUse">
<stop stop-color="#FFE852"/>
<stop offset="1" stop-color="#FFBB00"/>
</linearGradient>
<linearGradient id="paint1_linear_704_6064" x1="19.9539" y1="4.22072" x2="19.9539" y2="27.0568" gradientUnits="userSpaceOnUse">
<stop stop-color="#FFC429"/>
<stop offset="1" stop-color="#FFA200"/>
</linearGradient>
<linearGradient id="paint2_linear_704_6064" x1="19.954" y1="14.8296" x2="19.954" y2="23.2764" gradientUnits="userSpaceOnUse">
<stop stop-color="#FFC429"/>
<stop offset="1" stop-color="#FFA200"/>
</linearGradient>
<linearGradient id="paint3_linear_704_6064" x1="19.954" y1="3.84194" x2="19.954" y2="21.7128" gradientUnits="userSpaceOnUse">
<stop stop-color="white"/>
<stop offset="0.9361" stop-color="#FFEEBB"/>
</linearGradient>
<linearGradient id="paint4_linear_704_6064" x1="19.9791" y1="19.1159" x2="19.9791" y2="0.500004" gradientUnits="userSpaceOnUse">
<stop stop-color="white"/>
<stop offset="1" stop-color="white"/>
</linearGradient>
<clipPath id="clip0_704_6064">
<rect width="40" height="40" fill="white" transform="translate(0 0.5)"/>
</clipPath>
</defs>
</svg>
