<svg width="36" height="36" viewBox="0 0 36 36" fill="none" xmlns="http://www.w3.org/2000/svg">
<rect width="36" height="36" rx="18" fill="#00C5D7" fill-opacity="0.1"/>
<path fill-rule="evenodd" clip-rule="evenodd" d="M12.5175 25.25C12.7375 25.6608 13.1666 25.9175 13.6333 25.9166C13.83 25.9175 14.025 25.8716 14.2 25.7833L17.9933 23.8C18.0033 23.7941 18.015 23.7908 18.0266 23.7916L21.7941 25.7583C21.9766 25.8566 22.1808 25.9075 22.3875 25.9066C22.4533 25.9066 22.52 25.9008 22.585 25.8916C23.2633 25.7808 23.7266 25.1458 23.6266 24.4666L22.8933 20.2916C22.889 20.2856 22.8879 20.2853 22.8876 20.2846C22.8875 20.2843 22.8875 20.284 22.8875 20.2833C22.8875 20.2808 22.8933 20.275 22.8933 20.275L25.9516 17.3166C26.4033 16.8808 26.4608 16.1783 26.085 15.675C25.8808 15.4116 25.5816 15.2383 25.2516 15.1916L21.0333 14.5833C21.0258 14.5833 21.0175 14.575 21.0091 14.5666L19.125 10.7833C18.9125 10.3558 18.4775 10.0858 18 10.0833C17.8616 10.0833 17.7233 10.105 17.5916 10.15C17.2758 10.2575 17.015 10.4841 16.8666 10.7833L14.985 14.5558C14.985 14.5733 14.9675 14.5808 14.9508 14.5808L10.7425 15.1891C10.485 15.2325 10.245 15.3475 10.0508 15.5225C9.80496 15.7633 9.66663 16.0941 9.66663 16.4391C9.66746 16.7666 9.79913 17.08 10.0333 17.3083L13.1166 20.275C13.1233 20.2816 13.1258 20.2908 13.1258 20.3L12.3833 24.4583C12.3391 24.73 12.3866 25.0083 12.5175 25.25ZM17.9757 11.3066L17.9841 11.3008H17.9999L18.0074 11.3083C18.0149 11.3083 18.0216 11.3099 18.0274 11.3149C18.0324 11.3199 18.0349 11.3266 18.0341 11.3341L19.9174 15.0999C20.0982 15.4708 20.4499 15.7291 20.8582 15.7916L25.0766 16.4049C25.0841 16.4049 25.0916 16.4066 25.0982 16.4099C25.1024 16.4108 25.1057 16.4108 25.1099 16.4099L25.1182 16.4174L25.1099 16.4358L22.0516 19.4016C21.7474 19.6866 21.6116 20.1083 21.6924 20.5174L22.4266 24.6683L22.4099 24.6841H22.3924C22.3891 24.6858 22.3857 24.6858 22.3824 24.6841C22.3741 24.6833 22.3657 24.6799 22.3582 24.6758H22.3507L18.6007 22.7174C18.4207 22.6241 18.2207 22.5741 18.0174 22.5749C17.8082 22.5749 17.6016 22.6274 17.4166 22.7258L13.6424 24.7049C13.6382 24.7058 13.6332 24.7058 13.6291 24.7049C13.6116 24.7049 13.5966 24.6933 13.5924 24.6766V24.6599L14.3257 20.5099C14.3941 20.1041 14.2607 19.6899 13.9674 19.4016L10.8841 16.4433C10.8832 16.4308 10.8849 16.4199 10.8916 16.4091L10.9424 16.3924L15.1341 15.7916C15.5424 15.7283 15.8932 15.4708 16.0749 15.0999L17.9591 11.3249C17.9632 11.3174 17.9682 11.3108 17.9757 11.3066Z" fill="#00C5D7"/>
</svg>
