<svg width="18" height="18" viewBox="0 0 18 18" fill="none" xmlns="http://www.w3.org/2000/svg">
<g id="Time Circle">
<path id="Time Circle_2" fill-rule="evenodd" clip-rule="evenodd" d="M8.99984 0.666664C4.39716 0.666664 0.666504 4.39732 0.666504 9C0.666504 13.6027 4.39716 17.3333 8.99984 17.3333C13.6025 17.3333 17.3332 13.6027 17.3332 9C17.3332 4.39732 13.6025 0.666664 8.99984 0.666664ZM8.99984 1.91666C12.9122 1.91666 16.0832 5.08768 16.0832 9C16.0832 12.9123 12.9122 16.0833 8.99984 16.0833C5.08752 16.0833 1.9165 12.9123 1.9165 9C1.9165 5.08768 5.08752 1.91666 8.99984 1.91666ZM9.33715 5.45327C9.29576 5.14821 9.03427 4.91308 8.71785 4.91308C8.37268 4.91308 8.09285 5.19291 8.09285 5.53808V9.57725L8.09982 9.67037C8.12743 9.85375 8.23564 10.0173 8.39766 10.114L11.5393 11.9882L11.6151 12.0267C11.8983 12.1475 12.2342 12.0433 12.3963 11.7716L12.4348 11.6959C12.5556 11.4127 12.4515 11.0768 12.1797 10.9147L9.34252 9.2215L9.34285 5.53808L9.33715 5.45327Z" fill="#00C5D7"/>
</g>
</svg>
