<svg width="20" height="20" viewBox="0 0 20 20" fill="none" xmlns="http://www.w3.org/2000/svg">
<path d="M6.97443 8.2547L7.62082 7.76096C7.64983 7.73924 7.67641 7.71449 7.70009 7.68714C7.97085 7.37129 9.71488 5.30313 10.1076 3.98526C10.1208 3.93881 10.1274 3.89074 10.1271 3.84247V1.71622C10.1274 1.60636 10.1533 1.49806 10.2028 1.39981C10.2523 1.30155 10.3241 1.216 10.4125 1.14986C10.6427 0.967887 10.9228 0.858998 11.2163 0.83741C11.5098 0.815821 11.803 0.882537 12.0577 1.02885C12.1382 1.07106 12.206 1.1337 12.2541 1.21037C12.6478 1.84792 12.9403 2.5418 13.1212 3.26764C13.1856 3.53125 13.1947 3.80515 13.1481 4.0724L12.7163 6.5508C12.714 6.56354 12.7145 6.57664 12.7179 6.58916C12.7212 6.60168 12.7273 6.61331 12.7357 6.62324C12.7441 6.63317 12.7545 6.64115 12.7664 6.64662C12.7782 6.65209 12.7911 6.6549 12.8041 6.65487H17.1594C17.409 6.65364 17.6516 6.73689 17.8472 6.89089C18.0428 7.04489 18.1796 7.26045 18.2351 7.50199C18.2606 7.62134 18.2732 7.74303 18.2729 7.86503C18.2729 8.53788 17.885 8.84889 17.6204 8.98201C17.5984 8.99339 17.5795 9.00975 17.5651 9.02975C17.5508 9.04975 17.5414 9.07284 17.5377 9.09713C17.534 9.12142 17.5361 9.14623 17.5439 9.16955C17.5517 9.19286 17.565 9.21402 17.5826 9.2313C17.6895 9.33198 17.7746 9.45323 17.8326 9.58765C17.8907 9.72206 17.9206 9.86682 17.9204 10.0131C17.9204 10.4971 17.5545 10.8493 17.3679 10.9909C17.3566 10.9997 17.3473 11.0106 17.3404 11.0232C17.3336 11.0357 17.3294 11.0494 17.3282 11.0636C17.3269 11.0778 17.3286 11.0921 17.3331 11.1056C17.3377 11.1191 17.3449 11.1315 17.3545 11.1421C17.5334 11.3518 17.6288 11.6191 17.6228 11.8937C17.6228 12.3547 17.2789 12.7408 17.0203 12.9138C16.9845 12.9379 16.9597 12.975 16.951 13.017C16.9424 13.0591 16.9506 13.1028 16.974 13.1389C17.1205 13.388 17.1952 13.6722 17.1899 13.9606C17.1899 14.6056 16.541 15.1151 15.9178 15.1151H8.35624C8.27575 15.1153 8.19634 15.0967 8.12452 15.0606L7.0598 14.533C6.97348 14.4902 6.90085 14.4244 6.85002 14.343C6.7992 14.2615 6.77218 14.1677 6.77197 14.0719V8.66374C6.77205 8.58476 6.79034 8.50684 6.82543 8.43594C6.86052 8.36505 6.91148 8.30305 6.97443 8.2547Z" stroke="#6884A7" stroke-miterlimit="10"/>
<path d="M6.16741 7.50012H2.16609C1.89031 7.50012 1.66675 7.76313 1.66675 8.08756V15.246C1.66675 15.5705 1.89031 15.8335 2.16609 15.8335H6.16741C6.44319 15.8335 6.66675 15.5705 6.66675 15.246V8.08756C6.66675 7.76313 6.44319 7.50012 6.16741 7.50012Z" stroke="#6884A7" stroke-miterlimit="10"/>
<path d="M5.00016 13.3345C5.00016 13.7933 4.62719 14.1668 4.16683 14.1668C3.70647 14.1668 3.3335 13.7933 3.3335 13.3345C3.3335 12.8758 3.70647 12.5001 4.16683 12.5001C4.62719 12.5001 5.00016 12.8736 5.00016 13.3345Z" stroke="#6884A7" stroke-miterlimit="10"/>
</svg>
