<svg width="20" height="20" viewBox="0 0 20 20" fill="none" xmlns="http://www.w3.org/2000/svg">
<path d="M6.97443 8.25477L7.62082 7.76102C7.64983 7.7393 7.67641 7.71455 7.70009 7.6872C7.97085 7.37135 9.71488 5.30319 10.1076 3.98533C10.1208 3.93887 10.1274 3.8908 10.1271 3.84253V1.71628C10.1274 1.60642 10.1533 1.49813 10.2028 1.39987C10.2523 1.30161 10.3241 1.21606 10.4125 1.14992C10.6427 0.967948 10.9228 0.859059 11.2163 0.837471C11.5098 0.815882 11.803 0.882598 12.0577 1.02891C12.1382 1.07112 12.206 1.13376 12.2541 1.21043C12.6478 1.84798 12.9403 2.54186 13.1212 3.2677C13.1856 3.53131 13.1947 3.80521 13.1481 4.07246L12.7163 6.55086C12.714 6.56361 12.7145 6.5767 12.7179 6.58922C12.7212 6.60174 12.7273 6.61337 12.7357 6.6233C12.7441 6.63323 12.7545 6.64121 12.7664 6.64668C12.7782 6.65215 12.7911 6.65497 12.8041 6.65494H17.1594C17.409 6.6537 17.6516 6.73695 17.8472 6.89095C18.0428 7.04496 18.1796 7.26051 18.2351 7.50205C18.2606 7.6214 18.2732 7.74309 18.2729 7.86509C18.2729 8.53794 17.885 8.84895 17.6204 8.98207C17.5984 8.99345 17.5795 9.00981 17.5651 9.02981C17.5508 9.04981 17.5414 9.0729 17.5377 9.09719C17.534 9.12148 17.5361 9.14629 17.5439 9.16961C17.5517 9.19292 17.565 9.21408 17.5826 9.23136C17.6895 9.33204 17.7746 9.4533 17.8326 9.58771C17.8907 9.72212 17.9206 9.86688 17.9204 10.0131C17.9204 10.4972 17.5545 10.8493 17.3679 10.9909C17.3566 10.9997 17.3473 11.0107 17.3404 11.0232C17.3336 11.0357 17.3294 11.0495 17.3282 11.0637C17.3269 11.0779 17.3286 11.0921 17.3331 11.1057C17.3377 11.1192 17.3449 11.1316 17.3545 11.1422C17.5334 11.3518 17.6288 11.6191 17.6228 11.8937C17.6228 12.3548 17.2789 12.7408 17.0203 12.9139C16.9845 12.938 16.9597 12.975 16.951 13.0171C16.9424 13.0591 16.9506 13.1029 16.974 13.139C17.1205 13.3881 17.1952 13.6723 17.1899 13.9607C17.1899 14.6057 16.541 15.1152 15.9178 15.1152H8.35624C8.27575 15.1154 8.19634 15.0967 8.12452 15.0607L7.0598 14.5331C6.97348 14.4902 6.90085 14.4244 6.85002 14.343C6.7992 14.2616 6.77218 14.1678 6.77197 14.072V8.6638C6.77205 8.58482 6.79034 8.5069 6.82543 8.436C6.86052 8.36511 6.91148 8.30311 6.97443 8.25477Z" fill="#2A3467" stroke="#2A3467" stroke-miterlimit="10"/>
<path d="M6.16741 7.50024H2.16609C1.89031 7.50024 1.66675 7.76325 1.66675 8.08768V15.2461C1.66675 15.5706 1.89031 15.8336 2.16609 15.8336H6.16741C6.44319 15.8336 6.66675 15.5706 6.66675 15.2461V8.08768C6.66675 7.76325 6.44319 7.50024 6.16741 7.50024Z" fill="white" stroke="#2A3467" stroke-miterlimit="10"/>
<path d="M5.00016 13.3347C5.00016 13.7934 4.62719 14.1669 4.16683 14.1669C3.70647 14.1669 3.3335 13.7934 3.3335 13.3347C3.3335 12.876 3.70647 12.5002 4.16683 12.5002C4.62719 12.5002 5.00016 12.8738 5.00016 13.3347Z" stroke="#2A3467" stroke-miterlimit="10"/>
</svg>
