<svg width="21" height="20" viewBox="0 0 21 20" fill="none" xmlns="http://www.w3.org/2000/svg">
<g clip-path="url(#clip0_3927_2990)">
<path d="M19.6341 3.97496C18.9768 2.69171 17.9753 1.72144 16.692 1.03286C15.4088 0.344288 14.0003 0 11.559 0H9.77497C7.33366 0 5.89391 0.344288 4.64195 1.03286C3.3587 1.69014 2.38843 2.69171 1.69986 3.97496C1.01128 5.25822 0.666992 6.66667 0.666992 9.10798V10.892C0.666992 13.3333 1.01128 14.7731 1.69986 16.025C2.35713 17.3083 3.3587 18.2786 4.64195 18.9671C5.92521 19.6557 7.33366 20 9.77497 20H11.559C14.0003 20 15.4401 19.6557 16.692 18.9671C17.9753 18.3099 18.9456 17.3083 19.6341 16.025C20.3227 14.7418 20.667 13.3333 20.667 10.892V9.10798C20.667 6.66667 20.3227 5.22692 19.6341 3.97496ZM20.3227 11.0172C20.3227 13.4272 19.9784 14.8044 19.2898 16.0563C19.0707 16.4632 18.7265 16.8075 18.3196 17.0266C14.9706 18.8419 9.90017 18.7793 6.55119 16.9327C5.73741 17.3396 4.61065 17.59 3.67169 17.4961C3.51519 17.4961 3.48389 17.4335 3.57779 17.3083C4.23507 16.651 4.64195 15.5556 4.20377 14.9296C4.20377 14.9296 4.20377 14.9296 4.20377 14.8983C1.41817 11.1737 1.66856 4.35055 4.95494 1.22066C5.08014 1.09546 5.20533 1.03286 5.36183 0.970266C6.42599 0.532081 7.70925 0.312989 9.61848 0.312989H11.3712C13.7812 0.312989 15.2523 0.625978 16.5042 1.28325C17.7562 1.94053 18.7265 2.9108 19.3837 4.16275C20.041 5.41471 20.3227 6.85446 20.3227 9.23318V11.0172Z" fill="#5AB069"/>
<path d="M8.55465 7.70069C8.58595 7.66939 8.64854 7.57549 8.67984 7.54419V7.51289C8.83634 7.2938 8.86764 7.10601 8.86764 6.88691V6.76172H4.95527V7.60679H7.67828L4.98657 10.9245C4.89268 11.0497 4.83008 11.1749 4.83008 11.4253V11.6443H8.52335C8.71114 11.6443 8.86764 11.4879 8.86764 11.3001V10.8619H6.01944L8.55465 7.70069Z" fill="#5AB069"/>
<path d="M13.5938 11.3627C13.5938 11.5192 13.7189 11.6443 13.8754 11.6443H14.4388V6.76172H13.5938V11.3627Z" fill="#5AB069"/>
<path d="M16.9112 7.82422C15.8471 7.82422 14.9707 8.70059 14.9707 9.76475C14.9707 10.8289 15.8471 11.7053 16.9112 11.7053C17.9754 11.7053 18.8518 10.8289 18.8518 9.76475C18.8205 8.66929 17.9754 7.82422 16.9112 7.82422ZM16.9112 10.8915C16.2853 10.8915 15.7845 10.3907 15.7845 9.76475C15.7845 9.13877 16.2853 8.63799 16.9112 8.63799C17.5372 8.63799 18.038 9.13877 18.038 9.76475C18.038 10.3907 17.5372 10.8915 16.9112 10.8915Z" fill="#5AB069"/>
<path d="M12.1219 8.23106C11.8089 8.01196 11.4021 7.85547 10.9952 7.85547C9.93101 7.85547 9.08594 8.70054 9.08594 9.7647C9.08594 10.8289 9.93101 11.6739 10.9952 11.6739C11.4334 11.6739 11.8089 11.5487 12.1219 11.2983C12.1219 11.4861 12.2784 11.6426 12.4662 11.6426H12.9044V7.94937H12.1219V8.23106ZM10.9952 10.8915C10.3692 10.8915 9.86841 10.3907 9.86841 9.7647C9.86841 9.13872 10.3692 8.63794 10.9952 8.63794C11.6211 8.63794 12.1219 9.13872 12.1219 9.7647C12.1219 10.3907 11.6211 10.8915 10.9952 10.8915Z" fill="#5AB069"/>
</g>
<defs>
<clipPath id="clip0_3927_2990">
<rect width="20" height="20" fill="white" transform="translate(0.666992)"/>
</clipPath>
</defs>
</svg>
