<svg width="20" height="20" viewBox="0 0 20 20" fill="none" xmlns="http://www.w3.org/2000/svg">
<g id="Image 2">
<path id="Image 2_2" fill-rule="evenodd" clip-rule="evenodd" d="M5.66618 0H14.3338C17.738 0 20 2.42974 20 5.91672V14.0833C20 17.5704 17.7378 20 14.3328 20H5.66618C2.26205 20 0 17.5703 0 14.0833V5.91672C0 2.43267 2.26744 0 5.66618 0ZM14.3338 1.50391H5.66612C3.12214 1.50391 1.50317 3.24085 1.50317 5.9174V14.084C1.50317 14.8289 1.62791 15.5008 1.86278 16.0826L3.01313 14.6862L3.52127 14.0596C4.80035 12.4749 5.97289 11.7903 7.50863 12.4336C7.74184 12.5314 7.94131 12.6371 8.19654 12.7946L8.85717 13.2209C9.5169 13.6391 9.83108 13.6992 10.3136 13.4377C10.7425 13.2056 11.0433 12.8811 11.5008 12.1769L11.801 11.6992L12.0052 11.3716C12.1888 11.0816 12.3196 10.8912 12.4797 10.6839C13.5379 9.31435 15.1879 8.86838 16.6302 9.73602C17.2548 10.1125 17.7085 10.4861 18.4967 11.2381V5.9174C18.4967 3.23756 16.8827 1.50391 14.3338 1.50391ZM18.4967 13.3149L18.448 13.2713C18.3437 13.1753 18.2322 13.0702 18.0985 12.9421L17.3992 12.2688C16.7285 11.6321 16.3449 11.3192 15.8548 11.0238C15.1138 10.5781 14.2888 10.8011 13.6694 11.6027L13.5442 11.7714C13.5026 11.8298 13.4602 11.8915 13.4146 11.9603L13.0231 12.5813C12.2848 13.7776 11.8368 14.3227 11.0293 14.7596C10.0349 15.2984 9.22461 15.1865 8.23921 14.605L7.80134 14.3279L7.43308 14.0902C7.22857 13.9631 7.08238 13.8849 6.92747 13.8199C6.25702 13.5391 5.66129 13.8496 4.83859 14.8248L3.03222 17.0316C2.9346 17.1498 2.8337 17.2717 2.72905 17.3982C3.44584 18.1025 4.44948 18.4974 5.66612 18.4974H14.3328C16.8826 18.4974 18.4967 16.7639 18.4967 14.084V13.3149ZM4.27112 6.79886C4.27112 5.36278 5.43619 4.19727 6.87171 4.19727C8.30801 4.19727 9.4733 5.36256 9.4733 6.79886C9.4733 8.23516 8.30801 9.40045 6.87171 9.40045C5.43619 9.40045 4.27112 8.23494 4.27112 6.79886ZM7.97001 6.79953C7.97001 6.19344 7.47774 5.70117 6.87165 5.70117C6.26647 5.70117 5.77429 6.19354 5.77429 6.79953C5.77429 7.40553 6.26647 7.89789 6.87165 7.89789C7.47774 7.89789 7.97001 7.40562 7.97001 6.79953Z" fill="#6884A7"/>
</g>
</svg>
