<svg width="24" height="24" viewBox="0 0 24 24" fill="none" xmlns="http://www.w3.org/2000/svg">
<path fill-rule="evenodd" clip-rule="evenodd" d="M7.81204 2.5H16.188C19.3978 2.5 22 5.16116 22 8.44374V9.18592L22.0002 9.20241L22 9.21891V14.5201L22.0002 14.5366L22 14.5531V15.5563C22 18.8388 19.3978 21.5 16.188 21.5H7.81204C4.60219 21.5 2 18.8388 2 15.5563V8.44374C2 5.16116 4.60219 2.5 7.81204 2.5ZM20.5464 8.44374V8.45916H17.3504L17.1673 8.46431C15.4101 8.56244 14.0147 10.0491 14.0147 11.8695C14.0159 13.7531 15.5084 15.2787 17.3499 15.2798H20.5464V15.5563C20.5464 18.0179 18.595 20.0135 16.188 20.0135H7.81204C5.40498 20.0135 3.45358 18.0179 3.45358 15.5563V8.44374C3.45358 5.98214 5.40498 3.98651 7.81204 3.98651H16.188C18.595 3.98651 20.5464 5.98214 20.5464 8.44374ZM17.3508 9.94567L20.5464 9.94567V13.7933H17.3504L17.2033 13.7874C16.2329 13.7102 15.4689 12.8811 15.4683 11.869C15.4683 10.8074 16.3109 9.94632 17.3508 9.94567ZM18.521 11.8077C18.521 11.3972 18.1956 11.0645 17.7942 11.0645H17.4922L17.3935 11.0712C17.0388 11.1205 16.7654 11.4314 16.7654 11.8077C16.7654 12.2182 17.0908 12.551 17.4922 12.551H17.7942L17.8928 12.5442C18.2476 12.495 18.521 12.184 18.521 11.8077ZM13.0807 7.7413C13.0807 7.33081 12.7553 6.99805 12.3539 6.99805H7.12205L7.02343 7.00483C6.66868 7.05405 6.39526 7.36502 6.39526 7.7413C6.39526 8.15179 6.72066 8.48456 7.12205 8.48456H12.3539L12.4525 8.47778C12.8073 8.42856 13.0807 8.11759 13.0807 7.7413Z" fill="#6884A7"/>
</svg>
