<svg width="20" height="20" viewBox="0 0 20 20" fill="none" xmlns="http://www.w3.org/2000/svg">
<path fill-rule="evenodd" clip-rule="evenodd" d="M9.48761 1.7514L3.95129 3.6417C3.33147 3.85254 2.9165 4.4212 2.9165 5.05997V10.5914C2.9165 12.2762 3.54392 13.8991 4.67411 15.1634C5.20647 15.76 5.88477 16.2564 6.7076 16.6883L9.70535 18.2598C9.8924 18.3579 10.1177 18.3578 10.3047 18.2597L13.2971 16.6891C14.1177 16.2579 14.7961 15.7606 15.3285 15.1637C16.457 13.9003 17.0832 12.2785 17.0832 10.5947V5.05997C17.0832 4.4212 16.6682 3.85254 16.0477 3.64146L10.5129 1.75167C10.1815 1.63836 9.8196 1.63836 9.48761 1.7514ZM10.0941 2.90792L15.6301 4.79813C15.7453 4.8373 15.8216 4.94191 15.8216 5.05997V10.5947C15.8216 11.9826 15.3055 13.3193 14.3755 14.3606L14.2103 14.5356C13.81 14.9371 13.3058 15.291 12.6973 15.6107L10.004 17.0236L7.30691 15.6096C6.60925 15.2435 6.05021 14.8344 5.62697 14.36C4.69522 13.3177 4.17808 11.9801 4.17808 10.5914V5.05997C4.17808 4.94191 4.25442 4.8373 4.36886 4.79837L9.90535 2.90801C9.96645 2.88721 10.0335 2.88721 10.0941 2.90792ZM13.1292 7.70066C12.8828 7.46131 12.4834 7.46131 12.2371 7.70066L9.40429 10.4526L8.2596 9.3392L8.18887 9.27985C7.94197 9.10176 7.59153 9.12145 7.36753 9.33898C7.12113 9.57826 7.12102 9.96631 7.36729 10.2057L8.95856 11.7526L9.02931 11.812C9.27625 11.9901 9.62676 11.9704 9.85075 11.7527L13.1292 8.5674L13.1902 8.49866C13.3735 8.25873 13.3531 7.91824 13.1292 7.70066Z" fill="#00C5D7"/>
</svg>
