<svg width="32" height="32" viewBox="0 0 32 32" fill="none" xmlns="http://www.w3.org/2000/svg">
<g id="Frame" clip-path="url(#clip0_949_10575)">
<g id="Group 1000006203">
<path id="XMLID_83_" fill-rule="evenodd" clip-rule="evenodd" d="M10.0034 17.5543L5.71698 29.4346L10.1808 28.2084L12.8323 32.0054L16.9627 20.5553C16.5056 20.4262 10.5681 18.9902 10.0034 17.5543Z" fill="#F4483E"/>
<path id="XMLID_79_" fill-rule="evenodd" clip-rule="evenodd" d="M21.7923 17.5543L26.0787 29.4346L21.6148 28.2084L18.9634 32.0054L14.8329 20.5553C15.2901 20.4262 21.2222 18.9902 21.7923 17.5543Z" fill="#F4483E"/>
<g id="XMLID_76_" style="mix-blend-mode:soft-light" opacity="0.7">
<path fill-rule="evenodd" clip-rule="evenodd" d="M23.4971 22.2925L23.0185 20.9587C22.9701 21.0824 22.9217 21.2168 22.884 21.3513C22.6097 22.3194 22.0558 22.8034 21.2276 22.8034C21.0124 22.8034 20.7865 22.7711 20.5338 22.7066C20.2165 22.6259 19.9045 22.5829 19.6087 22.5829C18.7644 22.5829 18.0114 22.9109 17.3392 23.5617C16.9412 23.9489 16.5432 24.1641 16.1452 24.2125L16.4625 25.0837C16.9896 24.9762 17.4951 24.6857 17.9792 24.2125C18.4739 23.7284 19.0064 23.4972 19.6087 23.4972C19.8292 23.4972 20.0659 23.5294 20.3079 23.5886C20.6306 23.6693 20.9371 23.7123 21.2276 23.7123C21.846 23.7123 22.8894 23.5133 23.4971 22.2925Z" fill="black"/>
</g>
<g id="XMLID_73_" style="mix-blend-mode:soft-light" opacity="0.7">
<path fill-rule="evenodd" clip-rule="evenodd" d="M14.6286 23.5617C13.9617 22.9109 13.2034 22.5829 12.359 22.5829C12.0632 22.5829 11.7513 22.6259 11.4339 22.7066C11.1866 22.7711 10.9553 22.8034 10.7402 22.8034C9.90655 22.8034 9.35798 22.3193 9.0837 21.3513C9.02454 21.1308 8.94386 20.9264 8.85781 20.7382L8.37378 22.0827C8.96538 23.4918 10.0894 23.7177 10.7455 23.7177C11.0306 23.7177 11.3425 23.6746 11.6652 23.594C11.9072 23.5294 12.1439 23.5025 12.3644 23.5025C12.9667 23.5025 13.4992 23.7392 13.9939 24.2178C14.4242 24.6373 14.8813 24.917 15.3492 25.0514L15.6612 24.1856C15.3116 24.1049 14.9674 23.8951 14.6286 23.5617Z" fill="black"/>
</g>
<path id="XMLID_61_" d="M14.6286 23.5617C13.725 22.6797 12.6602 22.3946 11.4339 22.7066C10.2077 23.0185 9.42788 22.5667 9.08368 21.3513C8.73948 20.1358 7.95965 19.356 6.74419 19.0118C5.52872 18.6676 5.07696 17.8877 5.38889 16.6615C5.70083 15.4353 5.41578 14.3758 4.53377 13.4669C3.65175 12.5634 3.65175 11.6598 4.53377 10.7509C5.41578 9.84739 5.70083 8.78252 5.38889 7.5563C5.07696 6.33008 5.52872 5.55025 6.74419 5.20605C7.95965 4.86723 8.73948 4.08739 9.08368 2.87193C9.42788 1.65647 10.2077 1.20471 11.4339 1.51664C12.6602 1.82857 13.7196 1.54353 14.6286 0.661513C15.5321 -0.220504 16.4356 -0.220504 17.3445 0.661513C18.2534 1.54353 19.3075 1.82857 20.5338 1.51664C21.76 1.20471 22.5398 1.65647 22.884 2.87193C23.2282 4.08739 24.0081 4.86723 25.2235 5.21143C26.439 5.55563 26.8907 6.33546 26.5788 7.56168C26.2669 8.7879 26.5519 9.84739 27.4339 10.7563C28.316 11.6598 28.316 12.5634 27.4339 13.4723C26.5519 14.3758 26.2669 15.4407 26.5788 16.6669C26.8907 17.8931 26.439 18.6729 25.2235 19.0171C24.0081 19.3613 23.2282 20.1412 22.884 21.3566C22.5398 22.5721 21.76 23.0239 20.5338 22.7119C19.3075 22.4 18.2481 22.685 17.3391 23.5671C16.4356 24.4437 15.5321 24.4437 14.6286 23.5617Z" fill="url(#paint0_linear_949_10575)"/>
<path id="XMLID_37_" opacity="0.35" d="M24.3792 15.6666C23.9166 16.753 23.2605 17.7318 22.4215 18.5708C21.5825 19.4098 20.6037 20.0659 19.5173 20.5284C18.3879 21.0071 17.194 21.2491 15.9624 21.2491C14.7308 21.2491 13.5314 21.0071 12.4074 20.5284C11.321 20.0659 10.3422 19.4098 9.5032 18.5708C8.66421 17.7318 8.00808 16.753 7.54556 15.6666C7.08303 14.5748 6.84102 13.4185 6.83026 12.2245C6.83026 12.2622 6.83026 12.2998 6.83026 12.3375C6.83026 13.5691 7.07228 14.7684 7.55093 15.8924C8.01345 16.9788 8.66959 17.9577 9.50858 18.7966C10.3476 19.6356 11.3264 20.2918 12.4128 20.7543C13.5422 21.233 14.7361 21.475 15.9677 21.475C17.1993 21.475 18.3987 21.233 19.5227 20.7543C20.6091 20.2918 21.5879 19.6356 22.4269 18.7966C23.2659 17.9577 23.922 16.9788 24.3845 15.8924C24.8632 14.763 25.1052 13.5691 25.1052 12.3375C25.1052 12.2998 25.1052 12.2622 25.1052 12.2245C25.0837 13.4185 24.8417 14.5748 24.3792 15.6666Z" fill="white"/>
<path id="XMLID_28_" d="M24.3792 8.55664C23.9166 7.47026 23.2605 6.49143 22.4215 5.65244C21.5825 4.81345 20.6037 4.15731 19.5173 3.69479C18.3879 3.21614 17.194 2.97412 15.9624 2.97412C14.7308 2.97412 13.5314 3.21614 12.4074 3.69479C11.321 4.15731 10.3422 4.81345 9.5032 5.65244C8.66421 6.49143 8.00808 7.47026 7.54556 8.55664C7.07228 9.68068 6.83026 10.88 6.83026 12.1116C6.83026 13.3432 7.07228 14.5425 7.55093 15.6666C8.01345 16.7529 8.66959 17.7318 9.50858 18.5708C10.3476 19.4098 11.3264 20.0659 12.4128 20.5284C13.5422 21.0071 14.7361 21.2491 15.9677 21.2491C17.1993 21.2491 18.3987 21.0071 19.5227 20.5284C20.6091 20.0659 21.5879 19.4098 22.4269 18.5708C23.2659 17.7318 23.922 16.7529 24.3845 15.6666C24.8632 14.5371 25.1052 13.3432 25.1052 12.1116C25.0998 10.88 24.8578 9.68068 24.3792 8.55664ZM15.9624 19.9691C11.6276 19.9691 8.10488 16.4464 8.10488 12.1116C8.10488 7.77681 11.6276 4.25412 15.9624 4.25412C20.2972 4.25412 23.8198 7.77681 23.8198 12.1116C23.8198 16.441 20.2972 19.9691 15.9624 19.9691Z" fill="url(#paint1_linear_949_10575)"/>
<path id="XMLID_25_" opacity="0.5" d="M15.9623 4.4854C20.2541 4.4854 23.7553 7.94893 23.8198 12.2299C23.8198 12.1923 23.8198 12.1546 23.8198 12.117C23.8198 7.78221 20.2971 4.25952 15.9623 4.25952C11.6275 4.25952 8.10486 7.78221 8.10486 12.117C8.10486 12.1546 8.10486 12.1923 8.10486 12.2299C8.1694 7.94356 11.6706 4.4854 15.9623 4.4854Z" fill="white"/>
<path id="XMLID_22_" d="M15.9623 19.9691C11.6706 19.9691 8.1694 16.5056 8.10486 12.2245C8.10486 12.2622 8.10486 12.2998 8.10486 12.3375C8.10486 16.6723 11.6275 20.195 15.9623 20.195C20.2971 20.195 23.8198 16.6723 23.8198 12.3375C23.8198 12.2998 23.8198 12.2622 23.8198 12.2245C23.7553 16.5056 20.2595 19.9691 15.9623 19.9691Z" fill="#EB9500"/>
<path id="XMLID_18_" opacity="0.3" d="M7.54556 8.78252C8.00808 7.69614 8.66421 6.71731 9.5032 5.87832C10.3422 5.03933 11.321 4.3832 12.4074 3.92068C13.5368 3.44202 14.7308 3.2 15.9624 3.2C17.194 3.2 18.3933 3.44202 19.5173 3.92068C20.6037 4.3832 21.5825 5.03933 22.4215 5.87832C23.2605 6.71731 23.9166 7.69614 24.3792 8.78252C24.8417 9.87429 25.0837 11.0306 25.0945 12.2245C25.0945 12.1869 25.0945 12.1492 25.0945 12.1116C25.0945 10.88 24.8524 9.68068 24.3738 8.55664C23.9113 7.47026 23.2551 6.49143 22.4161 5.65244C21.5772 4.81345 20.5983 4.15731 19.5119 3.69479C18.3825 3.21614 17.1886 2.97412 15.957 2.97412C14.7254 2.97412 13.5261 3.21614 12.402 3.69479C11.3156 4.15731 10.3368 4.81345 9.49782 5.65244C8.65883 6.49143 8.0027 7.47026 7.54018 8.55664C7.07228 9.68068 6.83026 10.88 6.83026 12.1116C6.83026 12.1492 6.83026 12.1869 6.83026 12.2245C6.8464 11.0306 7.08303 9.87429 7.54556 8.78252Z" fill="#EB9500"/>
<path id="XMLID_14_" d="M21.1577 10.7778C21.1146 10.6434 21.0017 10.5519 20.8619 10.5304L17.6619 10.1109L16.3066 7.17984C16.2474 7.05614 16.1237 6.97547 15.9839 6.97009C15.8441 6.97009 15.7204 7.05076 15.6612 7.17446L14.2736 10.0894L11.0683 10.4766C10.9284 10.4928 10.8155 10.5896 10.7725 10.7187C10.7294 10.8477 10.7671 10.9929 10.8639 11.0898L13.2088 13.3109L12.5849 16.4787C12.558 16.6131 12.6118 16.753 12.7247 16.8336C12.7893 16.882 12.8592 16.9035 12.9345 16.9035C12.9936 16.9035 13.0528 16.8874 13.1066 16.8605L15.9409 15.317L18.759 16.8874C18.8128 16.9197 18.872 16.9304 18.9311 16.9304C19.0064 16.9304 19.0763 16.9089 19.1409 16.8659C19.2538 16.7852 19.3076 16.6454 19.2861 16.5109L18.6945 13.3378L21.0609 11.1435C21.1631 11.0521 21.2007 10.9123 21.1577 10.7778Z" fill="url(#paint2_linear_949_10575)"/>
<path id="XMLID_13_" d="M21.1577 10.4712C21.1146 10.3368 21.0017 10.2454 20.8619 10.2238L17.6619 9.80435L16.3066 6.87326C16.2474 6.74956 16.1237 6.66889 15.9839 6.66351C15.8441 6.66351 15.7204 6.74419 15.6612 6.86788L14.2736 9.78822L11.0683 10.1754C10.9284 10.1916 10.8155 10.2884 10.7725 10.4175C10.7294 10.5465 10.7671 10.6917 10.8639 10.7886L13.2088 13.0097L12.5849 16.1775C12.558 16.3119 12.6118 16.4517 12.7247 16.5324C12.7893 16.5808 12.8592 16.6023 12.9345 16.6023C12.9936 16.6023 13.0528 16.5862 13.1066 16.5593L15.9409 15.0158L18.759 16.5862C18.8128 16.6185 18.872 16.6292 18.9311 16.6292C19.0064 16.6292 19.0763 16.6077 19.1409 16.5647C19.2538 16.484 19.3076 16.3442 19.2861 16.2097L18.6945 13.0366L21.0609 10.8423C21.1631 10.7509 21.2007 10.6057 21.1577 10.4712Z" fill="url(#paint3_linear_949_10575)"/>
<g id="XMLID_8_">
<g id="XMLID_12_" style="mix-blend-mode:multiply">
<path d="M26.5788 7.56168C26.8908 6.33546 26.439 5.55563 25.2236 5.21143C24.0081 4.86723 23.2283 4.0874 22.8841 2.87193C22.5399 1.65647 21.76 1.20471 20.5338 1.51664C19.3076 1.82857 18.2481 1.54353 17.3392 0.661513C16.4357 -0.220504 15.5321 -0.220504 14.6232 0.661513C13.7197 1.54353 12.6548 1.82857 11.4286 1.51664C10.2024 1.20471 9.42254 1.65647 9.07834 2.87193C8.73952 4.0874 7.95968 4.86723 6.74422 5.21143C5.52876 5.55563 5.077 6.33546 5.38893 7.56168C5.70086 8.7879 5.41582 9.84739 4.5338 10.7563C3.92069 11.3802 3.73246 12.0094 3.97447 12.6387C7.09918 14.0208 11.3694 14.8921 16.0807 14.8921C20.6736 14.8921 24.8471 14.0639 27.9503 12.7408C28.2514 12.0793 28.0793 11.4178 27.434 10.7509C26.552 9.84739 26.2669 8.78252 26.5788 7.56168Z" fill="url(#paint4_linear_949_10575)"/>
</g>
</g>
</g>
</g>
<defs>
<linearGradient id="paint0_linear_949_10575" x1="15.9833" y1="0" x2="15.9833" y2="24.2222" gradientUnits="userSpaceOnUse">
<stop stop-color="#FFE852"/>
<stop offset="1" stop-color="#FFBB00"/>
</linearGradient>
<linearGradient id="paint1_linear_949_10575" x1="15.9631" y1="2.97668" x2="15.9631" y2="21.2455" gradientUnits="userSpaceOnUse">
<stop stop-color="#FFC429"/>
<stop offset="1" stop-color="#FFA200"/>
</linearGradient>
<linearGradient id="paint2_linear_949_10575" x1="15.9632" y1="11.4637" x2="15.9632" y2="18.2211" gradientUnits="userSpaceOnUse">
<stop stop-color="#FFC429"/>
<stop offset="1" stop-color="#FFA200"/>
</linearGradient>
<linearGradient id="paint3_linear_949_10575" x1="15.9632" y1="2.67359" x2="15.9632" y2="16.9703" gradientUnits="userSpaceOnUse">
<stop stop-color="white"/>
<stop offset="0.9361" stop-color="#FFEEBB"/>
</linearGradient>
<linearGradient id="paint4_linear_949_10575" x1="15.9833" y1="14.8928" x2="15.9833" y2="3.55071e-06" gradientUnits="userSpaceOnUse">
<stop stop-color="white"/>
<stop offset="1" stop-color="white"/>
</linearGradient>
<clipPath id="clip0_949_10575">
<rect width="32" height="32" fill="white"/>
</clipPath>
</defs>
</svg>
