<svg width="24" height="24" viewBox="0 0 24 24" fill="none" xmlns="http://www.w3.org/2000/svg">
<path fill-rule="evenodd" clip-rule="evenodd" d="M11.9998 2C6.47654 2 1.99976 6.47679 1.99976 12C1.99976 17.5232 6.47654 22 11.9998 22C17.523 22 21.9998 17.5232 21.9998 12C21.9998 6.47679 17.523 2 11.9998 2ZM11.9998 3.5C16.6945 3.5 20.4998 7.30521 20.4998 12C20.4998 16.6948 16.6945 20.5 11.9998 20.5C7.30497 20.5 3.49976 16.6948 3.49976 12C3.49976 7.30521 7.30497 3.5 11.9998 3.5ZM12.4045 7.74393C12.3549 7.37786 12.0411 7.0957 11.6614 7.0957C11.2472 7.0957 10.9114 7.43149 10.9114 7.8457V12.6927L10.9197 12.8044C10.9529 13.0245 11.0827 13.2208 11.2771 13.3368L15.0471 15.5858L15.138 15.6321C15.4779 15.777 15.8809 15.652 16.0755 15.3259L16.1217 15.235C16.2666 14.8952 16.1417 14.4921 15.8156 14.2976L12.411 12.2658L12.4114 7.8457L12.4045 7.74393Z" fill="#6884A7"/>
</svg>
