<svg width="21" height="20" viewBox="0 0 21 20" fill="none" xmlns="http://www.w3.org/2000/svg">
<g id="Frame" clip-path="url(#clip0_901_1829)">
<g id="Group">
<path id="Vector" d="M19.6338 3.97496C18.9765 2.69171 17.9749 1.72144 16.6917 1.03286C15.4084 0.344288 14 0 11.5586 0H9.77461C7.33329 0 5.89354 0.344288 4.64159 1.03286C3.35833 1.69014 2.38807 2.69171 1.69949 3.97496C1.01091 5.25822 0.666626 6.66667 0.666626 9.10798V10.892C0.666626 13.3333 1.01091 14.7731 1.69949 16.025C2.35677 17.3083 3.35833 18.2786 4.64159 18.9671C5.92484 19.6557 7.33329 20 9.77461 20H11.5586C14 20 15.4397 19.6557 16.6917 18.9671C17.9749 18.3099 18.9452 17.3083 19.6338 16.025C20.3223 14.7418 20.6666 13.3333 20.6666 10.892V9.10798C20.6666 6.66667 20.3223 5.22692 19.6338 3.97496ZM20.3223 11.0172C20.3223 13.4272 19.978 14.8044 19.2895 16.0563C19.0704 16.4632 18.7261 16.8075 18.3192 17.0266C14.9702 18.8419 9.8998 18.7793 6.55082 16.9327C5.73705 17.3396 4.61029 17.59 3.67132 17.4961C3.51483 17.4961 3.48353 17.4335 3.57742 17.3083C4.2347 16.651 4.64159 15.5556 4.2034 14.9296C4.2034 14.9296 4.2034 14.9296 4.2034 14.8983C1.4178 11.1737 1.66819 4.35055 4.95458 1.22066C5.07977 1.09546 5.20497 1.03286 5.36146 0.970266C6.42562 0.532081 7.70888 0.312989 9.61811 0.312989H11.3709C13.7809 0.312989 15.2519 0.625978 16.5039 1.28325C17.7558 1.94053 18.7261 2.9108 19.3834 4.16275C20.0406 5.41471 20.3223 6.85446 20.3223 9.23318V11.0172Z" fill="#00C5D7"/>
<path id="Vector_2" d="M8.55379 7.70069C8.58509 7.66939 8.64769 7.57549 8.67899 7.54419V7.51289C8.83548 7.2938 8.86678 7.10601 8.86678 6.88691V6.76172H4.95442V7.60679H7.67742L4.98572 10.9245C4.89182 11.0497 4.82922 11.1749 4.82922 11.4253V11.6443H8.52249C8.71029 11.6443 8.86678 11.4879 8.86678 11.3001V10.8619H6.01858L8.55379 7.70069Z" fill="#00C5D7"/>
<path id="Vector_3" d="M13.5929 11.3627C13.5929 11.5192 13.7181 11.6443 13.8746 11.6443H14.438V6.76172H13.5929V11.3627Z" fill="#00C5D7"/>
<path id="Vector_4" d="M16.9109 7.82422C15.8467 7.82422 14.9703 8.70059 14.9703 9.76475C14.9703 10.8289 15.8467 11.7053 16.9109 11.7053C17.975 11.7053 18.8514 10.8289 18.8514 9.76475C18.8201 8.66929 17.975 7.82422 16.9109 7.82422ZM16.9109 10.8915C16.2849 10.8915 15.7841 10.3907 15.7841 9.76475C15.7841 9.13877 16.2849 8.63799 16.9109 8.63799C17.5368 8.63799 18.0376 9.13877 18.0376 9.76475C18.0376 10.3907 17.5368 10.8915 16.9109 10.8915Z" fill="#00C5D7"/>
<path id="Vector_5" d="M12.1221 8.23106C11.8091 8.01196 11.4022 7.85547 10.9953 7.85547C9.93113 7.85547 9.08606 8.70054 9.08606 9.7647C9.08606 10.8289 9.93113 11.6739 10.9953 11.6739C11.4335 11.6739 11.8091 11.5487 12.1221 11.2983C12.1221 11.4861 12.2785 11.6426 12.4663 11.6426H12.9045V7.94937H12.1221V8.23106ZM10.9953 10.8915C10.3693 10.8915 9.86853 10.3907 9.86853 9.7647C9.86853 9.13872 10.3693 8.63794 10.9953 8.63794C11.6213 8.63794 12.1221 9.13872 12.1221 9.7647C12.1221 10.3907 11.6213 10.8915 10.9953 10.8915Z" fill="#00C5D7"/>
</g>
</g>
<defs>
<clipPath id="clip0_901_1829">
<rect width="20" height="20" fill="white" transform="translate(0.666626)"/>
</clipPath>
</defs>
</svg>
