<svg width="20" height="20" viewBox="0 0 20 20" fill="none" xmlns="http://www.w3.org/2000/svg">
<path fill-rule="evenodd" clip-rule="evenodd" d="M10.0241 1.6667C6.18322 1.65365 3.04599 4.70945 2.9206 8.53445L2.91675 8.77187C2.98059 10.6467 3.61848 12.4339 4.74198 13.9063L5.00585 14.2507C6.07825 15.6142 7.35268 16.8111 8.78364 17.7976L9.12818 18.0295L9.17845 18.069C9.66891 18.4214 10.3311 18.4214 10.8216 18.069L10.8634 18.0346C11.9989 17.2982 13.0459 16.433 13.9838 15.4561C15.8906 13.4377 17.0398 11.176 17.0832 8.87914L17.0833 8.79386C17.0963 4.94326 14.0499 1.79638 10.2367 1.67057L10.0241 1.6667ZM10.0198 2.9312C13.1686 2.94197 15.7251 5.45783 15.82 8.59091L15.8227 8.86716C15.7862 10.7928 14.778 12.777 13.0723 14.5826C12.2025 15.4885 11.2274 16.2938 10.1697 16.9787L10.0992 17.0317C10.0423 17.0811 9.95778 17.0811 9.90082 17.0317L9.8323 16.98C8.25672 15.9513 6.87389 14.6525 5.74705 13.1431C4.8394 11.9535 4.30154 10.5311 4.19328 9.04739L4.17738 8.74987C4.18807 5.59349 6.69618 3.02913 9.81962 2.93391L10.0198 2.9312ZM9.99999 6.16698C8.50966 6.16698 7.30151 7.37886 7.30151 8.87379C7.30151 10.3687 8.50966 11.5806 9.99999 11.5806C11.4903 11.5806 12.6985 10.3687 12.6985 8.87379C12.6985 7.37886 11.4903 6.16698 9.99999 6.16698ZM9.99999 7.4315C10.7941 7.4315 11.4378 8.07724 11.4378 8.87379C11.4378 9.67034 10.7941 10.3161 9.99999 10.3161C9.20589 10.3161 8.56214 9.67034 8.56214 8.87379C8.56214 8.07724 9.20589 7.4315 9.99999 7.4315Z" fill="#6884A7"/>
</svg>
