<svg width="36" height="36" viewBox="0 0 36 36" fill="none" xmlns="http://www.w3.org/2000/svg">
<rect width="36" height="36" rx="18" fill="white"/>
<path fill-rule="evenodd" clip-rule="evenodd" d="M20.488 9.66675H15.5119C12.9243 9.66675 11.3333 10.9162 11.3333 13.362V24.9425C11.337 25.1776 11.392 25.3986 11.4938 25.5979L11.5719 25.7267L11.6536 25.8314C12.0795 26.3308 12.7593 26.4687 13.3203 26.1698L17.9783 23.553L22.6552 26.1643C22.8639 26.2743 23.0804 26.3298 23.3006 26.3334C23.6698 26.3335 24.0149 26.1869 24.2693 25.9261C24.5237 25.6652 24.6666 25.3114 24.6666 24.9425V13.2148C24.6666 10.8626 23.0401 9.66675 20.488 9.66675ZM15.5118 10.8728H20.4879C22.4583 10.8728 23.4899 11.6313 23.4899 13.2144V24.9421C23.4899 24.9911 23.4709 25.038 23.4371 25.0726C23.4034 25.1072 23.3576 25.1266 23.3099 25.1266C23.2795 25.1261 23.2405 25.1161 23.2051 25.0975L18.5361 22.4908C18.1874 22.2977 17.7693 22.2977 17.4223 22.4899L12.7662 25.1051C12.6956 25.1426 12.5947 25.1181 12.5409 25.0429L12.5097 24.9911C12.5157 24.9997 12.5146 24.9893 12.5127 24.9715C12.5116 24.9603 12.5101 24.9463 12.5099 24.9321L12.5099 13.3616C12.5099 11.6628 13.5159 10.8728 15.5118 10.8728ZM21.4282 15.5338C21.4282 15.2007 21.1648 14.9306 20.8399 14.9306H15.117L15.0372 14.9361C14.75 14.9761 14.5286 15.2284 14.5286 15.5338C14.5286 15.867 14.7921 16.1371 15.117 16.1371H20.8399L20.9197 16.1316C21.2069 16.0916 21.4282 15.8392 21.4282 15.5338Z" fill="#00C5D7"/>
</svg>
