<svg width="14" height="14" viewBox="0 0 14 14" fill="none" xmlns="http://www.w3.org/2000/svg">
<g id="Call">
<path id="Fill 1" d="M11.6313 13.3086C11.3009 13.5446 10.9139 13.6666 10.4795 13.6666C10.0364 13.6666 9.5406 13.5393 9.00276 13.2946C6.07263 12.0732 1.55232 7.55697 0.37253 4.66215C-0.122609 3.58276 -0.122609 2.69672 0.363188 2.03202C0.476629 1.85201 0.919718 1.30598 1.46757 0.890625C1.49093 1.05597 4.72334 5.0015 4.72334 4.9355C4.72802 5.00684 4.74203 5.07684 4.77006 5.15285C5.49208 6.91094 6.75662 8.17434 8.53097 8.90037C8.60171 8.92437 8.6631 8.93771 8.72916 8.93771L8.73383 8.94304C8.88464 9.12239 12.7256 12.2619 12.7777 12.1912C12.3433 12.7666 11.7774 13.2279 11.6313 13.3086Z" fill="#00C5D7"/>
<path id="Fill 3" d="M4.72336 4.9318C4.71001 4.67779 4.8388 4.45444 4.98227 4.20443C5.16044 3.89575 5.36196 3.54573 5.27054 3.10371C5.18713 2.70568 3.91325 1.10494 3.53356 0.734249C3.28332 0.490903 3.02707 0.35623 2.76416 0.334229C2.34109 0.315561 1.87464 0.566907 1.46492 0.884257C1.39618 0.937593 4.72669 5.00114 4.72336 4.9318Z" fill="#00C5D7"/>
<path id="Fill 5" d="M8.73013 8.93518C8.98437 8.94784 9.20792 8.81917 9.45749 8.67583C9.76645 8.49849 10.1174 8.29648 10.5599 8.38848C10.9583 8.47182 12.5604 9.74455 12.9315 10.1232C13.1757 10.3732 13.3098 10.6293 13.3325 10.8919C13.3499 11.3146 13.099 11.7813 12.7813 12.1907C12.7279 12.2593 8.66073 8.93118 8.73013 8.93518Z" fill="#00C5D7"/>
</g>
</svg>
