<svg width="16" height="18" viewBox="0 0 16 18" fill="none" xmlns="http://www.w3.org/2000/svg">
<path fill-rule="evenodd" clip-rule="evenodd" d="M8.02384 0.66679C4.18298 0.653741 1.04575 3.70954 0.92036 7.53454L0.916504 7.77196C0.980345 9.64681 1.61823 11.434 2.74174 12.9064L3.0056 13.2508C4.07801 14.6143 5.35243 15.8112 6.7834 16.7977L7.12793 17.0296L7.17821 17.0691C7.66867 17.4215 8.33088 17.4215 8.82135 17.0691L8.86319 17.0347C9.99863 16.2983 11.0457 15.4331 11.9836 14.4562C13.8903 12.4377 15.0396 10.1761 15.083 7.87923L15.0831 7.79395C15.0961 3.94335 12.0497 0.796473 8.23647 0.670657L8.02384 0.66679ZM8.01955 1.93129C11.1683 1.94206 13.7248 4.45792 13.8198 7.591L13.8225 7.86725C13.786 9.79294 12.7777 11.7771 11.072 13.5827C10.2023 14.4886 9.22712 15.2939 8.16947 15.9788L8.09898 16.0318C8.04202 16.0812 7.95753 16.0812 7.90057 16.0318L7.83206 15.9801C6.25648 14.9514 4.87364 13.6526 3.74681 12.1432C2.83915 10.9536 2.3013 9.53123 2.19304 8.04748L2.17713 7.74996C2.18783 4.59358 4.69594 2.02922 7.81938 1.934L8.01955 1.93129ZM7.99975 5.16707C6.50942 5.16707 5.30127 6.37895 5.30127 7.87388C5.30127 9.36881 6.50942 10.5807 7.99975 10.5807C9.49007 10.5807 10.6982 9.36881 10.6982 7.87388C10.6982 6.37895 9.49007 5.16707 7.99975 5.16707ZM7.99975 6.43159C8.79385 6.43159 9.43759 7.07733 9.43759 7.87388C9.43759 8.67043 8.79385 9.31617 7.99975 9.31617C7.20564 9.31617 6.5619 8.67043 6.5619 7.87388C6.5619 7.07733 7.20564 6.43159 7.99975 6.43159Z" fill="#00C5D7"/>
</svg>
