<svg width="20" height="20" viewBox="0 0 20 20" fill="none" xmlns="http://www.w3.org/2000/svg">
<path d="M6.97443 11.7452L7.62082 12.239C7.64983 12.2607 7.67641 12.2854 7.70009 12.3128C7.97085 12.6287 9.71488 14.6968 10.1076 16.0147C10.1208 16.0611 10.1274 16.1092 10.1271 16.1575V18.2837C10.1274 18.3936 10.1533 18.5019 10.2028 18.6001C10.2523 18.6984 10.3241 18.7839 10.4125 18.8501C10.6427 19.0321 10.9228 19.1409 11.2163 19.1625C11.5098 19.1841 11.803 19.1174 12.0577 18.9711C12.1382 18.9289 12.206 18.8662 12.2541 18.7896C12.6478 18.152 12.9403 17.4581 13.1212 16.7323C13.1856 16.4687 13.1947 16.1948 13.1481 15.9275L12.7163 13.4491C12.714 13.4364 12.7145 13.4233 12.7179 13.4108C12.7212 13.3983 12.7273 13.3866 12.7357 13.3767C12.7441 13.3668 12.7545 13.3588 12.7664 13.3533C12.7782 13.3479 12.7911 13.345 12.8041 13.3451H17.1594C17.409 13.3463 17.6516 13.2631 17.8472 13.109C18.0428 12.955 18.1796 12.7395 18.2351 12.498C18.2606 12.3786 18.2732 12.2569 18.2729 12.1349C18.2729 11.4621 17.885 11.151 17.6204 11.0179C17.5984 11.0065 17.5795 10.9902 17.5651 10.9702C17.5508 10.9502 17.5414 10.9271 17.5377 10.9028C17.534 10.8785 17.5361 10.8537 17.5439 10.8304C17.5517 10.8071 17.565 10.7859 17.5826 10.7686C17.6895 10.668 17.7746 10.5467 17.8326 10.4123C17.8907 10.2779 17.9206 10.1331 17.9204 9.98687C17.9204 9.50281 17.5545 9.15065 17.3679 9.00907C17.3566 9.00028 17.3473 8.98929 17.3404 8.97678C17.3336 8.96426 17.3294 8.95049 17.3282 8.93631C17.3269 8.92214 17.3286 8.90785 17.3331 8.89435C17.3377 8.88084 17.3449 8.8684 17.3545 8.8578C17.5334 8.64817 17.6288 8.38088 17.6228 8.10629C17.6228 7.64522 17.2789 7.25918 17.0203 7.08612C16.9845 7.06201 16.9597 7.02498 16.951 6.98293C16.9424 6.94088 16.9506 6.89714 16.974 6.86103C17.1205 6.61195 17.1952 6.32769 17.1899 6.03934C17.1899 5.39432 16.541 4.88484 15.9178 4.88484H8.35624C8.27575 4.88459 8.19634 4.90325 8.12452 4.9393L7.0598 5.46693C6.97348 5.50977 6.90085 5.57557 6.85002 5.65699C6.7992 5.7384 6.77218 5.83223 6.77197 5.928V11.3362C6.77205 11.4152 6.79034 11.4931 6.82543 11.564C6.86052 11.6349 6.91148 11.6969 6.97443 11.7452Z" fill="#2A3467" stroke="#2A3467" stroke-miterlimit="10"/>
<path d="M6.16741 12.4998H2.16609C1.89031 12.4998 1.66675 12.2367 1.66675 11.9123V4.75386C1.66675 4.42943 1.89031 4.16642 2.16609 4.16642H6.16741C6.44319 4.16642 6.66675 4.42943 6.66675 4.75386V11.9123C6.66675 12.2367 6.44319 12.4998 6.16741 12.4998Z" fill="white" stroke="#2A3467" stroke-miterlimit="10"/>
<path d="M5.00016 6.66533C5.00016 6.20662 4.62719 5.83309 4.16683 5.83309C3.70647 5.83309 3.3335 6.20662 3.3335 6.66533C3.3335 7.12405 3.70647 7.49976 4.16683 7.49976C4.62719 7.49976 5.00016 7.12623 5.00016 6.66533Z" fill="white" stroke="#2A3467" stroke-miterlimit="10"/>
</svg>
