<svg width="36" height="36" viewBox="0 0 36 36" fill="none" xmlns="http://www.w3.org/2000/svg">
<rect width="36" height="36" rx="18" fill="white"/>
<path fill-rule="evenodd" clip-rule="evenodd" d="M15.5119 9.66675H20.488C23.04 9.66675 24.6666 10.8626 24.6666 13.2148V24.9425C24.6666 25.3114 24.5237 25.6652 24.2692 25.9261C24.0295 26.1719 23.7093 26.1709 23.3644 26.1699L23.3006 26.1698L23.2445 26.1689C23.0638 26.1659 22.9691 26.1643 22.6552 26.1643L17.9782 26.1698H13.3203C13.167 26.1698 13.0239 26.1768 12.8894 26.1833C12.3771 26.2082 11.9909 26.227 11.6535 25.8314L11.5718 25.7267L11.4938 25.5979C11.3919 25.3986 11.337 25.1776 11.3333 24.9425V13.362C11.3333 10.9162 12.9242 9.66675 15.5119 9.66675ZM20.4879 10.8728H15.5118C13.5159 10.8728 12.5099 11.6628 12.5099 13.3616L12.5098 24.9321C12.51 24.9463 12.5115 24.9603 12.5127 24.9715C12.5145 24.9893 12.5156 24.9997 12.5096 24.9911L12.5408 25.0429C12.5452 25.0471 12.5491 25.0511 12.5528 25.0548L12.5529 25.0549L12.553 25.055L12.553 25.055L12.553 25.055C12.5853 25.0877 12.6024 25.1051 12.7662 25.1051L17.4222 25.0834H18.5361H22.5833C22.5833 25.0834 22.9695 25.0828 22.9999 25.0834H23.4166C23.4898 25.0639 23.4898 24.9911 23.4898 24.9421V13.2144C23.4898 11.6313 22.4582 10.8728 20.4879 10.8728ZM16.6731 13.8334C16.998 13.8334 17.2615 14.1035 17.2615 14.4366C17.2615 14.742 17.0401 14.9944 16.7529 15.0344L16.6731 15.0399H15.1169C14.792 15.0399 14.5285 14.7698 14.5285 14.4366C14.5285 14.1313 14.7499 13.8789 15.0371 13.8389L15.1169 13.8334H16.6731ZM17.2615 17.77C17.2615 17.4368 16.998 17.1667 16.6731 17.1667H15.1169L15.0371 17.1723C14.7499 17.2122 14.5285 17.4646 14.5285 17.77C14.5285 18.1031 14.792 18.3732 15.1169 18.3732H16.6731L16.7529 18.3677C17.0401 18.3278 17.2615 18.0754 17.2615 17.77ZM16.6731 20.5001C16.998 20.5001 17.2615 20.7702 17.2615 21.1033C17.2615 21.4087 17.0401 21.6611 16.7529 21.701L16.6731 21.7065H15.1169C14.792 21.7065 14.5285 21.4365 14.5285 21.1033C14.5285 20.7979 14.7499 20.5455 15.0371 20.5056L15.1169 20.5001H16.6731ZM21.5662 14.4366C21.5662 14.1035 21.3028 13.8334 20.9778 13.8334H19.4216L19.3418 13.8389C19.0546 13.8789 18.8333 14.1313 18.8333 14.4366C18.8333 14.7698 19.0967 15.0399 19.4216 15.0399H20.9778L21.0577 15.0344C21.3448 14.9944 21.5662 14.742 21.5662 14.4366ZM20.9778 17.1667C21.3028 17.1667 21.5662 17.4368 21.5662 17.77C21.5662 18.0754 21.3448 18.3278 21.0577 18.3677L20.9778 18.3732H19.4216C19.0967 18.3732 18.8333 18.1031 18.8333 17.77C18.8333 17.4646 19.0546 17.2122 19.3418 17.1723L19.4216 17.1667H20.9778ZM21.5662 21.1033C21.5662 20.7702 21.3028 20.5001 20.9778 20.5001H19.4216L19.3418 20.5056C19.0546 20.5455 18.8333 20.7979 18.8333 21.1033C18.8333 21.4365 19.0967 21.7065 19.4216 21.7065H20.9778L21.0577 21.701C21.3448 21.6611 21.5662 21.4087 21.5662 21.1033Z" fill="#00C5D7"/>
</svg>
