<svg width="101" height="100" viewBox="0 0 101 100" fill="none" xmlns="http://www.w3.org/2000/svg">
<path d="M18.369 96.9282C17.5833 96.9282 16.9404 96.2854 16.9404 95.4996V68.1425C16.9404 67.3568 17.5833 66.7139 18.369 66.7139H32.107L31.2975 64.9282C30.9166 64.0949 30.488 63.3092 30.0357 62.5711C27.7738 58.9996 27.1546 54.7377 28.2975 50.5473C29.607 45.7377 33.3928 41.8568 38.2023 40.4044C39.6547 39.9758 41.1547 39.7377 42.6309 39.7377C45.2499 39.7377 47.8451 40.452 50.1071 41.7615L50.75 42.1425L51.3927 41.7615C53.6785 40.4282 56.25 39.7377 58.869 39.7377C60.3452 39.7377 61.8451 39.952 63.2975 40.4044C68.107 41.8568 71.8928 45.7377 73.2023 50.5473C74.3451 54.7377 73.7261 59.0234 71.4642 62.5711C70.988 63.3092 70.5594 64.0949 70.2023 64.9282L69.3928 66.7139H83.1309C83.9166 66.7139 84.5595 67.3568 84.5595 68.1425V95.4758C84.5595 96.2615 83.9166 96.9044 83.1309 96.9044H18.369V96.9282ZM19.7976 94.0473H81.6547V69.5949H68.6785L68.5356 70.6901C68.4165 71.6425 68.3452 72.5949 68.3452 73.5473C68.3452 80.2853 62.869 85.7853 56.1071 85.7853C55.3214 85.7853 54.6785 85.1425 54.6785 84.3568V73.5711C54.6785 71.3806 52.8928 69.6187 50.7261 69.6187C48.5595 69.6187 46.7737 71.4044 46.7737 73.5711V84.3568C46.7737 85.1425 46.1309 85.7853 45.3451 85.7853C38.607 85.7853 33.1071 80.3092 33.1071 73.5473C33.1071 72.5949 33.0357 71.6187 32.9166 70.6901L32.7738 69.5949H19.7976V94.0473ZM50.7261 66.7139C54.488 66.7139 57.5595 69.7853 57.5595 73.5473V82.952L59.2499 82.3568C62.988 81.0234 65.488 77.4996 65.488 73.5473C65.488 71.6425 65.7023 69.7377 66.1546 67.9044V67.8806C66.7499 65.4044 67.7023 63.1187 69.0356 61.0473C70.869 58.1663 71.3451 54.7139 70.4404 51.3092C69.4165 47.4996 66.2737 44.3092 62.488 43.1663C61.2975 42.8092 60.0595 42.6187 58.869 42.6187C56.2738 42.6187 53.7737 43.4758 51.6547 45.0711C51.3928 45.2615 51.107 45.3568 50.7975 45.3568C50.488 45.3568 50.1785 45.2615 49.9405 45.0711C47.7976 43.452 45.2975 42.6187 42.7261 42.6187C41.5118 42.6187 40.2976 42.8092 39.1071 43.1663C35.2976 44.3092 32.1785 47.4996 31.1546 51.3092C30.2261 54.7139 30.7262 58.1663 32.5595 61.0473C33.869 63.1187 34.8451 65.4282 35.4404 67.8806V67.9044C35.8689 69.7377 36.1071 71.6425 36.1071 73.5473C36.1071 77.4996 38.607 81.0473 42.3451 82.3568L44.0356 82.952V73.5473C43.8928 69.7853 46.9642 66.7139 50.7261 66.7139Z" fill="#2A3467"/>
<path fill-rule="evenodd" clip-rule="evenodd" d="M24.3213 19.848C24.3213 9.75661 31.0334 3.80951 37.6546 3.80951C40.9729 3.80951 43.3328 5.34484 45.3143 6.63395L45.3312 6.64496C47.3793 7.97742 49.0024 9.01818 51.2261 9.01818C53.3125 9.01818 54.6719 8.1107 56.5428 6.86165C56.6455 6.79313 56.7497 6.72358 56.8556 6.65309C58.8838 5.30349 61.3331 3.80951 65.2737 3.80951C69.2301 3.80951 72.3011 5.43414 74.323 8.37593C76.292 11.2408 77.1784 15.2212 77.1784 19.848C77.1784 25.3406 75.2476 31.2537 73.5242 35.0406C72.9183 36.3719 71.8324 37.3149 70.5269 37.6698C69.2186 38.0256 67.8028 37.7596 66.6089 36.8952C66.4846 36.8052 66.3587 36.7138 66.2311 36.6212C62.6796 34.0431 57.8131 30.5105 50.988 30.5105C44.182 30.5105 39.355 34.0075 35.8034 36.5804C35.3809 36.8865 34.9765 37.1795 34.5889 37.452C32.6107 38.8427 29.9316 38.4557 28.5831 36.3051C26.5632 33.0836 24.3213 27.225 24.3213 19.848ZM37.6546 6.66665C32.8473 6.66665 27.1784 11.0879 27.1784 19.848C27.1784 26.6741 29.2615 32.0087 31.0037 34.7873C31.4193 35.45 32.2073 35.6337 32.9457 35.1146C33.3025 34.8638 33.6875 34.5831 34.101 34.2818C37.6188 31.7177 43.195 27.6534 50.988 27.6534C58.7608 27.6534 64.2972 31.6809 67.8224 34.2453C67.9805 34.3603 68.1345 34.4724 68.2845 34.581C68.8193 34.9682 69.3501 35.0289 69.7772 34.9128C70.2071 34.7959 70.6455 34.4684 70.9237 33.8571C72.5584 30.2649 74.3213 24.7746 74.3213 19.848C74.3213 15.5203 73.4815 12.1958 71.9684 9.99428C70.5082 7.86974 68.341 6.66665 65.2737 6.66665C62.1904 6.66665 60.324 7.77701 58.4384 9.03174C58.3024 9.12225 58.1651 9.21457 58.0262 9.30797C56.2484 10.5035 54.2083 11.8753 51.2261 11.8753C48.1253 11.8753 45.8613 10.4003 43.9426 9.15023C43.8858 9.11323 43.8293 9.07643 43.7731 9.03988C41.7549 7.72691 40.0412 6.66665 37.6546 6.66665Z" fill="#00C5D7"/>
</svg>
