<svg width="101" height="100" viewBox="0 0 101 100" fill="none" xmlns="http://www.w3.org/2000/svg">
<path fill-rule="evenodd" clip-rule="evenodd" d="M50.4104 23.5714C50.4364 23.5714 50.4624 23.5714 50.4885 23.5714C63.8641 23.587 77.1196 25.6107 89.7609 29.5952C92.9514 30.5952 95.118 33.5476 95.0942 36.9047V63.9524C95.0942 68.3571 91.5228 71.9286 87.118 71.9286H77.8085C76.8323 71.9286 75.8562 71.6667 75.0228 71.1667L74.118 70.619L73.4276 71.4286C72.0228 73.0714 69.9752 74 67.8323 74H56.2847C54.118 74 52.5704 73.7143 51.4038 73.0714C51.3559 73.0427 51.308 73.0178 51.2586 72.9922L51.2583 72.992C51.1849 72.9539 51.108 72.914 51.0228 72.8572L50.3323 72.4047C50.3186 72.3938 50.3049 72.3827 50.2914 72.3717C50.2778 72.3827 50.2642 72.3938 50.2504 72.4047L49.5599 72.8572C49.4747 72.914 49.3979 72.9539 49.3245 72.992L49.3243 72.9921L49.3239 72.9923C49.2745 73.0179 49.2267 73.0427 49.179 73.0714C48.7881 73.2868 48.3545 73.462 47.8693 73.5999V70.5678C48.5253 70.1869 48.7979 69.619 48.7979 68.6423V55.4518C48.5598 48.7613 43.4408 45.2613 38.4884 45.2613C33.9646 45.2613 29.0599 48.1423 28.2742 54.5947V54.6661L28.2503 67.0233V67.0709C28.329 68.0149 28.7123 68.8777 29.2978 69.5653V73.1439C28.4927 72.7177 27.7636 72.1402 27.1551 71.4286L26.4647 70.619L25.5599 71.1667C24.7265 71.6667 23.7504 71.9286 22.7742 71.9286H13.4647C9.0599 71.9286 5.48848 68.3571 5.48848 63.9524V36.9047C5.46466 33.5476 7.63131 30.5952 10.8218 29.5952C23.4631 25.6107 36.9549 23.5871 50.3323 23.5715C50.3583 23.5715 50.3844 23.5714 50.4104 23.5714ZM50.4104 26.4762C37.2933 26.484 24.1068 28.4601 11.7266 32.3571C9.72662 33 8.39328 34.8333 8.39328 36.9285L8.417 46.4286L10.4171 44.9762C12.2504 43.6428 14.4647 42.9286 16.8457 42.9286C20.56 42.9286 24.0123 44.6428 26.0599 47.5L27.0599 48.9048L28.0837 47.5238C30.5123 44.2381 34.3218 42.3571 38.536 42.3571C42.8694 42.3571 46.8694 44.4048 49.2503 47.8333C49.5194 48.1076 49.8779 48.5868 50.2366 49.2553C50.2548 49.2893 50.2731 49.3238 50.2914 49.3588C50.3096 49.3238 50.3279 49.2893 50.3461 49.2553C50.7048 48.5868 51.0633 48.1076 51.3324 47.8333C53.7133 44.4048 57.7133 42.3571 62.0467 42.3571C66.2609 42.3571 70.0704 44.2381 72.499 47.5238L73.5228 48.9048L74.5228 47.5C76.5704 44.6428 80.0228 42.9286 83.737 42.9286C86.118 42.9286 88.3323 43.6428 90.1656 44.9762L92.1657 46.4286L92.1894 36.9285C92.1894 34.8333 90.8561 33 88.8561 32.3571C76.4759 28.4601 63.5266 26.484 50.4104 26.4762ZM25.3932 54.2613C25.2027 48.7375 20.9408 45.8328 16.8693 45.8328C13.1312 45.8328 8.89323 48.3328 8.39323 53.7613V53.809L8.36939 63.9756C8.36939 66.7852 10.6551 69.0709 13.4646 69.0709H22.7742C23.9884 69.0709 25.0836 68.1899 25.3455 66.9994L25.3694 66.8566V66.6423L25.3932 54.5232V54.2613ZM62.0943 45.2613C57.1419 45.2613 52.0229 48.7613 51.7848 55.4518V68.6423C51.7848 69.6423 52.0705 70.2137 52.761 70.5947C53.4753 70.9757 54.6419 71.1661 56.2848 71.1661H67.8562C70.1657 71.1661 72.1419 69.3566 72.3324 67.0709V67.0233L72.3085 54.6661V54.5947C71.5228 48.1423 66.6181 45.2613 62.0943 45.2613ZM83.7134 45.8328C79.642 45.8328 75.38 48.7375 75.1895 54.2613V54.5232L75.2133 66.6423V66.8566L75.2372 66.9994C75.4991 68.1899 76.5943 69.0709 77.8085 69.0709H87.1181C89.9276 69.0709 92.2133 66.7852 92.2133 63.9756L92.1895 53.809V53.7613C91.6895 48.3328 87.4515 45.8328 83.7134 45.8328Z" fill="#2A3467"/>
<path d="M43.119 99.2977C42.8809 99.2977 41.738 99.2263 41.6904 97.8454V93.7025C41.6904 92.9168 42.3333 92.2739 43.119 92.2739C43.9047 92.2739 44.5476 92.9168 44.5476 93.7025V97.8454C44.4761 99.2263 43.3333 99.2977 43.119 99.2977Z" fill="#00C5D7"/>
<path d="M56.643 95.7502C56.2621 95.7502 55.905 95.6073 55.6193 95.3216L52.6669 92.3692C52.405 92.1073 52.2383 91.7264 52.2383 91.3454C52.2383 90.9645 52.3812 90.6073 52.6669 90.3216C52.9288 90.0597 53.3097 89.893 53.6907 89.893C54.0716 89.893 54.4289 90.0359 54.7146 90.3216L57.6669 93.2739C57.9288 93.5358 58.0954 93.9168 58.0954 94.2978C58.0954 94.6787 57.9526 95.0359 57.6669 95.3216C57.3812 95.6073 57.024 95.7502 56.643 95.7502Z" fill="#00C5D7"/>
<path d="M58.1194 83.5351C56.7384 83.4637 56.667 82.3208 56.667 82.1065C56.667 81.8685 56.7384 80.7256 58.1194 80.678H62.2384C63.6194 80.7494 63.6908 81.8923 63.6908 82.1065C63.6908 82.3446 63.6194 83.4875 62.2384 83.5351H58.1194Z" fill="#00C5D7"/>
<path fill-rule="evenodd" clip-rule="evenodd" d="M27.3926 67.8195L27.3956 67.7507C27.5591 64.0811 29.029 61.1778 31.2714 59.2148C33.4607 57.2983 36.2254 56.4164 38.8211 56.4164C41.4101 56.4164 44.1754 57.2883 46.3683 59.2037C48.6152 61.1664 50.0835 64.0723 50.2467 67.7513L50.2497 67.8198V79.9803C50.2497 83.085 47.7478 85.7022 44.5707 85.7022H35.4692C30.9652 85.7022 27.3926 81.9965 27.3926 77.543V67.8195ZM47.1545 67.8884C46.8984 62.1146 42.6619 59.5117 38.8211 59.5117C34.9803 59.5117 30.7439 62.1383 30.4878 67.8884V77.543C30.4878 80.3352 32.7224 82.6069 35.4692 82.6069H44.5707C45.9906 82.6069 47.1545 81.4237 47.1545 79.9803V67.8884Z" fill="#00C5D7"/>
</svg>
