<svg width="101" height="100" viewBox="0 0 101 100" fill="none" xmlns="http://www.w3.org/2000/svg">
<path d="M50.7263 81.4524C36.7978 81.4524 23.0835 79.2857 9.98829 75C7.60734 74.2143 6.01211 72 6.01211 69.5L5.98828 30.5238C5.98828 28.0238 7.58351 25.8095 9.96446 25.0238C23.0835 20.7381 36.774 18.5714 50.6787 18.5476H50.774C64.7026 18.5476 78.4168 20.7143 91.5121 25C93.893 25.7857 95.4883 28 95.4883 30.5L95.5121 69.4762C95.5121 71.9762 93.9169 74.1905 91.5359 74.9762C78.4169 79.2619 64.7264 81.4286 50.8216 81.4524H50.7263ZM8.89303 69.5C8.89303 70.7619 9.70259 71.8809 10.8931 72.2619C23.7026 76.4524 37.1073 78.5714 50.7263 78.5714H50.8216C64.4169 78.5714 77.8216 76.4286 90.655 72.2381C91.8454 71.8571 92.6549 70.7381 92.6549 69.4762V58.9286L90.8216 59.8571C89.7978 60.3809 88.5835 60.6429 87.3216 60.6429C85.6073 60.6429 83.9169 60.1428 82.6788 59.2619L81.5121 58.4286L80.8454 59.6905C79.4883 62.2619 76.6073 63.9286 73.5359 63.9286C71.8454 63.9286 70.2502 63.4286 68.9406 62.4762L67.7978 61.6667L67.1073 62.8809C66.6787 63.6429 66.1311 64.3571 65.4883 64.9762L65.4645 65C63.7978 66.6667 61.3692 67.619 58.7978 67.619C55.9645 67.619 53.3454 66.4762 51.655 64.5238L50.7026 63.4286L49.7502 64.5238C47.9883 66.5238 45.4883 67.6429 42.7502 67.6429C39.274 67.6429 36.1073 65.8095 34.4645 62.8571L33.774 61.5952L32.6073 62.4524C31.2978 63.4286 29.6311 63.9524 27.8692 63.9524C25.5835 63.9524 23.4407 63.0714 22.0121 61.5476L21.9883 61.5238C21.4645 61 21.0359 60.4286 20.6787 59.7857L19.9883 58.5714L18.8454 59.3809C17.6073 60.2619 15.9407 60.7619 14.2264 60.7619C12.9407 60.7619 11.7264 60.4762 10.7026 59.9524L8.86926 59.0238L8.89303 69.5ZM52.2026 58.3333C52.2026 60.0238 52.8454 61.619 54.0121 62.8095C55.2502 64.0476 56.9168 64.7381 58.7025 64.7381C60.5597 64.7381 62.3454 64 63.6073 62.7143C64.774 61.5476 65.4169 59.9762 65.393 58.2857V54.6428L63.8693 54.9524C63.5121 55.0238 63.1311 55.0714 62.7502 55.0714H54.8216C54.3454 55.0714 53.9407 55.0476 53.5597 55.0238L52.1788 54.8809V58.3333H52.2026ZM36.1312 58.1905V58.2143C36.3216 62.6905 39.6788 64.7381 42.7264 64.7381C45.8692 64.7381 49.155 62.5 49.3454 58.2143V58.1667V54.9286L47.9645 55.0714C47.5835 55.119 47.1788 55.119 46.7026 55.119H38.774C38.393 55.119 38.0121 55.0714 37.6549 55L36.1312 54.6905V58.1905ZM68.274 55.7143C68.2502 57.1428 68.7978 58.4762 69.7978 59.5C70.7978 60.5238 72.1311 61.0952 73.5597 61.0952C75.0121 61.0952 76.4406 60.5 77.4645 59.4762C78.4645 58.4762 79.0121 57.1428 79.0121 55.7143L79.0359 53.4524L77.5121 53.7619C77.1549 53.8333 76.774 53.8809 76.4169 53.8809H70.9168C70.5359 53.8809 70.1788 53.8333 69.8216 53.7619L68.3216 53.4524L68.274 55.7143ZM22.5121 55.7143C22.5121 57.1428 23.0597 58.4762 24.0597 59.5C25.0597 60.5238 26.393 61.0952 27.8216 61.0952C29.274 61.0952 30.7026 60.5 31.7264 59.4762C32.7264 58.4762 33.274 57.1428 33.274 55.7143V53.4762L31.7502 53.7857C31.393 53.8571 31.0121 53.9048 30.655 53.9048H25.1549C24.774 53.9048 24.3931 53.8571 24.0359 53.7857L22.5121 53.4762V55.7143ZM8.91686 52.5C9.03591 56.0238 11.7264 57.8571 14.3216 57.8571C16.774 57.8571 19.4645 56.2143 19.6311 52.6428V52.619V50.7857L18.2264 50.9524C17.8454 51 17.4169 51.0238 17.0121 51.0238H11.5121C11.1073 51.0238 10.7026 51 10.3454 50.9524L8.91686 50.7857V52.5ZM81.8931 52.8333V52.9048C82.2978 56.2381 84.9407 57.7619 87.2502 57.7619C89.8454 57.7619 92.5121 55.9286 92.6549 52.4524V52.4048V50.7619L91.2264 50.9524C90.8216 51 90.393 51.0238 89.9645 51.0238H84.4645C84.0597 51.0238 83.6788 51 83.3216 50.9524L81.9168 50.7857L81.8931 52.8333ZM58.7978 37.4762C55.655 37.4762 52.3693 39.7143 52.2026 44V44.0476V51.8571L53.155 52.0952C53.5597 52.1905 54.1312 52.2381 54.8216 52.2381H62.7502C64.2025 52.2381 65.393 51.0476 65.393 49.5952V44.0238V44C65.2264 39.7143 61.9407 37.4762 58.7978 37.4762ZM42.6549 37.4524C40.9169 37.4524 39.2978 38.1428 38.0597 39.3809C36.893 40.5714 36.2026 42.1428 36.1549 43.8095V43.8571C36.1549 45.3095 36.1549 48.7619 36.1549 49.619C36.1549 50.5476 36.6311 51.1667 36.9168 51.4524C37.4168 51.9524 38.0835 52.2381 38.774 52.2381H46.7026C47.393 52.2381 47.9645 52.1905 48.3692 52.0952L49.3454 51.8571V44.0476C49.3454 42.3095 48.6787 40.6667 47.4645 39.4286C46.1787 38.1667 44.4407 37.4524 42.6549 37.4524ZM73.5835 37C72.1787 37 70.8216 37.5714 69.8216 38.5952C68.8216 39.619 68.274 40.9524 68.274 42.3809V48.3809C68.274 49.3095 68.7502 49.9286 69.0121 50.2143C69.5121 50.7143 70.1788 51 70.8692 51H76.3693C77.774 51 78.9406 49.9048 79.0121 48.5V48.4762V48.4524C79.0121 47.7619 79.0121 46.2619 79.0121 44.8333C79.0121 43.8333 79.0121 42.8809 79.0121 42.3571V42.3333C78.9645 38.9762 76.2025 37 73.5835 37ZM27.893 37.0238C25.3454 37.0238 22.6787 38.8333 22.5121 42.2857V42.3095V48.3333C22.5121 49.7857 23.7026 50.9762 25.1549 50.9762H30.655C32.1074 50.9762 33.2978 49.7857 33.2978 48.3333V42.3571V42.3333C33.1311 38.8333 30.4645 37.0238 27.893 37.0238ZM8.84542 46.619C8.84542 46.6905 8.84542 46.7619 8.84542 46.8095L8.91686 47.5238L9.58354 47.8333C10.0359 48.0476 10.6788 48.1428 11.4883 48.1428H16.9883C17.7978 48.1428 18.4168 48.0476 18.893 47.8333L19.6073 47.5L19.6311 46.7143C19.6311 46.5238 19.6311 45.3333 19.6311 43.6905C19.6311 42.7857 19.6311 41.9762 19.6311 41.8571V41.8333V41.8095C19.4883 38.3095 16.8216 36.5 14.2502 36.5C11.6787 36.5 9.01211 38.3333 8.86926 41.8095V41.8333V45.5C8.86926 46 8.86922 46.3809 8.89303 46.6667L8.84542 46.619ZM87.2026 36.4762C84.774 36.4762 82.0835 38.0952 81.9168 41.6905V41.7143V47.619L82.7264 47.9286C83.0359 48.0476 83.5597 48.1667 84.4407 48.1667H89.9407C90.7502 48.1667 91.3693 48.0714 91.8454 47.8571L92.5121 47.5476L92.5835 46.8095C92.5835 46.7619 92.5835 46.6905 92.5835 46.619V41.8333V41.8095C92.4645 38.3095 89.774 36.4762 87.2026 36.4762ZM42.7026 34.5952C45.5121 34.5952 48.1073 35.7619 49.8216 37.7619L50.774 38.8809L51.7264 37.7619C53.4407 35.7619 56.0359 34.5952 58.8216 34.5952C61.3692 34.5952 63.6787 35.5238 65.3692 37.2381L66.3454 38.2381L67.2264 37.1667C67.393 36.9524 67.5835 36.7619 67.774 36.5714L67.7978 36.5476C69.2502 35.0238 71.3693 34.1428 73.6312 34.1428C75.7978 34.1428 77.8454 34.9524 79.2978 36.3809L80.2502 37.3333L81.1312 36.3095C82.5835 34.619 84.8692 33.5952 87.2978 33.5952C88.5359 33.5952 89.7502 33.8809 90.774 34.4048L92.6073 35.3333L92.6311 30.5238C92.6311 29.2619 91.8216 28.1428 90.6311 27.7619C77.8216 23.5714 64.4168 21.4524 50.7978 21.4524H50.7026C37.1073 21.4524 23.7026 23.5952 10.8692 27.7857C9.67876 28.1667 8.86926 29.2857 8.86926 30.5476V35.3571L10.7026 34.4286C11.7264 33.9048 12.9169 33.619 14.155 33.619C16.5597 33.619 18.9407 34.6667 20.393 36.3333L21.274 37.3571L22.2264 36.4048C23.6787 34.9524 25.7025 34.1667 27.8692 34.1667C30.393 34.1667 32.7978 35.2857 34.274 37.1667L35.1549 38.2857L36.1549 37.2857C37.8454 35.5476 40.1549 34.5952 42.7026 34.5952Z" fill="#2A3467"/>
<path fill-rule="evenodd" clip-rule="evenodd" d="M92.6741 58.9255L90.8408 59.8541C89.817 60.3779 88.6027 60.6398 87.3408 60.6398C85.6265 60.6398 83.9361 60.1398 82.698 59.2589L81.5313 58.4255L80.8646 59.6874C79.5075 62.2589 76.6265 63.9255 73.5551 63.9255C71.8646 63.9255 70.2694 63.4255 68.9598 62.4731L67.817 61.6636L67.1265 62.8779C66.6979 63.6398 66.1503 64.3541 65.5075 64.9731L65.4837 64.997C63.817 66.6636 61.3884 67.616 58.817 67.616C55.9837 67.616 53.3646 66.4731 51.6742 64.5208L50.7218 63.4255L49.7694 64.5208C48.0075 66.5208 45.5075 67.6398 42.7694 67.6398C39.2932 67.6398 36.1265 65.8065 34.4837 62.8541L33.7932 61.5922L32.6265 62.4493C31.317 63.4255 29.6503 63.9493 27.8884 63.9493C25.6027 63.9493 23.4599 63.0684 22.0313 61.5446L22.0075 61.5208C21.4837 60.997 21.0551 60.4255 20.6979 59.7827L20.0075 58.5684L18.8646 59.3779C17.6265 60.2589 15.9599 60.7589 14.2456 60.7589C12.9599 60.7589 11.7456 60.4731 10.7218 59.9493L8.88845 59.0208C6.6128 57.0017 6.02309 53.8303 6.0127 52.497V41.8065C6.0127 38.7902 7.92987 36.2481 8.88845 35.3541L10.7218 34.4255C11.7456 33.9017 12.9361 33.616 14.1742 33.616C16.5789 33.616 18.9599 34.6636 20.4122 36.3303L21.2932 37.3541L22.2456 36.4017C23.6979 34.9493 25.7217 34.1636 27.8884 34.1636C30.4122 34.1636 32.817 35.2827 34.2932 37.1636L35.1741 38.2827L36.1741 37.2827C37.8646 35.5446 40.1741 34.5922 42.7217 34.5922C45.5313 34.5922 48.1265 35.7589 49.8408 37.7589L50.7932 38.8779L51.7456 37.7589C53.4599 35.7589 56.0551 34.5922 58.8408 34.5922C61.3884 34.5922 63.6979 35.5208 65.3884 37.235L66.3646 38.2351L67.2456 37.1636C67.4111 36.9508 67.6002 36.7617 67.7894 36.5725L67.7932 36.5687V36.5684L67.817 36.5446C69.2694 35.0208 71.3885 34.1398 73.6504 34.1398C75.817 34.1398 77.8646 34.9493 79.317 36.3779L80.2694 37.3303L81.1504 36.3065C82.6027 34.616 84.8884 33.5922 87.317 33.5922C88.5551 33.5922 89.7694 33.8779 90.7932 34.4017L92.6265 35.3303C92.7467 35.5111 92.8819 35.7072 93.0265 35.9169C94.0392 37.3857 95.5124 39.5224 95.5124 41.7679V52.4493C95.3318 54.2272 94.5113 58.0116 92.6741 58.9255ZM54.0244 62.8189C52.8577 61.6285 52.2149 60.0332 52.2149 58.3428H52.1911V54.8904L53.572 55.0332C53.953 55.057 54.3578 55.0808 54.834 55.0808H62.7625C63.1434 55.0808 63.5244 55.0332 63.8816 54.9618L65.4054 54.6523V58.2951C65.4292 59.9856 64.7863 61.557 63.6197 62.7237C62.3577 64.0094 60.572 64.7475 58.7149 64.7475C56.9292 64.7475 55.2625 64.057 54.0244 62.8189ZM36.1435 58.2237V58.1999V54.6999L37.6673 55.0094C38.0244 55.0808 38.4054 55.1285 38.7863 55.1285H46.7149C47.1911 55.1285 47.5959 55.1285 47.9768 55.0808L49.3578 54.938V58.1761V58.2237C49.1673 62.5094 45.8816 64.7475 42.7387 64.7475C39.6911 64.7475 36.334 62.6999 36.1435 58.2237ZM69.8101 59.5094C68.8101 58.4856 68.2625 57.1523 68.2863 55.7237L68.334 53.4618L69.834 53.7713C70.1911 53.8428 70.5482 53.8904 70.9292 53.8904H76.4292C76.7863 53.8904 77.1673 53.8428 77.5244 53.7713L79.0482 53.4618L79.0244 55.7237C79.0244 57.1523 78.4768 58.4856 77.4768 59.4856C76.453 60.5094 75.0244 61.1047 73.572 61.1047C72.1435 61.1047 70.8101 60.5332 69.8101 59.5094ZM24.072 59.5094C23.072 58.4856 22.5244 57.1523 22.5244 55.7237V53.4856L24.0482 53.7951C24.4054 53.8666 24.7863 53.9142 25.1673 53.9142H30.6673C31.0244 53.9142 31.4054 53.8666 31.7625 53.7951L33.2863 53.4856V55.7237C33.2863 57.1523 32.7387 58.4856 31.7387 59.4856C30.7149 60.5094 29.2863 61.1047 27.8339 61.1047C26.4054 61.1047 25.072 60.5332 24.072 59.5094ZM14.3339 57.8666C11.7387 57.8666 9.04823 56.0332 8.92919 52.5094V50.7951L10.3578 50.9618C10.7149 51.0094 11.1196 51.0332 11.5244 51.0332H17.0244C17.4292 51.0332 17.8577 51.0094 18.2387 50.9618L19.6435 50.7951V52.6285V52.6523C19.4768 56.2237 16.7863 57.8666 14.3339 57.8666ZM81.9054 52.9142V52.8428L81.9292 50.7951L83.334 50.9618C83.6911 51.0094 84.0721 51.0332 84.4768 51.0332H89.9768C90.4054 51.0332 90.8339 51.0094 91.2387 50.9618L92.6673 50.7713V52.4142V52.4618C92.5244 55.938 89.8578 57.7713 87.2625 57.7713C84.953 57.7713 82.3101 56.2475 81.9054 52.9142ZM52.2149 44.0094C52.3816 39.7237 55.6673 37.4856 58.8101 37.4856C61.953 37.4856 65.2387 39.7237 65.4054 44.0094V44.0332V49.6047C65.4054 51.057 64.2149 52.2475 62.7625 52.2475H54.834C54.1435 52.2475 53.5721 52.1999 53.1673 52.1047L52.2149 51.8666V44.057V44.0094ZM38.072 39.3904C39.3101 38.1523 40.9292 37.4618 42.6673 37.4618C44.453 37.4618 46.1911 38.1761 47.4768 39.438C48.6911 40.6761 49.3578 42.3189 49.3578 44.057V51.8666L48.3816 52.1047C47.9768 52.1999 47.4054 52.2475 46.7149 52.2475H38.7863C38.0958 52.2475 37.4291 51.9618 36.9291 51.4618C36.6434 51.1761 36.1673 50.557 36.1673 49.6285V43.8666V43.8189C36.2149 42.1523 36.9054 40.5808 38.072 39.3904ZM69.834 38.6047C70.834 37.5808 72.1911 37.0094 73.5958 37.0094C76.2149 37.0094 78.9768 38.9856 79.0244 42.3428V42.3666V44.8428V48.4618V48.4856V48.5094C78.953 49.9142 77.7863 51.0094 76.3816 51.0094H70.8816C70.1911 51.0094 69.5244 50.7237 69.0244 50.2237C68.7625 49.938 68.2863 49.3189 68.2863 48.3904V42.3904C68.2863 40.9618 68.834 39.6285 69.834 38.6047ZM22.5244 42.2951C22.6911 38.8428 25.3577 37.0332 27.9054 37.0332C30.4768 37.0332 33.1434 38.8428 33.3101 42.3428V42.3666V48.3428C33.3101 49.7951 32.1197 50.9856 30.6673 50.9856H25.1673C23.7149 50.9856 22.5244 49.7951 22.5244 48.3428V42.3189V42.2951ZM8.85775 46.8189V46.6285L8.90535 46.6761C8.88158 46.3908 8.88158 46.0105 8.88158 45.5116V45.5094V41.8428V41.8189C9.02444 38.3428 11.6911 36.5094 14.2625 36.5094C16.8339 36.5094 19.5006 38.3189 19.6435 41.8189V41.8428V41.8666V43.6999V46.7237L19.6196 47.5094L18.9054 47.8428C18.4292 48.057 17.8101 48.1523 17.0006 48.1523H11.5006C10.6911 48.1523 10.0482 48.057 9.59587 47.8428L8.92919 47.5332L8.85775 46.8189ZM81.9292 41.6999C82.0958 38.1047 84.7863 36.4856 87.2149 36.4856C89.7863 36.4856 92.4768 38.3189 92.5958 41.8189V41.8428V46.6285V46.8189L92.5244 47.557L91.8578 47.8666C91.3816 48.0808 90.7625 48.1761 89.953 48.1761H84.453C83.572 48.1761 83.0482 48.057 82.7387 47.938L81.9292 47.6285V41.7237V41.6999Z" fill="#00C5D7"/>
</svg>
