<svg width="101" height="100" viewBox="0 0 101 100" fill="none" xmlns="http://www.w3.org/2000/svg">
<path d="M91.1464 64.7361H86.5409C81.0143 64.7361 76.2247 68.2363 74.7509 73.3945C71.6192 84.0792 61.4871 91.6322 50.2497 91.6322C39.0123 91.6322 28.8801 84.0792 25.7484 73.3945C24.2746 68.4206 19.4849 64.7361 13.9583 64.7361H9.35285C8.61597 64.7361 8.06329 65.2888 8.06329 66.0257C8.06329 66.7626 8.61597 67.3153 9.35285 67.3153H13.9583C18.1954 67.3153 22.064 70.0785 23.1693 73.9471C26.6695 85.9214 37.9069 94.2113 50.2497 94.2113C62.5924 94.2113 73.8297 85.9214 77.3299 73.9471C78.4352 70.0785 82.3038 67.3153 86.5409 67.3153H91.1464C91.8833 67.3153 92.436 66.7626 92.436 66.0257C92.436 65.473 91.8833 64.7361 91.1464 64.7361Z" fill="#00C5D7"/>
<path fill-rule="evenodd" clip-rule="evenodd" d="M77.3299 73.9471C73.8297 85.9214 62.5924 94.2113 50.2497 94.2113C37.9069 94.2113 26.6695 85.9214 23.1693 73.9471C22.064 70.0785 18.1954 67.3153 13.9583 67.3153H9.35285C8.61597 67.3153 8.06329 66.7626 8.06329 66.0257C8.06329 65.2888 8.61597 64.7361 9.35285 64.7361H13.9583C19.4849 64.7361 24.2746 68.4206 25.7484 73.3945C28.8801 84.0792 39.0123 91.6322 50.2497 91.6322C61.4871 91.6322 71.6192 84.0792 74.7509 73.3945C76.2247 68.2363 81.0143 64.7361 86.5409 64.7361H91.1464C91.8833 64.7361 92.436 65.473 92.436 66.0257C92.436 66.7626 91.8833 67.3153 91.1464 67.3153H86.5409C82.3038 67.3153 78.4352 70.0785 77.3299 73.9471ZM74.5222 73.3282C71.4203 83.9101 61.3823 91.3942 50.2497 91.3942C39.1169 91.3942 29.0785 83.9098 25.9768 73.3275L25.9766 73.3269C24.4728 68.2513 19.5898 64.498 13.9583 64.498H9.35285C8.48448 64.498 7.8252 65.1573 7.8252 66.0257C7.8252 66.8941 8.48448 67.5534 9.35285 67.5534H13.9583C18.0985 67.5534 21.8668 70.2549 22.9404 74.0125L22.9408 74.0139C26.471 86.0908 37.8023 94.4494 50.2497 94.4494C62.6971 94.4494 74.0283 86.0908 77.5584 74.0139L77.5588 74.0125C78.6324 70.2549 82.4007 67.5534 86.5409 67.5534H91.1464C92.0148 67.5534 92.6741 66.8941 92.6741 66.0257C92.6741 65.6777 92.5046 65.3005 92.2437 65.0135C91.9799 64.7233 91.5974 64.498 91.1464 64.498H86.5409C80.9137 64.498 76.0269 68.0632 74.5222 73.3282Z" fill="#00C5D7"/>
<path d="M62.5377 18.8258C52.7437 11.1649 46.4656 16.6253 40.8109 21.2891C40.135 21.89 39.4592 22.4909 38.7833 23.0918C37.8976 22.9093 37.0118 22.7269 36.126 22.5444C28.8445 21.137 20.6774 19.5472 16.0785 31.2746C11.4271 42.8061 22.5561 53.8876 26.0908 56.9286C26.3385 57.0722 26.4434 57.4639 26.7436 57.8033C32.751 73.1957 37.7781 80.2448 41.6822 79.1987C45.1959 78.2572 49.5976 72.0401 46.5246 59.0099C46.2097 57.8349 46.533 56.6988 47.5468 55.7974C47.742 55.7451 47.9372 55.6928 47.9372 55.6928C49.2658 55.9665 50.1139 56.7888 50.4287 57.9638C54.2825 70.7848 61.2029 73.9681 64.7167 73.0266C68.6208 71.9805 69.3974 63.1664 66.9562 47.0283C66.8512 46.6366 66.994 46.3885 67.0843 45.9445C68.2345 41.6481 72.3317 26.4868 62.5377 18.8258ZM64.1267 45.0577C63.8937 45.7499 63.7132 46.6378 63.9231 47.4212C66.0495 62.3842 65.1532 69.971 63.7868 70.3372C62.0299 70.8079 56.4004 68.5381 53.1616 57.2315C52.322 54.0981 49.9501 53.0544 48.6214 52.7807C47.488 52.4547 46.3167 52.7685 45.4981 53.6176C44.4843 54.5189 42.952 56.6087 43.7916 59.7422C46.4448 71.2057 42.7044 75.9862 41.1428 76.4046C39.7763 76.7707 35.2593 70.8444 29.5667 56.627C29.3568 55.8436 28.7565 55.1649 28.2087 54.6819C26.0173 52.7503 15.0983 42.4521 19.0884 32.3572C20.967 27.6557 23.1899 25.8007 25.9228 25.0684C28.8509 24.2838 32.1463 24.8702 35.6894 25.6C34.4279 26.3578 33.3091 26.8675 31.9427 27.2336C31.1618 27.4429 30.7337 28.1873 30.9436 28.9707C31.1535 29.754 31.8965 30.1847 32.6773 29.9755C36.5815 28.9293 39.8181 26.1729 42.8596 23.4689C48.4618 18.6093 53.0502 14.6511 60.8102 20.9679C69.1706 27.9635 65.0587 42.2892 64.1267 45.0577Z" fill="#2A3467"/>
<path d="M88.0613 59.0473C87.5851 59.0473 87.1328 58.8092 86.8709 58.4044C86.4423 57.7378 86.6089 56.8568 87.2756 56.4044L94.0613 51.9283L87.9898 48.4282C87.5613 48.1901 87.2756 47.714 87.2756 47.214C87.2517 46.714 87.5137 46.2378 87.9185 45.9759L96.6328 40.2139C96.8709 40.0473 97.1327 39.9758 97.4184 39.9758C97.8946 39.9758 98.347 40.214 98.6327 40.6187C98.847 40.9283 98.9184 41.333 98.847 41.6902C98.7756 42.0711 98.5613 42.3806 98.2279 42.5949L91.4422 47.0711L97.5137 50.5711C97.9422 50.833 98.2279 51.2616 98.2279 51.7854C98.2517 52.2854 97.9899 52.7616 97.5852 53.0235L88.8708 58.7854C88.6089 58.9758 88.3471 59.0473 88.0613 59.0473Z" fill="#00C5D7"/>
<path d="M80.8709 46.8333C80.6566 46.8333 80.4423 46.7857 80.228 46.6905C79.8947 46.5238 79.6328 46.2143 79.5137 45.8572C79.3947 45.5 79.4185 45.0952 79.5852 44.7619L83.9423 36.0476H75.4899C74.9899 36.0476 74.5375 35.7857 74.2756 35.3571C74.0137 34.9286 73.9899 34.4048 74.2042 33.9524L79.609 23.1667C79.8471 22.6667 80.3471 22.381 80.8947 22.381C81.109 22.381 81.3232 22.4286 81.5375 22.5238C82.2518 22.881 82.5376 23.7381 82.1804 24.4524L77.8233 33.1667H86.2757C86.7757 33.1667 87.228 33.4286 87.4899 33.8571C87.7518 34.2857 87.7757 34.8095 87.5614 35.2619L82.1566 46.0476C81.9185 46.5238 81.4185 46.8333 80.8709 46.8333Z" fill="#00C5D7"/>
</svg>
