<svg width="101" height="100" viewBox="0 0 101 100" fill="none" xmlns="http://www.w3.org/2000/svg">
<path d="M17.8807 94.7738C17.095 94.7738 16.4521 94.1309 16.4521 93.3452V66.0119C16.4521 65.2262 17.095 64.5833 17.8807 64.5833H31.6188L30.8093 62.7976C30.4284 61.9643 29.9998 61.1786 29.5474 60.4405C27.2855 56.8691 26.6665 52.6072 27.8093 48.4167C29.1188 43.6072 32.9045 39.7262 37.7141 38.2738C39.1664 37.8453 40.6664 37.6071 42.1426 37.6071C43.8569 37.6071 45.5474 37.8928 47.1426 38.4881L48.8331 39.0833V29.6786H44.8807C44.095 29.6786 43.4522 29.0357 43.4522 28.25V18.8929H39.4998C38.7141 18.8929 38.0712 18.25 38.0712 17.4643V6.65477C38.0712 5.86905 38.7141 5.2262 39.4998 5.2262H61.0712C61.8569 5.2262 62.4998 5.86905 62.4998 6.65477V17.4405C62.4998 18.2262 61.8569 18.8691 61.0712 18.8691H57.1188V28.2262C57.1188 29.0119 56.476 29.6548 55.6903 29.6548H51.6664V39.0595L53.3569 38.4643C54.9521 37.8929 56.6426 37.5833 58.3569 37.5833C59.8331 37.5833 61.3331 37.7976 62.7855 38.25C67.595 39.7024 71.3807 43.5833 72.6903 48.3929C73.8331 52.5833 73.2141 56.8691 70.9522 60.4167C70.476 61.1548 70.0474 61.9405 69.6902 62.7738L68.8807 64.5595H82.6188C83.4045 64.5595 84.0474 65.2024 84.0474 65.9881V93.3214C84.0474 94.1071 83.4045 94.75 82.6188 94.75H17.8807V94.7738ZM19.3093 91.8929H81.1664V67.4405H68.1903L68.0474 68.5357C67.9284 69.4881 67.8569 70.4405 67.8569 71.3929C67.8569 78.131 62.3807 83.631 55.6188 83.631C54.8331 83.631 54.1902 82.9881 54.1902 82.2024V71.4167C54.1902 69.2262 52.4045 67.4643 50.2379 67.4643C48.0712 67.4643 46.2855 69.25 46.2855 71.4167V82.2024C46.2855 82.9881 45.6426 83.631 44.8569 83.631C38.1188 83.631 32.6188 78.1548 32.6188 71.3929C32.6188 70.4405 32.5474 69.4643 32.4283 68.5357L32.2855 67.4405H19.3093V91.8929ZM50.2379 64.5595C53.9998 64.5595 57.0712 67.631 57.0712 71.3929V80.7976L58.7617 80.2024C62.4998 78.8691 64.9998 75.3452 64.9998 71.3929C64.9998 69.4881 65.2141 67.5833 65.6665 65.75V65.7262C66.2617 63.2738 67.2141 60.9643 68.5474 58.8929C70.3807 56.0119 70.8569 52.5595 69.9522 49.1548C68.9284 45.3452 65.7855 42.1548 61.9998 41.0119C60.8093 40.6548 59.5712 40.4643 58.3807 40.4643C56.2379 40.4643 54.2141 41.0357 52.3331 42.131L51.714 42.4881V55.2024C51.714 55.9881 51.0712 56.631 50.2855 56.631C49.4998 56.631 48.8569 55.9881 48.8569 55.2024V42.4881L48.2379 42.131C46.3807 41.0357 44.3331 40.4643 42.1902 40.4643C40.976 40.4643 39.7617 40.6548 38.5712 41.0119C34.7617 42.1548 31.6426 45.3452 30.6188 49.1548C29.6902 52.5595 30.1902 56.0119 32.0236 58.8929C33.3331 60.9643 34.3093 63.2738 34.9045 65.7262V65.7738C35.3331 67.6072 35.5712 69.5119 35.5712 71.4167C35.5712 75.369 38.0712 78.9167 41.8093 80.2262L43.4998 80.8214V71.4167C43.4045 67.631 46.476 64.5595 50.2379 64.5595ZM46.2855 26.7976H54.1902V18.8929H46.2855V26.7976ZM40.8807 16.0119H59.5712V8.10714H40.8807V16.0119Z" fill="#2A3467"/>
<path fill-rule="evenodd" clip-rule="evenodd" d="M48.797 39.0833V29.6786H44.8447C44.059 29.6786 43.4161 29.0357 43.4161 28.25V18.8929H39.4637C38.678 18.8929 38.0352 18.25 38.0352 17.4643V6.65477C38.0352 5.86905 38.678 5.2262 39.4637 5.2262H61.0352C61.8209 5.2262 62.4637 5.86905 62.4637 6.65477V17.4405C62.4637 18.2262 61.8209 18.8691 61.0352 18.8691H57.0828V28.2262C57.0828 29.0119 56.4399 29.6548 55.6542 29.6548H51.6304V39.0595L51.678 42.4881V55.2024C51.678 55.9881 51.0351 56.631 50.2494 56.631C49.4637 56.631 48.8209 55.9881 48.8209 55.2024V42.4881L48.797 39.0833ZM54.1542 26.798H46.2494V18.8932H54.1542V26.798ZM59.5351 16.0123H40.8446V8.10752H59.5351V16.0123Z" fill="#00C5D7"/>
</svg>
