<svg width="14" height="14" viewBox="0 0 14 14" fill="none" xmlns="http://www.w3.org/2000/svg">
<g id="Call">
<path id="Fill 1" d="M12.298 13.3087C11.9677 13.5447 11.5807 13.6667 11.1462 13.6667C10.7032 13.6667 10.2074 13.5394 9.66951 13.2947C6.73938 12.0733 2.21907 7.55709 1.03928 4.66228C0.54414 3.58289 0.54414 2.69684 1.02994 2.03214C1.14338 1.85213 1.58647 1.3061 2.13432 0.890747C2.15768 1.05609 5.39009 5.00163 5.39009 4.93562C5.39476 5.00696 5.40878 5.07696 5.4368 5.15297C6.15883 6.91106 7.42336 8.17446 9.19772 8.9005C9.26846 8.9245 9.32985 8.93783 9.39591 8.93783L9.40058 8.94316C9.55139 9.12251 13.3924 12.262 13.4444 12.1913C13.01 12.7667 12.4441 13.2281 12.298 13.3087Z" fill="#00C5D7"/>
<path id="Fill 3" d="M5.3901 4.93192C5.37676 4.67791 5.50555 4.45456 5.64902 4.20455C5.82719 3.89587 6.02871 3.54585 5.93729 3.10383C5.85388 2.70581 4.58 1.10506 4.2003 0.734371C3.95006 0.491025 3.69382 0.356352 3.4309 0.334351C3.00783 0.315683 2.54139 0.567029 2.13166 0.884379C2.06293 0.937715 5.39344 5.00126 5.3901 4.93192Z" fill="#00C5D7"/>
<path id="Fill 5" d="M9.39687 8.93542C9.65112 8.94809 9.87466 8.81941 10.1242 8.67607C10.4332 8.49873 10.7842 8.29672 11.2266 8.38872C11.625 8.47206 13.2272 9.74479 13.5982 10.1235C13.8424 10.3735 13.9766 10.6295 13.9993 10.8922C14.0166 11.3149 13.7657 11.7816 13.4481 12.1909C13.3947 12.2596 9.32747 8.93142 9.39687 8.93542Z" fill="#00C5D7"/>
</g>
</svg>
