<svg width="79" height="39" viewBox="0 0 79 39" fill="none" xmlns="http://www.w3.org/2000/svg">
<path d="M4.33398 -59.3691V2.9766C4.33398 11.1461 8.13902 20.2808 11.7093 24.981C16.2974 31.021 22.7724 34.1495 31.9915 34.1495C41.2107 34.1495 46.7422 30.4821 55.9614 24.981C63.3368 20.5801 79.9313 10.9226 87.3067 6.64399C93.5993 2.99349 109.796 -2.89498 124.183 6.64399C141.884 18.3797 151.226 23.7585 153.685 24.981C158.386 27.3185 168.067 34.1495 181.342 34.1495C192.435 34.1495 200.165 29.9168 203.468 24.981C207.095 19.5617 209 11.7783 209 2.9766C209 -5.82516 209 -26.6155 209 -39.4514" stroke="white" stroke-width="8.49824" stroke-linecap="round"/>
</svg>
