<svg width="17" height="16" viewBox="0 0 17 16" fill="none" xmlns="http://www.w3.org/2000/svg">
<g id="Icon" clip-path="url(#clip0_647_767)">
<path id="Vector" d="M16.1668 4.80003C16.1668 4.80003 16.0002 3.70003 15.5335 3.20003C14.9335 2.5667 14.2335 2.5667 13.9335 2.53337C11.7002 2.3667 8.3335 2.3667 8.3335 2.3667C8.3335 2.3667 4.96683 2.3667 2.7335 2.53337C2.4335 2.5667 1.7335 2.5667 1.1335 3.20003C0.666829 3.70003 0.500163 4.80003 0.500163 4.80003C0.500163 4.80003 0.333496 6.10003 0.333496 7.40003V8.60003C0.333496 9.90003 0.500163 11.2 0.500163 11.2C0.500163 11.2 0.666829 12.3 1.1335 12.8C1.7335 13.4334 2.5335 13.4334 2.90016 13.5C4.16683 13.6334 8.3335 13.6667 8.3335 13.6667C8.3335 13.6667 11.7002 13.6667 13.9335 13.5C14.2335 13.4667 14.9335 13.4667 15.5335 12.8334C16.0002 12.3334 16.1668 11.2334 16.1668 11.2334C16.1668 11.2334 16.3335 9.93337 16.3335 8.63337V7.43337C16.3335 6.10003 16.1668 4.80003 16.1668 4.80003ZM6.66683 10.0667V5.5667L11.0002 7.83337L6.66683 10.0667Z" fill="#00C5D7"/>
</g>
<defs>
<clipPath id="clip0_647_767">
<rect width="16" height="16" fill="white" transform="translate(0.333496)"/>
</clipPath>
</defs>
</svg>
