<svg width="209" height="87" viewBox="0 0 209 87" fill="none" xmlns="http://www.w3.org/2000/svg">
<path d="M6.49976 -46V38.7096C6.49976 49.8096 11.6697 62.2209 16.5207 68.6072C22.7545 76.8138 31.5521 81.0644 44.0783 81.0644C56.6045 81.0644 64.1202 76.0815 76.6464 68.6072C86.6673 62.6277 109.214 49.506 119.235 43.6926C127.785 38.7326 149.792 30.7319 169.34 43.6926C193.39 59.6379 206.084 66.9462 209.424 68.6072C215.811 71.7831 228.965 81.0644 247.002 81.0644C262.074 81.0644 272.578 75.3136 277.065 68.6072C281.993 61.244 284.581 50.6686 284.581 38.7096C284.581 26.7506 284.581 -1.49737 284.581 -18.9376" stroke="white" stroke-width="11.5466" stroke-linecap="round"/>
</svg>
