<svg width="101" height="100" viewBox="0 0 101 100" fill="none" xmlns="http://www.w3.org/2000/svg">
<path d="M18.4169 94.7738C17.6311 94.7738 16.9883 94.131 16.9883 93.3452V66.0119C16.9883 65.2262 17.6311 64.5834 18.4169 64.5834H32.393L31.4168 62.75C31.0359 62.0357 30.6311 61.3214 30.1549 60.6071C27.7978 57.0119 27.1549 52.6786 28.2978 48.4167C29.6073 43.6072 33.393 39.7262 38.2025 38.2738C38.6073 38.1548 38.9644 38.1072 39.274 38.0595C39.4406 38.0357 39.5597 38.0119 39.7025 37.9881C39.7978 37.9643 39.893 37.9643 39.9882 37.9643C40.3216 37.9643 40.6549 38.0833 40.893 38.2976C41.2264 38.5833 41.4168 38.9881 41.4168 39.4167V44.4405C41.4168 49.6071 45.6073 53.7976 50.774 53.7976C55.9406 53.7976 60.1311 49.6071 60.1311 44.4405V39.4167C60.1311 38.9881 60.3216 38.5833 60.6549 38.2976C60.9168 38.0833 61.2264 37.9643 61.5597 37.9643C61.6549 37.9643 61.7502 37.9643 61.8454 37.9881C61.9644 38.0119 62.1073 38.0357 62.274 38.0595C62.5597 38.1072 62.9406 38.1548 63.3216 38.2738C68.1311 39.7262 71.9168 43.6072 73.2264 48.4167C74.393 52.6786 73.7264 57.0119 71.3692 60.6071C70.893 61.3214 70.4882 62.0357 70.1073 62.75L69.1311 64.5834H83.1073C83.893 64.5834 84.5359 65.2262 84.5359 66.0119V93.3214C84.5359 94.1072 83.893 94.75 83.1073 94.75H18.4169V94.7738ZM19.8454 91.8929H81.7025V67.4405H68.393L68.3216 68.631C68.2978 69.1786 68.2978 69.7262 68.3454 70.2262C68.6787 73.6548 67.5359 77.0833 65.2263 79.631C62.9168 82.1786 59.6073 83.631 56.1787 83.631C55.393 83.631 54.7502 82.9881 54.7502 82.2024V71.4167C54.7502 69.2262 52.9645 67.4643 50.7978 67.4643C48.6073 67.4643 46.8454 69.25 46.8454 71.4167V82.2024C46.8454 82.9881 46.2025 83.631 45.4168 83.631C41.9883 83.631 38.6787 82.1786 36.3692 79.631C34.0597 77.0833 32.9168 73.6548 33.2501 70.2262C33.2978 69.7024 33.2978 69.1786 33.274 68.631L33.2025 67.4405H19.893V91.8929H19.8454ZM36.6549 42.0357C33.9168 43.6071 31.893 46.2024 31.0835 49.131C30.1549 52.5833 30.6787 56.0834 32.5597 58.9881C35.2502 63.1072 36.393 66.8691 36.0597 70.4643C35.7978 73.131 36.6549 75.7024 38.4406 77.6548C39.4644 78.7976 40.7978 79.6548 42.2502 80.1786L43.9407 80.7738V71.3691C43.9407 67.6072 47.0121 64.5357 50.774 64.5357C54.5359 64.5357 57.6073 67.6072 57.6073 71.3691V80.7738L59.2978 80.1786C60.7502 79.6548 62.0597 78.7976 63.1073 77.6548C64.893 75.6786 65.7502 73.131 65.4883 70.4643C65.1549 66.8691 66.2978 63.1072 68.9883 58.9881C70.893 56.0834 71.4168 52.5833 70.4644 49.131C69.6549 46.1786 67.6311 43.5833 64.893 42.0357L63.012 40.9643V44.4167C63.012 51.1548 57.5359 56.6548 50.774 56.6548C44.0359 56.6548 38.5359 51.1786 38.5359 44.4167V40.9643L36.6549 42.0357Z" fill="#2A3467"/>
<path d="M50.7742 29.6786C44.0361 29.6786 38.5361 24.2024 38.5361 17.4405V6.94047C38.5361 6.24999 39.0123 5.65478 39.7028 5.53573C40.7266 5.32145 41.7742 5.2262 42.798 5.2262C45.3933 5.2262 47.9171 5.89285 50.1314 7.17857L50.7742 7.53571L51.4171 7.17857C53.6313 5.89285 56.1552 5.2262 58.7504 5.2262C59.7742 5.2262 60.8218 5.32145 61.8456 5.53573C62.5123 5.67859 63.0123 6.2738 63.0123 6.94047V17.4405C63.0123 24.2024 57.5123 29.6786 50.7742 29.6786ZM41.4171 8.10714V17.4405C41.4171 22.6072 45.6075 26.7976 50.7742 26.7976C55.9409 26.7976 60.1314 22.6072 60.1314 17.4405V8.10714H58.7742C56.1552 8.10714 53.7028 8.91667 51.6551 10.4881C51.3932 10.6786 51.1076 10.7738 50.798 10.7738C50.4885 10.7738 50.179 10.6786 49.9409 10.4881C47.8933 8.94048 45.4171 8.10714 42.8218 8.10714H41.4171Z" fill="#00C5D7"/>
<path d="M23.7976 35.0833C23.4404 35.0833 23.0357 34.9167 22.7738 34.6548L17.369 29.25C16.7976 28.6786 16.7976 27.7738 17.369 27.2262C17.6309 26.9643 18.0119 26.7976 18.3928 26.7976C18.7738 26.7976 19.1309 26.9405 19.4166 27.2262L22.3452 30.1548V22.8452C22.3452 22.0595 22.9881 21.4167 23.7738 21.4167C24.5595 21.4167 25.2024 22.0595 25.2024 22.8452V30.1548L28.1309 27.2262C28.3928 26.9643 28.7738 26.7976 29.1547 26.7976C29.5357 26.7976 29.8928 26.9405 30.1785 27.2262C30.4404 27.4881 30.6071 27.869 30.6071 28.25C30.6071 28.6309 30.4643 28.9881 30.1785 29.2738L24.7738 34.6786C24.5595 34.9167 24.1785 35.0833 23.7976 35.0833Z" fill="#00C5D7"/>
<path d="M77.7497 35.0833C77.3688 35.0833 76.9878 34.9167 76.7259 34.6548L71.3211 29.25C70.7497 28.6786 70.7497 27.7738 71.3211 27.2262C71.5831 26.9643 71.964 26.7976 72.345 26.7976C72.7259 26.7976 73.083 26.9405 73.3687 27.2262L76.2973 30.1548V22.8452C76.2973 22.0595 76.9402 21.4167 77.7259 21.4167C78.5116 21.4167 79.1545 22.0595 79.1545 22.8452V30.1548L82.083 27.2262C82.3449 26.9643 82.7259 26.7976 83.1069 26.7976C83.4878 26.7976 83.845 26.9405 84.1307 27.2262C84.7021 27.7976 84.7021 28.7024 84.1307 29.25L78.7259 34.6548C78.4878 34.9167 78.1069 35.0833 77.7497 35.0833Z" fill="#00C5D7"/>
</svg>
