<svg width="180" height="180" viewBox="0 0 180 180" fill="none" xmlns="http://www.w3.org/2000/svg">
<g id="t&#195;&#173;ch xanh 1" clip-path="url(#clip0_5_1275)">
<path id="Vector" d="M26.2586 153.639C34.4885 161.901 44.0811 168.39 54.7495 172.926C65.8034 177.624 77.5476 180 89.6504 180C101.753 180 113.488 177.624 124.551 172.926C135.229 168.39 144.812 161.901 153.042 153.639C161.272 145.377 167.736 135.747 172.254 125.037C176.934 113.94 179.301 102.15 179.301 90C179.301 80.289 177.768 70.74 174.746 61.605C173.769 58.662 170.605 57.069 167.673 58.041C164.742 59.022 163.155 62.199 164.123 65.142C166.768 73.125 168.103 81.486 168.103 89.991C168.103 111.033 159.945 130.806 145.126 145.683C130.307 160.56 110.602 168.75 89.6504 168.75C68.6991 168.75 48.9939 160.56 34.1747 145.683C19.3555 130.806 11.1973 111.024 11.1973 89.991C11.1973 68.958 19.3555 49.176 34.1747 34.299C48.9939 19.422 68.6991 11.232 89.6504 11.232C103.358 11.232 116.85 14.832 128.666 21.645C131.347 23.193 134.762 22.266 136.304 19.575C137.846 16.884 136.923 13.455 134.242 11.907C120.732 4.122 105.312 0 89.6504 0C77.5476 0 65.8123 2.376 54.7495 7.074C44.0721 11.61 34.4885 18.099 26.2586 26.361C18.0287 34.623 11.5649 44.253 7.04652 54.963C2.36677 66.069 0 77.85 0 90C0 102.15 2.36677 113.931 7.04652 125.037C11.5649 135.756 18.0287 145.377 26.2586 153.639Z" fill="#5AB069"/>
<path id="Vector_2" d="M73.101 104.013C73.101 104.013 61.052 96.3269 46.4928 84.5279C43.3729 81.9989 38.7739 82.5659 36.3712 85.7879C34.623 88.1279 34.4796 91.3049 36.0037 93.7979C43.3729 105.813 56.0943 124.767 65.9379 137.214C70.5818 143.091 78.8207 143.631 84.2445 138.474C115.407 108.783 144.337 71.3159 178.969 19.4489C180.977 16.4429 179.964 12.3479 176.791 10.6379C174.361 9.33292 171.358 9.81892 169.466 11.8259C131.042 52.6679 111.337 72.0809 73.11 104.013H73.101Z" fill="#5AB069"/>
</g>
<defs>
<clipPath id="clip0_5_1275">
<rect width="180" height="180" fill="white"/>
</clipPath>
</defs>
</svg>
