<svg width="101" height="100" viewBox="0 0 101 100" fill="none" xmlns="http://www.w3.org/2000/svg">
<path d="M31.0385 51.1192C30.3017 62.1724 30.4859 75.6204 35.644 76.5415C39.3284 77.2784 46.1446 73.594 48.9079 60.8828C48.9079 60.8828 48.9079 60.8828 48.9079 60.6986C49.0921 59.409 50.0132 58.6722 51.3027 58.1195C51.4869 58.1195 51.8553 58.1195 52.0395 58.3037C53.1449 59.2248 53.6975 60.3301 53.3291 61.6197C51.3027 74.5151 56.2767 80.2259 59.9611 80.9628C60.1453 80.9628 60.3295 80.9628 60.5137 80.9628C65.3034 80.9628 70.2774 69.1727 73.4091 58.8564C73.5933 58.4879 73.7775 58.3037 73.9617 57.9353C77.2777 54.6193 87.7783 43.1977 82.0675 32.1445C77.0935 22.3808 69.9089 22.9335 63.277 24.4073L64.5666 17.7754L70.2773 18.8807C70.83 19.0649 71.3827 18.6964 71.5669 18.328C71.9353 17.9596 71.9353 17.2227 71.5669 16.8543L62.7244 3.95888C62.5402 3.59044 62.1717 3.40619 61.8033 3.40619C61.4348 3.40619 61.0664 3.4062 60.8822 3.59042L47.9868 12.433C47.6183 12.8014 47.2498 13.3541 47.434 13.7225C47.6183 14.2752 47.9868 14.6436 48.5394 14.8278L54.2502 15.9332L52.9606 22.3809C47.434 18.6965 41.1706 16.1174 33.0649 23.1177C23.6697 31.4076 29.1963 45.7768 31.0385 50.0138C30.8543 50.3823 31.0385 50.7507 31.0385 51.1192ZM55.5398 13.7225L51.8554 12.9856L61.0663 6.72218L67.3299 15.9332L63.6455 15.1963C62.9086 15.0121 62.1716 15.5647 62.1716 16.3016L60.5137 25.5126C59.5926 25.6968 58.8557 25.881 57.9346 26.0653C57.1977 25.5126 56.2766 24.96 55.5398 24.4073L55.3556 24.2231L57.0135 15.3805C56.8293 14.4594 56.2766 13.9067 55.5398 13.7225ZM34.5386 25.1442C42.2759 18.328 47.6183 22.1966 53.6976 26.4337C53.6976 26.4337 53.8817 26.4337 53.8817 26.6179C52.408 26.8021 50.75 26.8021 49.2762 26.4337C48.5394 26.2494 47.8025 26.8021 47.8025 27.539C47.6183 28.2759 48.171 29.0128 48.9079 29.0128C51.8554 29.5655 54.8029 29.197 57.7504 28.6443C58.8557 28.4601 60.1452 28.0917 61.2505 27.9075C68.6193 26.0653 74.8828 24.5915 79.6725 33.6183C84.6465 43.3819 74.3302 54.2509 72.1195 56.2773C71.5669 56.83 71.1984 57.5669 70.83 58.3037C66.5929 71.3833 62.3558 78.7521 60.3294 78.3837C58.1188 78.0153 54.066 73.2255 55.9082 61.9881C56.2767 59.7775 55.5398 57.7511 53.5134 56.0931C52.5923 55.3562 51.4869 55.172 50.3816 55.5404C47.9868 56.2773 46.513 57.7511 46.1446 59.9617C43.7497 71.1991 38.2231 73.9624 36.0125 73.594C34.1703 73.2255 32.6964 64.7514 33.6175 51.1192C33.6175 50.3823 33.4334 49.4612 33.2492 48.9085C31.9597 46.3294 26.2487 32.3287 34.5386 25.1442Z" fill="#00C5D7"/>
<path fill-rule="evenodd" clip-rule="evenodd" d="M48.9079 60.8828C46.1446 73.594 39.3284 77.2784 35.644 76.5415C30.4859 75.6204 30.3017 62.1724 31.0385 51.1192C31.0385 50.9964 31.0181 50.8736 30.9976 50.7507C30.9567 50.5051 30.9157 50.2595 31.0385 50.0138C29.1963 45.7768 23.6697 31.4076 33.0649 23.1177C41.066 16.2077 47.272 18.6315 52.7462 22.2388C52.8178 22.2859 52.8893 22.3333 52.9606 22.3809L54.2502 15.9332L48.5394 14.8278C47.9868 14.6436 47.6183 14.2752 47.434 13.7225C47.2498 13.3541 47.6183 12.8014 47.9868 12.433L60.8822 3.59042C61.0664 3.4062 61.4348 3.40619 61.8033 3.40619C62.1717 3.40619 62.5402 3.59044 62.7244 3.95888L71.5669 16.8543C71.9353 17.2227 71.9353 17.9596 71.5669 18.328C71.3827 18.6964 70.83 19.0649 70.2773 18.8807L64.5666 17.7754L63.277 24.4073C63.3614 24.3885 63.4459 24.3699 63.5304 24.3515C70.0914 22.9211 77.1568 22.5051 82.0675 32.1445C87.7783 43.1977 77.2777 54.6193 73.9617 57.9353C73.8696 58.1195 73.7775 58.2577 73.6854 58.3958C73.5933 58.534 73.5012 58.6722 73.4091 58.8564C70.2774 69.1727 65.3034 80.9628 60.5137 80.9628H59.9611C56.2767 80.2259 51.3027 74.5151 53.3291 61.6197C53.6975 60.3301 53.1449 59.2248 52.0395 58.3037C51.8553 58.1195 51.4869 58.1195 51.3027 58.1195C50.0132 58.6722 49.0921 59.409 48.9079 60.6986V60.8828ZM49.146 60.7158V60.9084L49.1405 60.9334C47.7516 67.3226 45.3387 71.4682 42.7866 73.9266C40.2398 76.38 37.5403 77.1625 35.5997 76.7754C34.2007 76.5245 33.1741 75.4287 32.429 73.8359C31.6824 72.2397 31.1949 70.0982 30.8943 67.659C30.2931 62.7797 30.4321 56.6401 30.8004 51.1117C30.7998 51.0405 30.7908 50.9652 30.7774 50.8796C30.7734 50.8539 30.7687 50.8259 30.7638 50.7966C30.7532 50.7325 30.7415 50.6622 30.7332 50.596C30.7116 50.423 30.7046 50.2228 30.7795 50.0149C29.8424 47.8471 28.0349 43.2276 27.6004 38.1057C27.1595 32.9071 28.1315 27.1532 32.9074 22.9392L32.9093 22.9375C36.9988 19.4057 40.6509 18.2694 43.9967 18.505C47.2121 18.7315 50.1082 20.2234 52.7966 21.9869L53.9697 16.1214L48.4789 15.0586L48.4641 15.0537C47.8453 14.8474 47.4228 14.4283 47.2131 13.8126C47.0808 13.5296 47.1673 13.2169 47.2902 12.9713C47.4204 12.7109 47.6229 12.4602 47.8184 12.2646L47.834 12.2491L60.7315 3.40503C60.8767 3.27063 61.0689 3.21796 61.24 3.19352C61.4181 3.16807 61.6165 3.16808 61.7939 3.16809L61.8033 3.16809C62.2437 3.16809 62.697 3.38716 62.9295 3.83705L71.7516 16.7027C71.9791 16.9407 72.0813 17.275 72.0813 17.5911C72.0813 17.9024 71.9822 18.2313 71.762 18.4686C71.6404 18.6908 71.4248 18.8956 71.1668 19.0246C70.8961 19.1599 70.5601 19.2207 70.2177 19.1117L64.7549 18.0543L63.5799 24.0971C66.7947 23.4019 70.1675 22.9501 73.3575 23.8324C76.6802 24.7514 79.768 27.1065 82.2792 32.0356C85.1831 37.6565 83.9561 43.3608 81.6126 48.0478C79.282 52.709 75.8308 56.4004 74.1569 58.0768C74.0641 58.257 73.9715 58.396 73.8854 58.525L73.8835 58.5279C73.7946 58.6613 73.7128 58.7844 73.631 58.9452C72.0639 64.1043 70.0347 69.6384 67.7938 73.8892C66.6724 76.0164 65.4921 77.8336 64.2825 79.1223C63.0779 80.4056 61.81 81.2009 60.5137 81.2009H59.9375L59.9144 81.1962C56.0366 80.4207 51.0606 74.5216 53.0939 61.5827L53.0961 61.5683L53.1002 61.5543C53.4335 60.3877 52.95 59.3724 51.8871 58.4866L51.8788 58.4797L51.8712 58.4721C51.8318 58.4328 51.7536 58.3977 51.632 58.3774C51.5352 58.3613 51.4361 58.3583 51.3516 58.3577C50.1207 58.8932 49.3158 59.574 49.146 60.7158ZM55.592 13.4902L55.5975 13.4915C56.4307 13.6998 57.0462 14.3298 57.247 15.3338L57.256 15.379L55.6127 24.1435L55.6961 24.2269C56.0549 24.4952 56.4587 24.7645 56.8692 25.0382L56.8724 25.0403C57.2533 25.2942 57.6401 25.5521 57.9915 25.8109C58.4083 25.7263 58.7893 25.6417 59.1725 25.5565L59.1734 25.5563C59.5395 25.4749 59.9076 25.3931 60.308 25.3113L61.9337 16.2793C61.9482 15.3911 62.8292 14.7506 63.6975 14.9639L66.8055 15.5855L61.0033 7.05295L52.4585 12.8635L55.592 13.4902ZM51.8554 12.9856L61.0663 6.72218L67.3299 15.9332L63.6455 15.1963C62.9086 15.0121 62.1716 15.5647 62.1716 16.3016L60.5137 25.5126C60.0532 25.6047 59.6386 25.6968 59.2241 25.7889C58.8096 25.881 58.3951 25.9732 57.9346 26.0653C57.5661 25.7889 57.1517 25.5126 56.7372 25.2363C56.3227 24.96 55.9082 24.6836 55.5398 24.4073L55.3556 24.2231L57.0135 15.3805C56.8293 14.4594 56.2766 13.9067 55.5398 13.7225L51.8554 12.9856ZM34.696 25.3228L34.6946 25.3241C30.6374 28.8403 29.9892 34.0369 30.5381 38.7257C31.0866 43.4109 32.8255 47.5287 33.4622 48.802L33.4697 48.8172L33.4751 48.8332C33.6659 49.4058 33.8556 50.3525 33.8556 51.1192V51.1272L33.8551 51.1352C33.3952 57.9412 33.5339 63.4518 34.015 67.301C34.2558 69.2271 34.5812 70.7273 34.9555 71.7629C35.1429 72.2814 35.3387 72.6727 35.535 72.941C35.7322 73.2105 35.91 73.3294 36.0558 73.3598C37.054 73.5238 38.9116 72.9819 40.8373 70.9656C42.7561 68.9564 44.7198 65.5016 45.9106 59.9173C46.2982 57.6035 47.8502 56.071 50.3089 55.3137C51.4885 54.9214 52.6775 55.1194 53.6621 55.9072L53.6642 55.9088C55.7518 57.6169 56.5265 59.7266 56.1431 62.0273C55.2273 67.6142 55.7807 71.575 56.8201 74.1734C57.3399 75.4729 57.9802 76.4295 58.6171 77.0802C59.2571 77.7341 59.8816 78.0677 60.3686 78.1488L60.3703 78.1491L60.372 78.1494C60.5469 78.1812 60.7748 78.1346 61.0657 77.9592C61.3554 77.7845 61.6855 77.4949 62.0511 77.0829C62.7818 76.2595 63.6236 74.9826 64.5409 73.2741C66.374 69.86 68.4875 64.7624 70.6035 58.2304L70.609 58.2133L70.626 58.1793C70.988 57.4552 71.3711 56.689 71.9512 56.109L71.9548 56.1053L71.9587 56.1018C73.0518 55.0997 76.1633 51.8967 78.3801 47.7373C80.5983 43.5752 81.8951 38.5077 79.4613 33.7282C77.0927 29.2651 74.3848 27.436 71.3884 26.9217C68.3615 26.4021 65.0053 27.2142 61.3083 28.1384L61.299 28.1408L61.2897 28.1423C60.7456 28.233 60.1544 28.3693 59.554 28.5079L59.5497 28.5089C58.9549 28.6461 58.3512 28.7855 57.7919 28.8788C54.8461 29.431 51.87 29.8061 48.8848 29.2507C48.0047 29.2358 47.368 28.3703 47.5647 27.5096C47.5838 26.6232 48.4662 25.9857 49.334 26.2027C50.5887 26.5163 51.9884 26.5574 53.2925 26.4415C50.343 24.3853 47.6076 22.491 44.6908 21.877C41.7173 21.251 38.5215 21.9528 34.696 25.3228ZM53.6563 26.4049C53.5994 26.3653 53.5426 26.3257 53.4859 26.2861C47.4938 22.1081 42.186 18.4073 34.5386 25.1442C26.2487 32.3287 31.9597 46.3294 33.2492 48.9085C33.4334 49.4612 33.6175 50.3823 33.6175 51.1192C32.6964 64.7514 34.1703 73.2255 36.0125 73.594C38.2231 73.9624 43.7497 71.1991 46.1446 59.9617C46.513 57.7511 47.9868 56.2773 50.3816 55.5404C51.4869 55.172 52.5923 55.3562 53.5134 56.0931C55.5398 57.7511 56.2767 59.7775 55.9082 61.9881C54.066 73.2255 58.1188 78.0153 60.3294 78.3837C62.3558 78.7521 66.5929 71.3833 70.83 58.3037C71.1984 57.5669 71.5669 56.83 72.1195 56.2773C74.3302 54.2509 84.6465 43.3819 79.6725 33.6183C74.8828 24.5915 68.6193 26.0653 61.2505 27.9075C60.6979 27.9996 60.0992 28.1377 59.5005 28.2759C58.9018 28.4141 58.3031 28.5522 57.7504 28.6443C54.8029 29.197 51.8554 29.5655 48.9079 29.0128C48.171 29.0128 47.6183 28.2759 47.8025 27.539C47.8025 26.8021 48.5394 26.2494 49.2762 26.4337C50.6546 26.7783 52.1942 26.8006 53.5934 26.6513C53.6142 26.6491 53.6349 26.6468 53.6556 26.6445C53.6696 26.643 53.6835 26.6414 53.6975 26.6399C53.6975 26.6399 53.6975 26.6399 53.6975 26.6399C53.7592 26.6329 53.8206 26.6255 53.8817 26.6179C53.8817 26.5958 53.8791 26.5763 53.8744 26.5591C53.8401 26.4337 53.6976 26.4337 53.6976 26.4337C53.6838 26.4241 53.67 26.4145 53.6563 26.4049Z" fill="#00C5D7"/>
<path d="M91.6464 64.7364H87.0409C81.5143 64.7364 76.7247 68.2366 75.2509 73.3948C72.1192 84.0796 61.9871 91.6326 50.7497 91.6326C39.5123 91.6326 29.3801 84.0796 26.2484 73.3948C24.7746 68.4209 19.9849 64.7364 14.4583 64.7364H9.85285C9.11597 64.7364 8.56329 65.2891 8.56329 66.026C8.56329 66.7629 9.11597 67.3156 9.85285 67.3156H14.4583C18.6954 67.3156 22.564 70.0788 23.6693 73.9474C27.1695 85.9217 38.4069 94.2116 50.7497 94.2116C63.0924 94.2116 74.3297 85.9217 77.8299 73.9474C78.9352 70.0788 82.8038 67.3156 87.0409 67.3156H91.6464C92.3833 67.3156 92.936 66.7629 92.936 66.026C92.936 65.4733 92.3833 64.7364 91.6464 64.7364Z" fill="#2A3467"/>
<path fill-rule="evenodd" clip-rule="evenodd" d="M77.8299 73.9474C74.3297 85.9217 63.0924 94.2116 50.7497 94.2116C38.4069 94.2116 27.1695 85.9217 23.6693 73.9474C22.564 70.0788 18.6954 67.3156 14.4583 67.3156H9.85285C9.11597 67.3156 8.56329 66.7629 8.56329 66.026C8.56329 65.2891 9.11597 64.7364 9.85285 64.7364H14.4583C19.9849 64.7364 24.7746 68.4209 26.2484 73.3948C29.3801 84.0796 39.5123 91.6326 50.7497 91.6326C61.9871 91.6326 72.1192 84.0796 75.2509 73.3948C76.7247 68.2366 81.5143 64.7364 87.0409 64.7364H91.6464C92.3833 64.7364 92.936 65.4733 92.936 66.026C92.936 66.7629 92.3833 67.3156 91.6464 67.3156H87.0409C82.8038 67.3156 78.9352 70.0788 77.8299 73.9474ZM75.0222 73.3285C71.9203 83.9104 61.8823 91.3945 50.7497 91.3945C39.6169 91.3945 29.5785 83.9101 26.4768 73.3278L26.4766 73.3272C24.9728 68.2516 20.0898 64.4984 14.4583 64.4984H9.85285C8.98448 64.4984 8.3252 65.1576 8.3252 66.026C8.3252 66.8944 8.98448 67.5537 9.85285 67.5537H14.4583C18.5985 67.5537 22.3668 70.2552 23.4404 74.0128L23.4408 74.0142C26.971 86.0911 38.3023 94.4497 50.7497 94.4497C63.1971 94.4497 74.5283 86.0911 78.0584 74.0142L78.0588 74.0128C79.1324 70.2552 82.9007 67.5537 87.0409 67.5537H91.6464C92.5148 67.5537 93.1741 66.8944 93.1741 66.026C93.1741 65.678 93.0046 65.3008 92.7437 65.0138C92.4799 64.7236 92.0974 64.4984 91.6464 64.4984H87.0409C81.4137 64.4984 76.5269 68.0635 75.0222 73.3285Z" fill="#2A3467"/>
</svg>
