<svg width="101" height="100" viewBox="0 0 101 100" fill="none" xmlns="http://www.w3.org/2000/svg">
<path d="M79.5101 73C77.7006 73 76.7721 71.3809 75.5816 68.9048C74.5578 66.7857 73.3911 64.381 70.8673 64.381C68.3435 64.381 67.1768 66.7857 66.153 68.9048C64.9625 71.3809 64.0339 73 62.2244 73C60.1054 73 58.4387 70.6905 57.3911 68.9524C54.653 64.5 52.6768 57.9762 51.9387 55.3571L50.7244 51.0238L49.5101 55.3571C48.7721 57.9524 46.7958 64.4762 44.0577 68.9524C42.9863 70.6905 41.3435 73 39.2244 73C37.4149 73 36.4864 71.3809 35.2959 68.9048C34.2721 66.7857 33.1054 64.381 30.5816 64.381C28.0578 64.381 26.8911 66.7857 25.8673 68.9048C24.6768 71.3809 23.7482 73 21.9387 73C19.8197 73 18.153 70.6905 17.1054 68.9524C13.8673 63.6667 11.3911 55.1905 10.2482 49.5476L10.0339 48.5476H7.4149C6.62919 48.5476 5.98633 47.9048 5.98633 47.119C5.98633 46.3333 6.62919 45.6905 7.4149 45.6905H9.58159L9.41488 44.2857C9.15297 42.2143 9.03396 40.2619 9.03396 38.5C9.03396 32.1429 14.2006 27 20.534 27C24.3911 27 26.7482 28.2381 28.2958 29.0476C29.2244 29.5238 29.8673 29.881 30.6054 29.881C31.3434 29.881 31.9864 29.5238 32.9149 29.0476C34.4625 28.2381 36.8196 27 40.6768 27C44.2482 27 47.5578 28.6191 49.7482 31.4524L50.7482 32.7143L51.7482 31.4524C53.9625 28.6191 57.2482 27 60.8197 27C64.6768 27 67.0339 28.2381 68.5815 29.0476C69.5101 29.5238 70.153 29.881 70.8911 29.881C71.6292 29.881 72.2721 29.5238 73.2006 29.0476C74.7482 28.2381 77.1054 27 80.9625 27C87.3196 27 92.4625 32.1667 92.4625 38.5C92.4625 40.2619 92.3435 42.1905 92.0816 44.2857L91.9149 45.6905H94.0816C94.8673 45.6905 95.5101 46.3333 95.5101 47.119C95.5101 47.9048 94.8673 48.5476 94.0816 48.5476H91.4149L91.2006 49.5476C90.0577 55.1905 87.5816 63.6667 84.3435 68.9524C83.2959 70.6905 81.653 73 79.5101 73ZM13.3434 50.0714C13.9387 52.7857 14.6768 55.5 15.5577 58.1429C17.8435 65.0476 19.8911 68.0476 20.6768 69L21.8911 70.5238L22.772 68.7857C22.9387 68.4762 23.0815 68.1429 23.2244 67.881C24.4387 65.3333 26.2959 61.5 30.6292 61.5C34.9387 61.5 36.7482 65.2381 38.0816 67.9524C38.2244 68.2381 38.3673 68.5238 38.4863 68.7857L39.3673 70.5238L40.5816 69C41.3673 68.0476 43.4149 65.0476 45.7006 58.1429C46.5816 55.5 47.3197 52.7857 47.9149 50.0714L48.2482 48.5476H37.8196V52.8571C37.8196 53.6429 37.1768 54.2857 36.3911 54.2857H24.8911C24.1054 54.2857 23.4625 53.6429 23.4625 52.8571V48.5476H13.034L13.3434 50.0714ZM70.8911 61.4762C75.2006 61.4762 77.0101 65.2143 78.3434 67.9286C78.4863 68.2143 78.6292 68.5 78.7483 68.7619L79.6292 70.5L80.8434 68.9762C81.6292 68.0238 83.6768 65.0238 85.9625 58.119C86.8434 55.4762 87.5816 52.7619 88.1768 50.0476L88.5102 48.5238H78.0816V52.8571C78.0816 53.6429 77.4387 54.2857 76.653 54.2857H65.153C64.3673 54.2857 63.7244 53.6429 63.7244 52.8571V48.5476H53.2958L53.6292 50.0714C54.2244 52.7857 54.9625 55.5 55.8434 58.1429C58.1292 65.0476 60.1768 68.0476 60.9625 69L62.1768 70.5238L63.0577 68.7857C63.2244 68.4762 63.3673 68.1429 63.5102 67.881C64.7006 65.3333 66.534 61.4762 70.8911 61.4762ZM66.5816 51.4048H75.2006V42.7857H66.5816V51.4048ZM26.2959 51.4048H34.9149V42.7857H26.2959V51.4048ZM76.6292 39.9048C77.4149 39.9048 78.0577 40.5476 78.0577 41.3333V45.6429H88.9625L89.1054 44.5476C89.4149 42.3333 89.5578 40.2857 89.5578 38.4524C89.5578 33.6905 85.6768 29.8333 80.9387 29.8333C77.8197 29.8333 75.9387 30.8095 74.4387 31.5952C73.2244 32.2143 72.272 32.7143 70.8673 32.7143C69.4625 32.7143 68.3435 32.1429 67.1768 31.5238C65.6292 30.7381 63.8911 29.8333 60.7958 29.8333C56.0339 29.8333 52.1768 33.7143 52.1768 38.4524C52.1768 40.2857 52.3196 42.3333 52.6292 44.5476L52.772 45.6429H63.6768V41.3333C63.6768 40.5476 64.3197 39.9048 65.1054 39.9048H76.6292ZM36.3673 39.9048C37.153 39.9048 37.7959 40.5476 37.7959 41.3333V45.6429H48.7006L48.8435 44.5476C49.153 42.3333 49.2958 40.2619 49.2958 38.4524C49.2958 33.6905 45.4149 29.8333 40.6768 29.8333C37.5577 29.8333 35.6768 30.8095 34.1768 31.5952C32.9625 32.2143 32.0101 32.7143 30.6054 32.7143C29.2006 32.7143 28.0815 32.1429 26.9149 31.5238C25.3673 30.7381 23.6292 29.8333 20.534 29.8333C15.7721 29.8333 11.9149 33.7143 11.9149 38.4524C11.9149 40.2857 12.0578 42.3333 12.3673 44.5476L12.5101 45.6429H23.4149V41.3333C23.4149 40.5476 24.0577 39.9048 24.8435 39.9048H36.3673Z" fill="#2A3467"/>
<path fill-rule="evenodd" clip-rule="evenodd" d="M10.0379 48.5474H7.41881C6.63309 48.5474 5.99023 47.9045 5.99023 47.1188C5.99023 46.3331 6.63309 45.6903 7.41881 45.6903H9.5855L12.514 45.6426H23.4188V41.3331C23.4188 40.5474 24.0617 39.9045 24.8474 39.9045H36.3712C37.1569 39.9045 37.7998 40.5474 37.7998 41.3331V45.6426H48.7045H52.7759H63.6807V41.3331C63.6807 40.5474 64.3236 39.9045 65.1093 39.9045H76.6331C77.4188 39.9045 78.0617 40.5474 78.0617 41.3331V45.6426H88.9664L91.9188 45.6903H94.0855C94.8712 45.6903 95.514 46.3331 95.514 47.1188C95.514 47.9045 94.8712 48.5474 94.0855 48.5474H91.4188L88.5141 48.5236H78.0855V52.8569C78.0855 53.6426 77.4426 54.2855 76.6569 54.2855H65.1569C64.3712 54.2855 63.7283 53.6426 63.7283 52.8569V48.5474H53.2997H48.2521H37.8236V52.8569C37.8236 53.6426 37.1807 54.2855 36.395 54.2855H24.895C24.1093 54.2855 23.4664 53.6426 23.4664 52.8569V48.5474H13.0379H10.0379ZM75.2044 51.4049H66.5854V42.7859H75.2044V51.4049ZM34.9187 51.4049H26.2997V42.7859H34.9187V51.4049Z" fill="#00C5D7"/>
</svg>
