<svg width="101" height="100" viewBox="0 0 101 100" fill="none" xmlns="http://www.w3.org/2000/svg">
<path d="M6.91685 91.7857C6.13114 91.7857 5.48828 91.1429 5.48828 90.3571V63C5.48828 62.6191 5.65492 62.2381 5.94064 61.9524C7.77397 60.1905 11.8931 57.2381 15.7502 57.2381C18.4883 57.2381 20.6073 58.1191 22.1549 58.881L24.6549 60.1191L23.9168 57.4048C22.3454 51.6667 21.4883 46 21.4883 41.4286C21.4883 37.3095 22.774 33.1429 24.9883 30C27.6311 26.2381 31.5121 24.1667 35.8693 24.1667C39.1788 24.1667 42.0359 25.0476 44.5359 25.8333C46.5597 26.4524 48.4645 27.0477 50.2502 27.0477C52.0359 27.0477 53.8692 26.4762 55.9645 25.8333C56.3454 25.7143 56.7502 25.5953 57.1788 25.4524L57.7026 25.2857L57.9407 24.7857C58.9407 22.7619 61.0121 21.881 63.8454 20.8572C65.4883 20.2619 67.0359 19.7143 67.9168 18.8095C68.8216 17.9048 69.3693 16.4524 70.0359 14.7619C70.6073 13.2857 71.1787 11.7619 72.0121 10.6191C73.0835 9.09527 74.4645 8.33334 76.1311 8.33334C77.7978 8.33334 79.1788 9.09527 80.2502 10.6191C81.0597 11.7857 81.655 13.3095 82.2264 14.7619C82.8692 16.4524 83.4406 17.9048 84.3454 18.8095C85.2502 19.7143 86.7264 20.2619 88.4645 20.9286C89.9645 21.5 91.5121 22.0952 92.6787 22.9048C94.2264 23.9762 95.0121 25.3572 95.0121 27.0238C95.0121 28.6905 94.2264 30.0714 92.6787 31.1429C91.5121 31.9524 89.9645 32.5477 88.4645 33.1191C86.7264 33.7857 85.2264 34.3333 84.3454 35.2381C83.4406 36.1429 82.7978 37.8095 82.1788 39.4048C81.4407 41.3333 80.655 43.3333 79.2502 44.5714L78.8692 44.9048L78.8216 45.4048C78.4883 49.1667 77.6788 53.4286 76.5121 57.6667L75.7025 60.6191L78.3693 59.0715C80.0597 58.0953 82.0121 57.1905 84.774 57.1905C91.3216 57.1905 94.7026 63.4524 94.8454 63.7143C94.9645 63.9286 95.0121 64.1429 95.0121 64.381V90.3095C95.0121 91.0953 94.3692 91.7381 93.5835 91.7381H6.91685V91.7857ZM15.7264 60.0953C13.0121 60.0953 9.98828 62.2857 8.82161 63.2143L8.34542 63.5953V88.881H92.1549V64.7857L91.9407 64.4762C91.0359 63.1667 88.5597 60.0953 84.7978 60.0953C82.2978 60.0953 80.6073 61.1191 78.9883 62.0953C77.8454 62.7857 76.6549 63.5 75.0597 63.9762L74.4645 64.1429L74.2502 64.7381C70.4883 74.6191 65.9406 80.2857 61.774 80.2857C57.9644 80.2857 56.2264 76.4048 54.7026 72.9524C53.2026 69.5477 52.0597 67.3334 50.274 67.3334C48.4645 67.3334 47.3454 69.5477 45.8454 72.9524C44.3216 76.381 42.5835 80.2857 38.774 80.2857C33.0359 80.2857 28.4407 70.4048 26.2264 64.5238L26.0359 64L25.5121 63.8095C24.4407 63.4048 23.4644 62.8572 22.4883 62.3334C20.4883 61.2143 18.4407 60.0953 15.7264 60.0953ZM50.2502 64.4524C54.0597 64.4524 55.7978 68.3333 57.3216 71.7857C58.8216 75.1905 59.9645 77.4048 61.7502 77.4048C64.1788 77.4048 67.5359 73.1429 70.4883 66.2619C73.0597 60.3095 74.9645 53.2619 75.7502 46.9524L75.893 45.8809L74.8454 45.5952C72.1311 44.8333 71.0121 41.881 70.0121 39.2857C69.393 37.6191 68.8454 36.1905 67.9168 35.2857C67.0121 34.3809 65.4406 33.7619 63.7502 33.1191C61.4406 32.2381 59.0597 31.3096 57.9644 29.3096L57.4645 28.4048L56.4645 28.7143C53.5121 29.6191 51.7978 29.9762 50.2026 29.9762C48.3454 29.9762 46.4645 29.5 43.6311 28.619C41.2026 27.8571 38.6787 27.0953 35.8216 27.0953C32.3216 27.0953 29.4407 28.6429 27.2978 31.6905C25.4407 34.3334 24.3216 37.9762 24.3216 41.4762C24.3216 48.119 26.3216 57.3572 29.4407 65.0238C32.4883 72.5715 36.1312 77.4286 38.7264 77.4286C40.5359 77.4286 41.6549 75.2143 43.1549 71.8096C44.7026 68.3334 46.4407 64.4524 50.2502 64.4524ZM76.1311 11.2143C74.4883 11.2143 73.6788 13.2858 72.774 15.6905C72.0835 17.4762 71.2978 19.5 69.9645 20.8572C68.6311 22.1905 66.6073 22.9286 64.8216 23.5714C62.2978 24.4762 60.2978 25.2143 60.2978 27.0477C60.2978 28.6905 62.3692 29.5 64.774 30.4048C66.5597 31.0952 68.5835 31.881 69.9406 33.2143C71.274 34.5476 72.0597 36.5714 72.7502 38.3809C73.6788 40.7857 74.4645 42.881 76.1073 42.881C77.7502 42.881 78.5597 40.8095 79.4645 38.4048C80.1549 36.6191 80.9407 34.5953 82.274 33.2381C83.6311 31.881 85.6073 31.1429 87.5121 30.4286C90.3692 29.3572 92.0835 28.5952 92.0835 27.0714C92.0835 25.5476 90.3454 24.7857 87.5121 23.7143C85.5835 23 83.6073 22.2381 82.274 20.9048C80.9407 19.5714 80.1549 17.5477 79.4645 15.7381C78.5835 13.3096 77.774 11.2143 76.1311 11.2143Z" fill="#2A3467"/>
<path fill-rule="evenodd" clip-rule="evenodd" d="M57.8983 24.7946L57.898 24.7952L57.6591 25.2968L57.6584 25.2985C57.2349 26.3959 57.322 27.8519 57.4178 28.4424L57.4191 28.4505L57.9231 29.3625C58.4763 30.3728 59.3533 31.1104 60.3783 31.7051C61.4031 32.2996 62.5794 32.7533 63.7335 33.1935C64.579 33.5151 65.3926 33.8298 66.1076 34.177C66.8229 34.5242 67.4365 34.9024 67.8835 35.3493L67.8839 35.3498C68.8032 36.2455 69.3476 37.6626 69.9677 39.3323L69.9679 39.3328L69.9916 39.3941C70.4881 40.6828 71.0188 42.0603 71.7631 43.21C72.5085 44.3613 73.471 45.2888 74.8329 45.671L74.8332 45.6711L75.8884 45.9589L75.8962 45.9584C76.2247 45.9384 76.7672 45.8653 77.3309 45.711C77.8937 45.557 78.4828 45.3206 78.9001 44.9713L78.9009 44.9706L79.282 44.6371C80.6971 43.3898 81.4865 41.3776 82.2235 39.4517L82.2365 39.4183C82.5442 38.6255 82.8573 37.8186 83.2055 37.0978C83.5539 36.3766 83.9358 35.7453 84.3794 35.3017L84.3798 35.3013C84.795 34.8749 85.3513 34.5271 86.0107 34.2072C86.67 33.8872 87.4292 33.5965 88.2492 33.2826C88.3262 33.2531 88.4038 33.2234 88.4818 33.1935C89.9804 32.6226 91.5338 32.0254 92.7062 31.212C94.2646 30.1331 95.06 28.7384 95.06 27.0538C95.06 25.3692 94.2646 23.9745 92.7062 22.8956C91.5338 22.0821 89.9803 21.485 88.4817 20.9141L88.3191 20.8517C87.4849 20.532 86.7169 20.2377 86.048 19.914C85.3791 19.5903 84.8122 19.2387 84.3794 18.8058C83.4833 17.9097 82.9152 16.4684 82.2712 14.7749L82.271 14.7744L82.2493 14.7193C81.685 13.2849 81.0927 11.7792 80.2896 10.6219L80.2894 10.6216C79.2102 9.08677 77.8155 8.31567 76.1314 8.31567C74.4475 8.31567 73.0528 9.08665 71.9737 10.6213C71.1727 11.7199 70.6134 13.1669 70.0672 14.5796L69.9919 14.7745C69.9646 14.8437 69.9375 14.9124 69.9106 14.9808L69.908 14.9874C69.277 16.59 68.7415 17.9478 67.8835 18.8058L67.883 18.8063C67.4578 19.243 66.8731 19.5972 66.192 19.9153C65.511 20.2334 64.7371 20.5137 63.9349 20.8042L63.8295 20.8424C60.9994 21.865 58.908 22.751 57.8983 24.7946ZM63.7827 20.9099L63.8295 20.8424L63.6629 20.9534C60.9576 21.9371 58.9697 22.8134 57.9783 24.7417L57.898 24.7952L57.8986 24.9047L57.7029 25.3157C57.3893 26.1281 57.3583 27.1423 57.4026 27.8475C57.3584 27.1423 57.3894 26.1286 57.7029 25.3164L57.8986 24.9055L57.8986 24.9047L57.941 24.8157C57.9532 24.7909 57.9657 24.7662 57.9783 24.7417L57.9789 24.7413C58.9702 22.8144 60.957 21.9382 63.6604 20.9551L63.6629 20.9534C63.7027 20.9389 63.7426 20.9245 63.7827 20.9099ZM94.9917 26.5926C94.8584 25.1309 94.0816 23.9057 92.679 22.9347C91.5124 22.1252 89.9648 21.53 88.4648 20.9586L88.3021 20.8962C86.6347 20.2572 85.2221 19.7159 84.3457 18.8395C83.4409 17.9347 82.8695 16.4823 82.2267 14.7919L82.2063 14.74C81.6411 13.3033 81.0504 11.8018 80.2505 10.649C79.1791 9.12522 77.7981 8.36329 76.1314 8.36329C74.4648 8.36329 73.0838 9.12522 72.0124 10.649C71.215 11.7426 70.6574 13.1849 70.1102 14.6006L70.0362 14.7919C70.008 14.8633 69.9801 14.9343 69.9523 15.0048C69.3226 16.6041 68.7837 17.9729 67.9171 18.8395C67.055 19.7249 65.5546 20.2683 63.9511 20.849L63.8457 20.8871C63.8247 20.8947 63.8036 20.9023 63.7827 20.9099L63.782 20.911C63.8032 20.9033 63.8245 20.8956 63.8458 20.8879L63.9511 20.8497C65.5546 20.269 67.0551 19.7256 67.9172 18.8402C68.7837 17.9737 69.3227 16.6048 69.9524 15.0056C69.9801 14.935 70.0081 14.864 70.0363 14.7926L70.1102 14.6014C70.6575 13.1857 71.215 11.7433 72.0124 10.6498C73.0838 9.12596 74.4648 8.36404 76.1315 8.36404C77.7981 8.36404 79.1791 9.12596 80.2505 10.6498C81.0504 11.8026 81.6411 13.304 82.2063 14.7407L82.2267 14.7926C82.8696 16.4831 83.441 17.9355 84.3458 18.8402C85.2221 19.7166 86.6347 20.258 88.3021 20.8969L88.4648 20.9593C89.9648 21.5307 91.5124 22.1259 92.6791 22.9355C94.0814 23.9063 94.8582 25.1312 94.9917 26.5926ZM57.9531 29.3192L57.9231 29.3625L57.9225 29.2638L57.9531 29.3192ZM72.7643 15.7138L72.7644 15.7134C73.2173 14.5097 73.6442 13.3958 74.1618 12.5823C74.6792 11.7692 75.2797 11.2681 76.077 11.2681C76.8739 11.2681 77.4745 11.7749 77.989 12.5969C78.5037 13.4192 78.9246 14.545 79.3655 15.7605L79.3658 15.7612C80.0554 17.5685 80.8443 19.6027 82.1862 20.9446C83.5281 22.2865 85.5148 23.0515 87.4414 23.7651C88.859 24.3012 89.9966 24.7577 90.7801 25.2692C91.5622 25.7798 91.9817 26.3385 91.9817 27.0775C91.9817 27.8168 91.5679 28.3755 90.789 28.8859C90.0085 29.3974 88.8708 29.854 87.4412 30.3901L87.4157 30.3997C85.5212 31.1101 83.5459 31.8508 82.1862 33.2106L82.1859 33.2109C80.8443 34.5764 80.0555 36.6103 79.3659 38.3937L79.3657 38.3941C78.9129 39.5978 78.486 40.7118 77.9684 41.5252C77.451 42.3383 76.8504 42.8395 76.0532 42.8395C75.2673 42.8395 74.6782 42.3467 74.1684 41.5473C73.6584 40.7474 73.2355 39.6524 72.7789 38.4695L72.7405 38.3701C72.0509 36.5628 71.262 34.5286 69.9202 33.1867L69.9199 33.1864C68.5544 31.8449 66.5205 31.0561 64.737 30.3665L64.7366 30.3663C63.5329 29.9134 62.419 29.4866 61.6055 28.9689C60.7924 28.4515 60.2912 27.851 60.2912 27.0538C60.2912 26.1591 60.7773 25.5292 61.5849 25.0074C62.3948 24.4843 63.52 24.0753 64.7836 23.6224C66.5669 22.9804 68.6017 22.2392 69.944 20.897L69.9443 20.8967C71.2858 19.5312 72.0747 17.4973 72.7643 15.7138ZM92.0281 27.0067C92.0289 27.0301 92.0294 27.0537 92.0294 27.0775C92.0294 28.6014 90.3151 29.3633 87.4579 30.4347L87.4381 30.4421C85.5394 31.1541 83.5723 31.8918 82.2198 33.2442C80.8865 34.6014 80.1008 36.6252 79.4103 38.4109C78.5055 40.8157 77.696 42.8871 76.0532 42.8871C74.4331 42.8871 73.6465 40.8494 72.7345 38.4867L72.696 38.3871C72.0055 36.5775 71.2198 34.5537 69.8865 33.2204C68.5293 31.8871 66.5055 31.1014 64.7198 30.4109C62.374 29.5283 60.3454 28.7364 60.2473 27.1731C60.3448 28.7369 62.3737 29.5289 64.7199 30.4116C66.5056 31.1021 68.5294 31.8878 69.8865 33.2212C71.2199 34.5545 72.0056 36.5783 72.6961 38.3878L72.7345 38.4874C73.6465 40.8501 74.4331 42.8878 76.0532 42.8878C77.6961 42.8878 78.5056 40.8164 79.4103 38.4116C80.1008 36.6259 80.8865 34.6021 82.2199 33.245C83.5723 31.8926 85.5395 31.1549 87.4381 30.4429L87.458 30.4355C90.3151 29.364 92.0294 28.6021 92.0294 27.0783C92.0294 27.0542 92.0289 27.0304 92.0281 27.0067Z" fill="#00C5D7"/>
<path fill-rule="evenodd" clip-rule="evenodd" d="M16.5014 12.4369C16.8292 11.9198 17.4725 11.1905 18.5575 11.1905C19.6506 11.1905 20.2938 11.9326 20.6179 12.4524C20.9357 12.962 21.1669 13.6019 21.3452 14.0951C21.6686 14.9453 21.915 15.5121 22.2383 15.8367C22.5587 16.1583 23.103 16.3977 23.9998 16.7312L24.0044 16.7329L24.009 16.7346C24.5921 16.9559 25.2428 17.2077 25.7396 17.5333C26.28 17.8874 26.9167 18.5179 26.9167 19.5342C26.9167 20.5436 26.2909 21.175 25.7456 21.5337C25.2477 21.8612 24.5955 22.1131 24.0053 22.3352C23.1077 22.6731 22.5726 22.899 22.2428 23.2272C21.9115 23.5686 21.6648 24.144 21.3411 24.984L21.3306 25.0121C21.1503 25.4931 20.9171 26.1156 20.6032 26.6107C20.2754 27.1278 19.6321 27.8572 18.5471 27.8572C17.4513 27.8572 16.8113 27.1111 16.4905 26.5985C16.1957 26.1274 15.9681 25.5339 15.7907 25.0713C15.7787 25.0399 15.7669 25.0092 15.7553 24.9791L15.7543 24.9764L15.7533 24.9738C15.4292 24.1214 15.1829 23.5524 14.8603 23.2257C14.5209 22.8938 13.9491 22.6468 13.1125 22.322C13.1031 22.3184 13.0937 22.3149 13.0843 22.3113C12.6052 22.1305 11.9842 21.8961 11.4901 21.5805C10.9719 21.2495 10.25 20.605 10.25 19.5238C10.25 18.4658 10.8841 17.7971 11.4729 17.4154C11.9753 17.0896 12.6119 16.8608 13.1041 16.6839C13.1228 16.6772 13.1412 16.6705 13.1595 16.664C14.002 16.3595 14.5492 16.1313 14.8619 15.8203C15.1932 15.479 15.4399 14.9035 15.7636 14.0636C15.767 14.0543 15.7705 14.0449 15.7741 14.0355C15.9543 13.5545 16.1875 12.9321 16.5014 12.4369ZM18.5504 14.7718C18.5142 14.866 18.4766 14.9659 18.4366 15.0725L18.4344 15.0786L18.432 15.0846C18.4212 15.1128 18.4101 15.1417 18.3987 15.1713C18.1233 15.8886 17.6908 17.0148 16.8993 17.8235L16.8948 17.828L16.8904 17.8325C16.0755 18.6505 14.9237 19.0653 14.2102 19.3223C14.1826 19.3322 14.1557 19.3419 14.1295 19.3514L14.1277 19.3521C13.9811 19.4048 13.849 19.4526 13.728 19.498C13.8505 19.5463 13.983 19.5966 14.128 19.6514L14.1341 19.6537L14.1402 19.656C14.1682 19.6669 14.197 19.6781 14.2265 19.6895C14.9413 19.966 16.0647 20.4007 16.8711 21.1959L16.8756 21.2003L16.88 21.2048C17.6864 22.0142 18.1204 23.1583 18.3963 23.8857C18.4054 23.9096 18.4142 23.933 18.423 23.9559C18.4233 23.9568 18.4236 23.9577 18.4239 23.9585L18.4347 23.9865C18.4756 24.0928 18.5138 24.1921 18.5504 24.2857C18.5878 24.1887 18.6266 24.0855 18.668 23.9752L18.6702 23.9691L18.6726 23.963C18.6834 23.9349 18.6945 23.906 18.7059 23.8764C18.9814 23.159 19.4138 22.0329 20.2054 21.2242L20.2098 21.2197L20.2142 21.2152C21.0255 20.4009 22.1387 19.9836 22.8936 19.7007C22.9295 19.6872 22.9646 19.6741 22.9988 19.6612C23.1175 19.6165 23.2276 19.5746 23.3299 19.5347C23.2278 19.4946 23.118 19.4525 22.9996 19.4075C22.9858 19.4024 22.9718 19.3972 22.9578 19.392C22.1792 19.1028 21.0359 18.678 20.2142 17.8532C19.4079 17.0439 18.9739 15.8997 18.698 15.1723C18.6886 15.1475 18.6794 15.1232 18.6703 15.0995L18.6661 15.0885L18.6621 15.0774C18.623 14.9691 18.5861 14.8676 18.5504 14.7718ZM24.222 19.958C24.222 19.958 24.2218 19.9578 24.2213 19.9574C24.2218 19.9578 24.222 19.958 24.222 19.958ZM24.2207 19.114C24.2213 19.1135 24.2216 19.1133 24.2216 19.1133C24.2216 19.1133 24.2213 19.1135 24.2207 19.114ZM12.9804 19.8465C12.9804 19.8465 12.9805 19.8464 12.9808 19.8461C12.9805 19.8464 12.9804 19.8465 12.9804 19.8465Z" fill="#00C5D7"/>
<path fill-rule="evenodd" clip-rule="evenodd" d="M38.4462 34.6717C38.8559 34.0254 39.5956 33.2143 40.8098 33.2143C42.0321 33.2143 42.7718 34.0391 43.1774 34.6896C43.5768 35.3302 43.8746 36.1491 44.1219 36.8333C44.5542 37.97 44.9242 38.8558 45.457 39.3906C45.9871 39.9227 46.8422 40.2825 48.0424 40.7286L48.047 40.7303L48.0516 40.7321C48.8575 41.038 49.688 41.3622 50.3089 41.7691C50.9734 42.2044 51.6784 42.9252 51.6784 44.0617C51.6784 45.1915 50.9852 45.9131 50.3163 46.3531C49.6948 46.7619 48.8628 47.0861 48.0479 47.3928C46.85 47.8437 46.0046 48.1861 45.4615 48.7284C44.9207 49.2837 44.5505 50.178 44.1178 51.301L44.1108 51.3196C43.8596 51.99 43.5578 52.795 43.1594 53.4235C42.7497 54.0698 42.01 54.881 40.7958 54.881C39.5707 54.881 38.8352 54.0522 38.4329 53.4094C38.0593 52.8123 37.7662 52.0488 37.5199 51.4072C37.505 51.3685 37.4903 51.3301 37.4758 51.2924L37.4748 51.2897L37.4738 51.2871C37.0409 50.1483 36.671 49.2602 36.1389 48.7232C35.5864 48.1812 34.697 47.8101 33.5783 47.3758L33.5596 47.3688C32.8919 47.1166 32.089 46.8135 31.4621 46.413C30.8151 45.9998 30.0117 45.2585 30.0117 44.0476C30.0117 42.8449 30.7245 42.0747 31.4415 41.6097C32.0744 41.1994 32.8914 40.9055 33.578 40.6586C33.5963 40.652 33.6144 40.6455 33.6325 40.639C34.7569 40.2327 35.622 39.888 36.1442 39.3668C36.6849 38.8115 37.0551 37.9172 37.4878 36.7942L37.4947 36.7757C37.746 36.1053 38.0477 35.3002 38.4462 34.6717ZM40.8057 36.29C40.6115 36.6254 40.4195 37.1132 40.1609 37.8031L40.1586 37.8091L40.1563 37.8152C40.1442 37.8467 40.1319 37.8787 40.1194 37.9112C39.7381 38.9027 39.1827 40.347 38.1816 41.3698L38.1772 41.3744L38.1727 41.3788C37.1468 42.4086 35.6755 42.9393 34.6889 43.2953C34.6598 43.3058 34.6311 43.3161 34.6028 43.3264L34.601 43.327C33.8082 43.6123 33.3147 43.8013 32.9995 44.0048C32.9997 44.0049 32.9999 44.005 33.0001 44.0051C33.334 44.2184 33.8434 44.4218 34.5938 44.7053L34.5999 44.7076L34.606 44.7099C34.6374 44.7221 34.6692 44.7344 34.7016 44.747C35.6896 45.1298 37.13 45.6878 38.1496 46.6933L38.1541 46.6978L38.1586 46.7023C39.1771 47.7246 39.7343 49.1918 40.1166 50.1985C40.1257 50.2224 40.1346 50.246 40.1435 50.2693C40.4126 50.9687 40.6042 51.4601 40.8009 51.8034C40.9947 51.4681 41.1866 50.9808 41.4447 50.2922L41.4469 50.2861L41.4493 50.2801C41.4614 50.2486 41.4737 50.2166 41.4862 50.1841C41.8675 49.1925 42.4229 47.7482 43.424 46.7254L43.4284 46.7209L43.4329 46.7164C44.4559 45.6896 45.8758 45.1565 46.9199 44.7645C46.961 44.7491 47.0015 44.7339 47.0414 44.7189C47.7795 44.441 48.2652 44.2409 48.5843 44.0634C48.2632 43.8845 47.7772 43.684 47.0422 43.405L47.0169 43.3956C45.9373 42.9943 44.4712 42.4493 43.4329 41.4071C42.4144 40.3848 41.8572 38.9176 41.4749 37.9109C41.4655 37.8862 41.4562 37.8617 41.447 37.8376L41.4428 37.8266L41.4388 37.8155C41.1884 37.1225 40.9984 36.6285 40.8057 36.29ZM41.0037 36.0131C41.0037 36.0136 40.9999 36.0173 40.9925 36.0225C40.9999 36.0152 41.0037 36.0126 41.0037 36.0131ZM40.6202 36.0201C40.6126 36.0147 40.6088 36.0109 40.6088 36.0104C40.6088 36.0099 40.6126 36.0126 40.6202 36.0201ZM40.6019 52.0821C40.6019 52.0816 40.6056 52.078 40.6131 52.0727C40.6057 52.08 40.6019 52.0826 40.6019 52.0821ZM40.9893 52.0769C40.9967 52.0823 41.0004 52.0859 41.0003 52.0864C41.0003 52.0869 40.9967 52.0843 40.9893 52.0769ZM32.8129 43.8605C32.8134 43.8605 32.8171 43.8643 32.8223 43.8718C32.815 43.8643 32.8124 43.8605 32.8129 43.8605Z" fill="#00C5D7"/>
</svg>
