<svg width="101" height="100" viewBox="0 0 101 100" fill="none" xmlns="http://www.w3.org/2000/svg">
<path d="M6.89244 94.7262C6.10672 94.7262 5.46387 94.0834 5.46387 93.2977V65.8215C5.46387 65.4405 5.63054 65.0596 5.91625 64.7739C7.74959 63.0119 11.8686 60.0596 15.7258 60.0596C19.1781 60.0596 21.6543 61.4167 23.8448 62.631C25.5591 63.5596 27.0353 64.3929 28.6782 64.3929C29.3924 64.3929 29.9877 64.8929 30.1067 65.5834L32.0353 77.1786C32.4401 79.6072 34.8686 81.6548 37.321 81.6548H63.202C65.6543 81.6548 68.0829 79.6072 68.4877 77.1786L70.4163 65.5834C70.5353 64.8929 71.1305 64.3929 71.8448 64.3929C74.321 64.3929 75.821 63.4881 77.5829 62.4405C79.4401 61.3215 81.5115 60.0834 84.7972 60.0834C91.3448 60.0834 94.7258 66.3453 94.8686 66.6072C94.9877 66.8215 95.0353 67.0358 95.0353 67.2739V93.2977C95.0353 94.0834 94.3924 94.7262 93.6067 94.7262H6.89244ZM15.702 62.9405C12.9877 62.9405 9.96387 65.131 8.7972 66.0596L8.32101 66.4405V91.8691H92.1305V67.631L91.9162 67.3215C91.0115 66.012 88.5353 62.9405 84.7734 62.9405C82.2972 62.9405 80.7972 63.8453 79.0353 64.8929C77.6305 65.7262 76.0591 66.6786 73.9162 67.0596L73.0353 67.2262L71.2972 77.631C70.6543 81.4881 67.0829 84.5119 63.1782 84.5119H37.2972C33.3924 84.5119 29.821 81.4881 29.1781 77.631L27.4401 67.2024L26.6305 67.0119C25.1305 66.631 23.8448 65.9167 22.4877 65.1786C20.4877 64.0596 18.4401 62.9405 15.702 62.9405Z" fill="#2A3467"/>
<path d="M43.0351 74.4405C42.3208 74.4405 41.7017 73.9167 41.6065 73.2024L40.3446 64.369H37.2731C36.4874 64.369 35.8446 63.7262 35.8446 62.9405C35.8446 62.1548 36.4874 61.5119 37.2731 61.5119H39.9398L38.916 54.3214H35.8446C35.0589 54.3214 34.416 53.6786 34.416 52.8929C34.416 52.1071 35.0589 51.4643 35.8446 51.4643H38.5113L37.4874 44.2738H29.4398C28.8922 44.2738 28.3684 43.9405 28.1303 43.4405C24.8684 36.369 22.916 27.9881 22.916 21.0833C22.916 16.9881 24.1779 13.1548 26.4636 10.2976C29.1065 7.01191 32.8446 5.2738 37.2969 5.2738C40.6303 5.2738 43.0589 6.15476 45.1779 6.94047C46.8922 7.55952 48.4874 8.15476 50.2493 8.15476C51.9874 8.15476 53.6065 7.55952 55.3208 6.94047C57.4636 6.15476 59.8684 5.2738 63.2017 5.2738C67.4636 5.2738 71.1065 6.89286 73.7255 9.94048C76.2255 12.8214 77.5827 16.7976 77.5827 21.1071C77.5827 28.0357 75.6303 36.3929 72.3684 43.4643C72.1303 43.9643 71.6303 44.2976 71.0589 44.2976H63.0112L61.9874 51.4881H64.6541C65.4398 51.4881 66.0827 52.131 66.0827 52.9167C66.0827 53.7024 65.4398 54.3452 64.6541 54.3452H61.5827L60.5589 61.5357H63.2255C64.0112 61.5357 64.6541 62.1786 64.6541 62.9643C64.6541 63.75 64.0112 64.3928 63.2255 64.3928H60.1541L58.8922 73.2262C58.797 73.9405 58.1779 74.4643 57.4636 74.4643H43.0351V74.4405ZM44.2731 71.5595H56.1541L57.1779 64.369H43.2255L44.2731 71.5595ZM42.8446 61.4881H57.6065L58.6303 54.2976H41.8208L42.8446 61.4881ZM41.3922 51.4167H59.0351L60.0589 44.2262H40.3684L41.3922 51.4167ZM37.2731 8.08332C29.3208 8.08332 25.7732 14.5833 25.7732 21.0357C25.7732 27.0595 27.3208 34.1786 30.0112 40.5833L30.3446 41.3452H70.1065L70.4398 40.5833C73.1303 34.1786 74.6779 27.0595 74.6779 21.0357C74.6779 14.5833 71.1303 8.08332 63.1779 8.08332C60.3446 8.08332 58.2255 8.86904 56.1541 9.60714C54.2732 10.2976 52.4874 10.9405 50.2255 10.9405C47.9874 10.9405 46.2017 10.2976 44.297 9.60714C42.2255 8.86904 40.0827 8.08332 37.2731 8.08332Z" fill="#00C5D7"/>
</svg>
